CooperHewitt-Light.ufo
<glyph name="exclam" format="1">
  <advance width="200"/>
  <unicode hex="0021"/>
  <outline>
    <contour>
      <point x="77" y="780" type="line"/>
      <point x="88" y="175" type="line"/>
      <point x="112" y="175" type="line"/>
      <point x="123" y="780" type="line"/>
    </contour>
    <contour>
      <point x="130" y="60" type="line"/>
      <point x="70" y="60" type="line"/>
      <point x="70" y="0" type="line"/>
      <point x="130" y="0" type="line"/>
    </contour>
  </outline>
</glyph>
<glyph name="quotedbl" format="1">
  <advance width="300"/>
  <unicode hex="0022"/>
  <outline>
    <contour>
      <point x="77" y="780" type="line"/>
      <point x="88" y="530" type="line"/>
      <point x="112" y="530" type="line"/>
      <point x="123" y="780" type="line"/>
    </contour>
    <contour>
      <point x="177" y="780" type="line"/>
      <point x="188" y="530" type="line"/>
      <point x="212" y="530" type="line"/>
      <point x="223" y="780" type="line"/>
    </contour>
  </outline>
</glyph>
<glyph name="numbersign" format="1">
  <advance width="600"/>
  <unicode hex="0023"/>
  <outline>
    <contour>
      <point x="100" y="490" type="line"/>
      <point x="197" y="490" type="line"/>
      <point x="149" y="290" type="line"/>
      <point x="37" y="290" type="line"/>
      <point x="37" y="250" type="line"/>
      <point x="140" y="250" type="line"/>
      <point x="80" y="0" type="line"/>
      <point x="120" y="0" type="line"/>
      <point x="180" y="250" type="line"/>
      <point x="353" y="250" type="line"/>
      <point x="293" y="0" type="line"/>
      <point x="333" y="0" type="line"/>
      <point x="393" y="250" type="line"/>
      <point x="500" y="250" type="line"/>
      <point x="500" y="290" type="line"/>
      <point x="402" y="290" type="line"/>
      <point x="450" y="490" type="line"/>
      <point x="563" y="490" type="line"/>
      <point x="563" y="530" type="line"/>
      <point x="460" y="530" type="line"/>
      <point x="520" y="780" type="line"/>
      <point x="480" y="780" type="line"/>
      <point x="420" y="530" type="line"/>
      <point x="247" y="530" type="line"/>
      <point x="307" y="780" type="line"/>
      <point x="267" y="780" type="line"/>
      <point x="207" y="530" type="line"/>
      <point x="100" y="530" type="line"/>
    </contour>
    <contour>
      <point x="237" y="490" type="line"/>
      <point x="410" y="490" type="line"/>
      <point x="362" y="290" type="line"/>
      <point x="189" y="290" type="line"/>
    </contour>
  </outline>
</glyph>
<glyph name="dollar" format="1">
  <advance width="600"/>
  <unicode hex="0024"/>
  <outline>
    <contour>
      <point x="423" y="840" type="line"/>
      <point x="383" y="840" type="line"/>
      <point x="355" y="722" type="line"/>
      <point x="338" y="724"/>
      <point x="319" y="726"/>
      <point x="300" y="726" type="curve" smooth="yes"/>
      <point x="170" y="726"/>
      <point x="78" y="657"/>
      <point x="78" y="554" type="curve" smooth="yes"/>
      <point x="78" y="548" type="line" smooth="yes"/>
      <point x="78" y="468"/>
      <point x="129" y="404"/>
      <point x="274" y="384" type="curve"/>
      <point x="209" y="112" type="line"/>
      <point x="147" y="140"/>
      <point x="110" y="196"/>
      <point x="110" y="271" type="curve"/>
      <point x="70" y="271" type="line"/>
      <point x="70" y="264" type="line" smooth="yes"/>
      <point x="70" y="180"/>
      <point x="115" y="107"/>
      <point x="200" y="73" type="curve"/>
      <point x="168" y="-60" type="line"/>
      <point x="208" y="-60" type="line"/>
      <point x="237" y="62" type="line"/>
      <point x="259" y="57"/>
      <point x="283" y="54"/>
      <point x="310" y="54" type="curve" smooth="yes"/>
      <point x="445" y="54"/>
      <point x="530" y="125"/>
      <point x="530" y="235" type="curve" smooth="yes"/>
      <point x="530" y="242" type="line" smooth="yes"/>
      <point x="530" y="341"/>
      <point x="467" y="397"/>
      <point x="321" y="415" type="curve"/>
      <point x="383" y="675" type="line"/>
      <point x="451" y="651"/>
      <point x="483" y="591"/>
      <point x="483" y="498" type="curve"/>
      <point x="523" y="498" type="line"/>
      <point x="523" y="515" type="line" smooth="yes"/>
      <point x="523" y="613"/>
      <point x="482" y="685"/>
      <point x="392" y="713" type="curve"/>
    </contour>
    <contour>
      <point x="312" y="92" type="curve" smooth="yes"/>
      <point x="309" y="92" type="line" smooth="yes"/>
      <point x="286" y="92"/>
      <point x="265" y="94"/>
      <point x="246" y="99" type="curve"/>
      <point x="313" y="379" type="line"/>
      <point x="428" y="362"/>
      <point x="488" y="327"/>
      <point x="488" y="238" type="curve" smooth="yes"/>
      <point x="488" y="233" type="line" smooth="yes"/>
      <point x="488" y="144"/>
      <point x="419" y="92"/>
    </contour>
    <contour>
      <point x="120" y="553" type="curve" smooth="yes"/>
      <point x="120" y="558" type="line" smooth="yes"/>
      <point x="120" y="640"/>
      <point x="200" y="688"/>
      <point x="299" y="688" type="curve" smooth="yes"/>
      <point x="302" y="688" type="line" smooth="yes"/>
      <point x="317" y="688"/>
      <point x="332" y="687"/>
      <point x="346" y="685" type="curve"/>
      <point x="282" y="420" type="line"/>
      <point x="163" y="438"/>
      <point x="120" y="482"/>
    </contour>
  </outline>
</glyph>
<glyph name="percent" format="1">
  <advance width="900"/>
  <unicode hex="0025"/>
  <outline>
    <contour>
      <point x="309" y="0" type="line"/>
      <point x="617" y="743" type="line"/>
      <point x="617" y="780" type="line"/>
      <point x="592" y="768"/>
      <point x="503" y="748"/>
      <point x="440" y="748" type="curve" smooth="yes"/>
      <point x="386" y="748"/>
      <point x="321" y="760"/>
      <point x="263" y="780" type="curve" smooth="yes"/>
      <point x="244" y="787"/>
      <point x="223" y="790"/>
      <point x="202" y="790" type="curve" smooth="yes"/>
      <point x="115" y="790"/>
      <point x="42" y="735"/>
      <point x="42" y="625" type="curve" smooth="yes"/>
      <point x="42" y="615" type="line" smooth="yes"/>
      <point x="42" y="505"/>
      <point x="115" y="450"/>
      <point x="202" y="450" type="curve" smooth="yes"/>
      <point x="289" y="450"/>
      <point x="362" y="505"/>
      <point x="362" y="615" type="curve" smooth="yes"/>
      <point x="362" y="625" type="line" smooth="yes"/>
      <point x="362" y="664"/>
      <point x="353" y="696"/>
      <point x="337" y="721" type="curve"/>
      <point x="368" y="714"/>
      <point x="402" y="710"/>
      <point x="440" y="710" type="curve" smooth="yes"/>
      <point x="512" y="710"/>
      <point x="569" y="728"/>
      <point x="569" y="728" type="curve"/>
      <point x="267" y="0" type="line"/>
    </contour>
    <contour>
      <point x="538" y="165" type="curve" smooth="yes"/>
      <point x="538" y="155" type="line" smooth="yes"/>
      <point x="538" y="45"/>
      <point x="611" y="-10"/>
      <point x="698" y="-10" type="curve" smooth="yes"/>
      <point x="785" y="-10"/>
      <point x="858" y="45"/>
      <point x="858" y="155" type="curve" smooth="yes"/>
      <point x="858" y="165" type="line" smooth="yes"/>
      <point x="858" y="275"/>
      <point x="785" y="330"/>
      <point x="698" y="330" type="curve" smooth="yes"/>
      <point x="611" y="330"/>
      <point x="538" y="275"/>
    </contour>
    <contour>
      <point x="576" y="151" type="curve" smooth="yes"/>
      <point x="576" y="169" type="line" smooth="yes"/>
      <point x="576" y="250"/>
      <point x="631" y="292"/>
      <point x="695" y="292" type="curve" smooth="yes"/>
      <point x="701" y="292" type="line" smooth="yes"/>
      <point x="765" y="292"/>
      <point x="820" y="250"/>
      <point x="820" y="169" type="curve" smooth="yes"/>
      <point x="820" y="151" type="line" smooth="yes"/>
      <point x="820" y="70"/>
      <point x="765" y="28"/>
      <point x="701" y="28" type="curve" smooth="yes"/>
      <point x="695" y="28" type="line" smooth="yes"/>
      <point x="631" y="28"/>
      <point x="576" y="70"/>
    </contour>
    <contour>
      <point x="324" y="629" type="curve" smooth="yes"/>
      <point x="324" y="611" type="line" smooth="yes"/>
      <point x="324" y="530"/>
      <point x="269" y="488"/>
      <point x="205" y="488" type="curve" smooth="yes"/>
      <point x="199" y="488" type="line" smooth="yes"/>
      <point x="135" y="488"/>
      <point x="80" y="530"/>
      <point x="80" y="611" type="curve" smooth="yes"/>
      <point x="80" y="629" type="line" smooth="yes"/>
      <point x="80" y="710"/>
      <point x="135" y="752"/>
      <point x="199" y="752" type="curve" smooth="yes"/>
      <point x="205" y="752" type="line" smooth="yes"/>
      <point x="269" y="752"/>
      <point x="324" y="710"/>
    </contour>
  </outline>
</glyph>
<glyph name="ampersand" format="1">
  <advance width="650"/>
  <unicode hex="0026"/>
  <outline>
    <contour>
      <point x="270" y="-10" type="curve" smooth="yes"/>
      <point x="354" y="-10"/>
      <point x="437" y="18"/>
      <point x="495" y="94" type="curve"/>
      <point x="584" y="0" type="line"/>
      <point x="640" y="0" type="line"/>
      <point x="518" y="129" type="line"/>
      <point x="553" y="191"/>
      <point x="575" y="277"/>
      <point x="575" y="395" type="curve"/>
      <point x="535" y="395" type="line"/>
      <point x="535" y="390" type="line" smooth="yes"/>
      <point x="535" y="288"/>
      <point x="517" y="213"/>
      <point x="489" y="159" type="curve"/>
      <point x="244" y="417" type="line"/>
      <point x="330" y="476"/>
      <point x="420" y="531"/>
      <point x="420" y="625" type="curve" smooth="yes"/>
      <point x="420" y="635" type="line" smooth="yes"/>
      <point x="420" y="725"/>
      <point x="355" y="790"/>
      <point x="245" y="790" type="curve" smooth="yes"/>
      <point x="135" y="790"/>
      <point x="70" y="725"/>
      <point x="70" y="635" type="curve" smooth="yes"/>
      <point x="70" y="625" type="line" smooth="yes"/>
      <point x="70" y="546"/>
      <point x="113" y="496"/>
      <point x="184" y="421" type="curve"/>
      <point x="113" y="370"/>
      <point x="50" y="309"/>
      <point x="50" y="210" type="curve" smooth="yes"/>
      <point x="50" y="200" type="line" smooth="yes"/>
      <point x="50" y="65"/>
      <point x="135" y="-10"/>
    </contour>
    <contour>
      <point x="267" y="30" type="line" smooth="yes"/>
      <point x="145" y="30"/>
      <point x="90" y="100"/>
      <point x="90" y="200" type="curve" smooth="yes"/>
      <point x="90" y="210" type="line" smooth="yes"/>
      <point x="90" y="292"/>
      <point x="145" y="346"/>
      <point x="210" y="394" type="curve"/>
      <point x="467" y="123" type="line"/>
      <point x="416" y="53"/>
      <point x="342" y="30"/>
      <point x="273" y="30" type="curve" smooth="yes"/>
    </contour>
    <contour>
      <point x="112" y="635" type="line" smooth="yes"/>
      <point x="112" y="695"/>
      <point x="155" y="750"/>
      <point x="241" y="750" type="curve" smooth="yes"/>
      <point x="249" y="750" type="line" smooth="yes"/>
      <point x="335" y="750"/>
      <point x="378" y="695"/>
      <point x="378" y="635" type="curve" smooth="yes"/>
      <point x="378" y="625" type="line" smooth="yes"/>
      <point x="378" y="546"/>
      <point x="298" y="499"/>
      <point x="218" y="445" type="curve"/>
      <point x="158" y="506"/>
      <point x="112" y="554"/>
      <point x="112" y="625" type="curve" smooth="yes"/>
    </contour>
  </outline>
</glyph>
<glyph name="quotesingle" format="1">
  <advance width="200"/>
  <unicode hex="0027"/>
  <outline>
    <contour>
      <point x="77" y="780" type="line"/>
      <point x="88" y="530" type="line"/>
      <point x="112" y="530" type="line"/>
      <point x="123" y="780" type="line"/>
    </contour>
  </outline>
</glyph>
<glyph name="parenleft" format="1">
  <advance width="300"/>
  <unicode hex="0028"/>
  <outline>
    <contour>
      <point x="55" y="350" type="line" smooth="yes"/>
      <point x="55" y="118"/>
      <point x="130" y="0"/>
      <point x="215" y="-120" type="curve"/>
      <point x="260" y="-120" type="line"/>
      <point x="166" y="10"/>
      <point x="95" y="131"/>
      <point x="95" y="350" type="curve" smooth="yes"/>
      <point x="95" y="370" type="line" smooth="yes"/>
      <point x="95" y="589"/>
      <point x="166" y="710"/>
      <point x="260" y="840" type="curve"/>
      <point x="215" y="840" type="line"/>
      <point x="130" y="720"/>
      <point x="55" y="602"/>
      <point x="55" y="370" type="curve" smooth="yes"/>
    </contour>
  </outline>
</glyph>
<glyph name="parenright" format="1">
  <advance width="300"/>
  <unicode hex="0029"/>
  <outline>
    <contour>
      <point x="245" y="370" type="line" smooth="yes"/>
      <point x="245" y="602"/>
      <point x="170" y="720"/>
      <point x="85" y="840" type="curve"/>
      <point x="40" y="840" type="line"/>
      <point x="134" y="710"/>
      <point x="205" y="589"/>
      <point x="205" y="370" type="curve" smooth="yes"/>
      <point x="205" y="350" type="line" smooth="yes"/>
      <point x="205" y="131"/>
      <point x="134" y="10"/>
      <point x="40" y="-120" type="curve"/>
      <point x="85" y="-120" type="line"/>
      <point x="170" y="0"/>
      <point x="245" y="118"/>
      <point x="245" y="350" type="curve" smooth="yes"/>
    </contour>
  </outline>
</glyph>
<glyph name="asterisk" format="1">
  <advance width="380"/>
  <unicode hex="002A"/>
  <outline>
    <contour>
      <point x="170" y="800" type="line"/>
      <point x="175" y="650" type="line"/>
      <point x="205" y="650" type="line"/>
      <point x="210" y="800" type="line"/>
    </contour>
    <contour>
      <point x="12" y="657" type="line"/>
      <point x="157" y="616" type="line"/>
      <point x="166" y="644" type="line"/>
      <point x="25" y="695" type="line"/>
    </contour>
    <contour>
      <point x="100" y="464" type="line"/>
      <point x="184" y="588" type="line"/>
      <point x="160" y="605" type="line"/>
      <point x="68" y="487" type="line"/>
    </contour>
    <contour>
      <point x="355" y="695" type="line"/>
      <point x="214" y="644" type="line"/>
      <point x="223" y="616" type="line"/>
      <point x="368" y="657" type="line"/>
    </contour>
    <contour>
      <point x="312" y="487" type="line"/>
      <point x="220" y="605" type="line"/>
      <point x="196" y="588" type="line"/>
      <point x="280" y="464" type="line"/>
    </contour>
  </outline>
</glyph>
<glyph name="plus" format="1">
  <advance width="600"/>
  <unicode hex="002B"/>
  <outline>
    <contour>
      <point x="280" y="640" type="line"/>
      <point x="280" y="410" type="line"/>
      <point x="50" y="410" type="line"/>
      <point x="50" y="370" type="line"/>
      <point x="280" y="370" type="line"/>
      <point x="280" y="140" type="line"/>
      <point x="320" y="140" type="line"/>
      <point x="320" y="370" type="line"/>
      <point x="550" y="370" type="line"/>
      <point x="550" y="410" type="line"/>
      <point x="320" y="410" type="line"/>
      <point x="320" y="640" type="line"/>
    </contour>
  </outline>
</glyph>
<glyph name="hyphen" format="1">
  <advance width="320"/>
  <unicode hex="002D"/>
  <outline>
    <contour>
      <point x="40" y="331" type="line"/>
      <point x="280" y="331" type="line"/>
      <point x="280" y="369" type="line"/>
      <point x="40" y="369" type="line"/>
    </contour>
  </outline>
</glyph>
<glyph name="zero" format="1">
  <advance width="600"/>
  <unicode hex="0030"/>
  <outline>
    <contour>
      <point x="532" y="225" type="curve" smooth="yes"/>
      <point x="532" y="555" type="line" smooth="yes"/>
      <point x="532" y="690"/>
      <point x="470" y="790"/>
      <point x="300" y="790" type="curve" smooth="yes"/>
      <point x="130" y="790"/>
      <point x="68" y="690"/>
      <point x="68" y="555" type="curve" smooth="yes"/>
      <point x="68" y="225" type="line" smooth="yes"/>
      <point x="68" y="90"/>
      <point x="130" y="-10"/>
      <point x="300" y="-10" type="curve" smooth="yes"/>
      <point x="470" y="-10"/>
      <point x="532" y="90"/>
    </contour>
    <contour>
      <point x="490" y="545" type="curve" smooth="yes"/>
      <point x="490" y="235" type="line" smooth="yes"/>
      <point x="490" y="110"/>
      <point x="445" y="28"/>
      <point x="303" y="28" type="curve" smooth="yes"/>
      <point x="297" y="28" type="line" smooth="yes"/>
      <point x="155" y="28"/>
      <point x="110" y="110"/>
      <point x="110" y="235" type="curve" smooth="yes"/>
      <point x="110" y="545" type="line" smooth="yes"/>
      <point x="110" y="670"/>
      <point x="155" y="752"/>
      <point x="297" y="752" type="curve" smooth="yes"/>
      <point x="303" y="752" type="line" smooth="yes"/>
      <point x="445" y="752"/>
      <point x="490" y="670"/>
    </contour>
  </outline>
</glyph>
<glyph name="one" format="1">
  <advance width="600"/>
  <unicode hex="0031"/>
  <outline>
    <contour>
      <point x="545" y="0" type="line"/>
      <point x="545" y="40" type="line"/>
      <point x="330" y="40" type="line"/>
      <point x="330" y="785" type="line"/>
      <point x="310" y="785" type="line"/>
      <point x="65" y="619" type="line"/>
      <point x="86" y="585" type="line"/>
      <point x="290" y="723" type="line"/>
      <point x="290" y="40" type="line"/>
      <point x="75" y="40" type="line"/>
      <point x="75" y="0" type="line"/>
    </contour>
  </outline>
</glyph>
<glyph name="two" format="1">
  <advance width="600"/>
  <unicode hex="0032"/>
  <outline>
    <contour>
      <point x="205" y="40" type="line"/>
      <point x="128" y="39" type="line"/>
      <point x="448" y="375" type="line" smooth="yes"/>
      <point x="522" y="452"/>
      <point x="540" y="499"/>
      <point x="540" y="575" type="curve" smooth="yes"/>
      <point x="540" y="585" type="line" smooth="yes"/>
      <point x="540" y="715"/>
      <point x="447" y="790"/>
      <point x="300" y="790" type="curve" smooth="yes"/>
      <point x="133" y="790"/>
      <point x="60" y="699"/>
      <point x="60" y="545" type="curve" smooth="yes"/>
      <point x="60" y="520" type="line"/>
      <point x="100" y="520" type="line"/>
      <point x="100" y="684"/>
      <point x="164" y="752"/>
      <point x="297" y="752" type="curve" smooth="yes"/>
      <point x="303" y="752" type="line" smooth="yes"/>
      <point x="420" y="752"/>
      <point x="498" y="685"/>
      <point x="498" y="580" type="curve" smooth="yes"/>
      <point x="498" y="570" type="line" smooth="yes"/>
      <point x="498" y="509"/>
      <point x="478" y="464"/>
      <point x="410" y="393" type="curve" smooth="yes"/>
      <point x="60" y="25" type="line"/>
      <point x="60" y="0" type="line"/>
      <point x="540" y="0" type="line"/>
      <point x="540" y="40" type="line"/>
    </contour>
  </outline>
</glyph>
<glyph name="three" format="1">
  <advance width="600"/>
  <unicode hex="0033"/>
  <outline>
    <contour>
      <point x="95" y="250" type="curve"/>
      <point x="55" y="250" type="line"/>
      <point x="55" y="240" type="line" smooth="yes"/>
      <point x="55" y="88"/>
      <point x="131" y="-10"/>
      <point x="300" y="-10" type="curve" smooth="yes"/>
      <point x="433" y="-10"/>
      <point x="545" y="64"/>
      <point x="545" y="197" type="curve" smooth="yes"/>
      <point x="545" y="212" type="line" smooth="yes"/>
      <point x="545" y="313"/>
      <point x="487" y="374"/>
      <point x="400" y="398" type="curve"/>
      <point x="484" y="420"/>
      <point x="540" y="475"/>
      <point x="540" y="571" type="curve" smooth="yes"/>
      <point x="540" y="585" type="line" smooth="yes"/>
      <point x="540" y="715"/>
      <point x="447" y="790"/>
      <point x="300" y="790" type="curve" smooth="yes"/>
      <point x="133" y="790"/>
      <point x="60" y="699"/>
      <point x="60" y="545" type="curve" smooth="yes"/>
      <point x="60" y="520" type="line"/>
      <point x="100" y="520" type="line"/>
      <point x="100" y="684"/>
      <point x="162" y="752"/>
      <point x="295" y="752" type="curve" smooth="yes"/>
      <point x="305" y="752" type="line" smooth="yes"/>
      <point x="422" y="752"/>
      <point x="498" y="685"/>
      <point x="498" y="580" type="curve" smooth="yes"/>
      <point x="498" y="573" type="line" smooth="yes"/>
      <point x="498" y="464"/>
      <point x="415" y="417"/>
      <point x="312" y="417" type="curve" smooth="yes"/>
      <point x="200" y="417" type="line"/>
      <point x="200" y="379" type="line"/>
      <point x="317" y="379" type="line" smooth="yes"/>
      <point x="420" y="379"/>
      <point x="503" y="324"/>
      <point x="503" y="210" type="curve" smooth="yes"/>
      <point x="503" y="195" type="line" smooth="yes"/>
      <point x="503" y="81"/>
      <point x="408" y="28"/>
      <point x="305" y="28" type="curve" smooth="yes"/>
      <point x="295" y="28" type="line" smooth="yes"/>
      <point x="169" y="28"/>
      <point x="95" y="99"/>
    </contour>
  </outline>
</glyph>
<glyph name="four" format="1">
  <advance width="600"/>
  <unicode hex="0034"/>
  <outline>
    <contour>
      <point x="420" y="0" type="line"/>
      <point x="420" y="220" type="line"/>
      <point x="565" y="220" type="line"/>
      <point x="565" y="260" type="line"/>
      <point x="420" y="260" type="line"/>
      <point x="420" y="780" type="line"/>
      <point x="380" y="780" type="line"/>
      <point x="35" y="245" type="line"/>
      <point x="35" y="220" type="line"/>
      <point x="380" y="220" type="line"/>
      <point x="380" y="0" type="line"/>
    </contour>
    <contour>
      <point x="381" y="708" type="line"/>
      <point x="380" y="590" type="line"/>
      <point x="380" y="260" type="line"/>
      <point x="190" y="260" type="line"/>
      <point x="92" y="259" type="line"/>
    </contour>
  </outline>
</glyph>
<glyph name="five" format="1">
  <advance width="600"/>
  <unicode hex="0035"/>
  <outline>
    <contour>
      <point x="55" y="250" type="line"/>
      <point x="55" y="240" type="line" smooth="yes"/>
      <point x="55" y="88"/>
      <point x="131" y="-10"/>
      <point x="300" y="-10" type="curve" smooth="yes"/>
      <point x="433" y="-10"/>
      <point x="545" y="72"/>
      <point x="545" y="235" type="curve" smooth="yes"/>
      <point x="545" y="245" type="line" smooth="yes"/>
      <point x="545" y="408"/>
      <point x="433" y="490"/>
      <point x="300" y="490" type="curve" smooth="yes"/>
      <point x="215" y="490"/>
      <point x="146" y="459"/>
      <point x="104" y="405" type="curve"/>
      <point x="118" y="740" type="line"/>
      <point x="535" y="740" type="line"/>
      <point x="535" y="780" type="line"/>
      <point x="80" y="780" type="line"/>
      <point x="61" y="339" type="line"/>
      <point x="94" y="330" type="line"/>
      <point x="127" y="412"/>
      <point x="212" y="452"/>
      <point x="295" y="452" type="curve" smooth="yes"/>
      <point x="305" y="452" type="line" smooth="yes"/>
      <point x="408" y="452"/>
      <point x="503" y="391"/>
      <point x="503" y="250" type="curve" smooth="yes"/>
      <point x="503" y="230" type="line" smooth="yes"/>
      <point x="503" y="89"/>
      <point x="408" y="28"/>
      <point x="305" y="28" type="curve" smooth="yes"/>
      <point x="295" y="28" type="line" smooth="yes"/>
      <point x="169" y="28"/>
      <point x="95" y="99"/>
      <point x="95" y="250" type="curve"/>
    </contour>
  </outline>
</glyph>
<glyph name="six" format="1">
  <advance width="600"/>
  <unicode hex="0036"/>
  <outline>
    <contour>
      <point x="515" y="790" type="line"/>
      <point x="400" y="790"/>
      <point x="256" y="741"/>
      <point x="170" y="626" type="curve" smooth="yes"/>
      <point x="87" y="515"/>
      <point x="60" y="394"/>
      <point x="60" y="270" type="curve" smooth="yes"/>
      <point x="60" y="260" type="line" smooth="yes"/>
      <point x="60" y="83"/>
      <point x="170" y="-10"/>
      <point x="305" y="-10" type="curve" smooth="yes"/>
      <point x="446" y="-10"/>
      <point x="550" y="67"/>
      <point x="550" y="235" type="curve" smooth="yes"/>
      <point x="550" y="245" type="line" smooth="yes"/>
      <point x="550" y="413"/>
      <point x="446" y="490"/>
      <point x="310" y="490" type="curve" smooth="yes"/>
      <point x="224" y="490"/>
      <point x="157" y="453"/>
      <point x="113" y="395" type="curve"/>
      <point x="128" y="464"/>
      <point x="156" y="536"/>
      <point x="204" y="600" type="curve" smooth="yes"/>
      <point x="286" y="709"/>
      <point x="415" y="750"/>
      <point x="515" y="750" type="curve"/>
    </contour>
    <contour>
      <point x="307" y="450" type="curve" smooth="yes"/>
      <point x="313" y="450" type="line" smooth="yes"/>
      <point x="432" y="450"/>
      <point x="508" y="377"/>
      <point x="508" y="248" type="curve" smooth="yes"/>
      <point x="508" y="232" type="line" smooth="yes"/>
      <point x="508" y="103"/>
      <point x="432" y="30"/>
      <point x="308" y="30" type="curve" smooth="yes"/>
      <point x="302" y="30" type="line" smooth="yes"/>
      <point x="190" y="30"/>
      <point x="100" y="116"/>
      <point x="100" y="260" type="curve" smooth="yes"/>
      <point x="100" y="270" type="line" smooth="yes"/>
      <point x="100" y="287"/>
      <point x="100" y="305"/>
      <point x="102" y="323" type="curve"/>
      <point x="138" y="398"/>
      <point x="213" y="450"/>
    </contour>
  </outline>
</glyph>
<glyph name="seven" format="1">
  <advance width="600"/>
  <unicode hex="0037"/>
  <outline>
    <contour>
      <point x="65" y="500" type="line"/>
      <point x="105" y="500" type="line"/>
      <point x="105" y="740" type="line"/>
      <point x="379" y="740" type="line"/>
      <point x="496" y="741" type="line"/>
      <point x="195" y="0" type="line"/>
      <point x="238" y="0" type="line"/>
      <point x="545" y="755" type="line"/>
      <point x="545" y="780" type="line"/>
      <point x="65" y="780" type="line"/>
    </contour>
  </outline>
</glyph>
<glyph name="eight" format="1">
  <advance width="600"/>
  <unicode hex="0038"/>
  <outline>
    <contour>
      <point x="300" y="-10" type="curve" smooth="yes"/>
      <point x="433" y="-10"/>
      <point x="545" y="61"/>
      <point x="545" y="194" type="curve" smooth="yes"/>
      <point x="545" y="209" type="line" smooth="yes"/>
      <point x="545" y="310"/>
      <point x="486" y="374"/>
      <point x="399" y="398" type="curve"/>
      <point x="483" y="420"/>
      <point x="540" y="478"/>
      <point x="540" y="574" type="curve" smooth="yes"/>
      <point x="540" y="588" type="line" smooth="yes"/>
      <point x="540" y="718"/>
      <point x="447" y="790"/>
      <point x="300" y="790" type="curve" smooth="yes"/>
      <point x="153" y="790"/>
      <point x="60" y="718"/>
      <point x="60" y="588" type="curve" smooth="yes"/>
      <point x="60" y="574" type="line" smooth="yes"/>
      <point x="60" y="478"/>
      <point x="116" y="420"/>
      <point x="200" y="398" type="curve"/>
      <point x="113" y="374"/>
      <point x="55" y="310"/>
      <point x="55" y="209" type="curve" smooth="yes"/>
      <point x="55" y="194" type="line" smooth="yes"/>
      <point x="55" y="61"/>
      <point x="167" y="-10"/>
    </contour>
    <contour>
      <point x="283" y="379" type="curve" smooth="yes"/>
      <point x="317" y="379" type="line" smooth="yes"/>
      <point x="420" y="379"/>
      <point x="503" y="321"/>
      <point x="503" y="207" type="curve" smooth="yes"/>
      <point x="503" y="192" type="line" smooth="yes"/>
      <point x="503" y="78"/>
      <point x="408" y="28"/>
      <point x="305" y="28" type="curve" smooth="yes"/>
      <point x="295" y="28" type="line" smooth="yes"/>
      <point x="192" y="28"/>
      <point x="97" y="78"/>
      <point x="97" y="192" type="curve" smooth="yes"/>
      <point x="97" y="207" type="line" smooth="yes"/>
      <point x="97" y="321"/>
      <point x="180" y="379"/>
    </contour>
    <contour>
      <point x="305" y="752" type="line" smooth="yes"/>
      <point x="422" y="752"/>
      <point x="498" y="688"/>
      <point x="498" y="583" type="curve" smooth="yes"/>
      <point x="498" y="576" type="line" smooth="yes"/>
      <point x="498" y="467"/>
      <point x="415" y="417"/>
      <point x="312" y="417" type="curve" smooth="yes"/>
      <point x="288" y="417" type="line" smooth="yes"/>
      <point x="185" y="417"/>
      <point x="102" y="467"/>
      <point x="102" y="576" type="curve" smooth="yes"/>
      <point x="102" y="583" type="line" smooth="yes"/>
      <point x="102" y="688"/>
      <point x="178" y="752"/>
      <point x="295" y="752" type="curve" smooth="yes"/>
    </contour>
  </outline>
</glyph>
<glyph name="nine" format="1">
  <advance width="600"/>
  <unicode hex="0039"/>
  <outline>
    <contour>
      <point x="85" y="-10" type="line"/>
      <point x="200" y="-10"/>
      <point x="344" y="39"/>
      <point x="430" y="154" type="curve" smooth="yes"/>
      <point x="513" y="265"/>
      <point x="540" y="386"/>
      <point x="540" y="510" type="curve" smooth="yes"/>
      <point x="540" y="520" type="line" smooth="yes"/>
      <point x="540" y="697"/>
      <point x="430" y="790"/>
      <point x="295" y="790" type="curve" smooth="yes"/>
      <point x="154" y="790"/>
      <point x="50" y="713"/>
      <point x="50" y="545" type="curve" smooth="yes"/>
      <point x="50" y="535" type="line" smooth="yes"/>
      <point x="50" y="367"/>
      <point x="154" y="290"/>
      <point x="290" y="290" type="curve" smooth="yes"/>
      <point x="376" y="290"/>
      <point x="443" y="327"/>
      <point x="486" y="384" type="curve"/>
      <point x="472" y="316"/>
      <point x="444" y="244"/>
      <point x="396" y="180" type="curve" smooth="yes"/>
      <point x="314" y="71"/>
      <point x="185" y="30"/>
      <point x="85" y="30" type="curve"/>
    </contour>
    <contour>
      <point x="293" y="330" type="curve" smooth="yes"/>
      <point x="287" y="330" type="line" smooth="yes"/>
      <point x="168" y="330"/>
      <point x="92" y="403"/>
      <point x="92" y="532" type="curve" smooth="yes"/>
      <point x="92" y="548" type="line" smooth="yes"/>
      <point x="92" y="677"/>
      <point x="168" y="750"/>
      <point x="292" y="750" type="curve" smooth="yes"/>
      <point x="298" y="750" type="line" smooth="yes"/>
      <point x="410" y="750"/>
      <point x="500" y="664"/>
      <point x="500" y="520" type="curve" smooth="yes"/>
      <point x="500" y="510" type="line" smooth="yes"/>
      <point x="500" y="493"/>
      <point x="499" y="475"/>
      <point x="497" y="456" type="curve"/>
      <point x="461" y="382"/>
      <point x="386" y="330"/>
    </contour>
  </outline>
</glyph>
<glyph name="colon" format="1">
  <advance width="200"/>
  <unicode hex="003A"/>
  <outline>
    <contour>
      <point x="130" y="60" type="line"/>
      <point x="70" y="60" type="line"/>
      <point x="70" y="0" type="line"/>
      <point x="130" y="0" type="line"/>
    </contour>
    <contour>
      <point x="130" y="420" type="line"/>
      <point x="70" y="420" type="line"/>
      <point x="70" y="360" type="line"/>
      <point x="130" y="360" type="line"/>
    </contour>
  </outline>
</glyph>
<glyph name="semicolon" format="1">
  <advance width="200"/>
  <unicode hex="003B"/>
  <outline>
    <contour>
      <point x="130" y="60" type="line"/>
      <point x="70" y="60" type="line"/>
      <point x="70" y="0" type="line"/>
      <point x="100" y="0" type="line"/>
      <point x="98" y="-62"/>
      <point x="78" y="-80"/>
      <point x="40" y="-80" type="curve"/>
      <point x="40" y="-110" type="line"/>
      <point x="100" y="-110"/>
      <point x="130" y="-70"/>
      <point x="130" y="12" type="curve" smooth="yes"/>
    </contour>
    <contour>
      <point x="130" y="420" type="line"/>
      <point x="70" y="420" type="line"/>
      <point x="70" y="360" type="line"/>
      <point x="130" y="360" type="line"/>
    </contour>
  </outline>
</glyph>
<glyph name="less" format="1">
  <advance width="600"/>
  <unicode hex="003C"/>
  <outline>
    <contour>
      <point x="50" y="410" type="line"/>
      <point x="50" y="370" type="line"/>
      <point x="550" y="124" type="line"/>
      <point x="550" y="166" type="line"/>
      <point x="90" y="390" type="line"/>
      <point x="550" y="614" type="line"/>
      <point x="550" y="656" type="line"/>
    </contour>
  </outline>
</glyph>
<glyph name="equal" format="1">
  <advance width="600"/>
  <unicode hex="003D"/>
  <outline>
    <contour>
      <point x="50" y="470" type="line"/>
      <point x="550" y="470" type="line"/>
      <point x="550" y="510" type="line"/>
      <point x="50" y="510" type="line"/>
    </contour>
    <contour>
      <point x="50" y="270" type="line"/>
      <point x="550" y="270" type="line"/>
      <point x="550" y="310" type="line"/>
      <point x="50" y="310" type="line"/>
    </contour>
  </outline>
</glyph>
<glyph name="greater" format="1">
  <advance width="600"/>
  <unicode hex="003E"/>
  <outline>
    <contour>
      <point x="550" y="410" type="line"/>
      <point x="50" y="656" type="line"/>
      <point x="50" y="614" type="line"/>
      <point x="509" y="390" type="line"/>
      <point x="50" y="166" type="line"/>
      <point x="50" y="124" type="line"/>
      <point x="550" y="370" type="line"/>
    </contour>
  </outline>
</glyph>
<glyph name="question" format="1">
  <advance width="440"/>
  <unicode hex="003F"/>
  <outline>
    <contour>
      <point x="223" y="752" type="curve" smooth="yes"/>
      <point x="335" y="752"/>
      <point x="366" y="685"/>
      <point x="366" y="575" type="curve" smooth="yes"/>
      <point x="366" y="417"/>
      <point x="203" y="380"/>
      <point x="208" y="175" type="curve"/>
      <point x="232" y="175" type="line"/>
      <point x="237" y="380"/>
      <point x="408" y="381"/>
      <point x="408" y="580" type="curve" smooth="yes"/>
      <point x="408" y="714"/>
      <point x="350" y="790"/>
      <point x="223" y="790" type="curve" smooth="yes"/>
      <point x="64" y="790"/>
      <point x="28" y="662"/>
      <point x="28" y="510" type="curve" smooth="yes"/>
      <point x="28" y="500" type="line"/>
      <point x="68" y="500" type="line"/>
      <point x="68" y="651"/>
      <point x="100" y="752"/>
    </contour>
    <contour>
      <point x="250" y="60" type="line"/>
      <point x="190" y="60" type="line"/>
      <point x="190" y="0" type="line"/>
      <point x="250" y="0" type="line"/>
    </contour>
  </outline>
</glyph>
<glyph name="at" format="1">
  <advance width="950"/>
  <unicode hex="0040"/>
  <outline>
    <contour>
      <point x="497" y="-172" type="line" smooth="yes"/>
      <point x="250" y="-172"/>
      <point x="75" y="-15"/>
      <point x="75" y="270" type="curve" smooth="yes"/>
      <point x="75" y="310" type="line" smooth="yes"/>
      <point x="75" y="585"/>
      <point x="245" y="752"/>
      <point x="492" y="752" type="curve" smooth="yes"/>
      <point x="498" y="752" type="line" smooth="yes"/>
      <point x="695" y="752"/>
      <point x="873" y="640"/>
      <point x="873" y="385" type="curve" smooth="yes"/>
      <point x="873" y="355" type="line" smooth="yes"/>
      <point x="873" y="131"/>
      <point x="777" y="99"/>
      <point x="650" y="97" type="curve"/>
      <point x="650" y="380" type="line"/>
      <point x="655" y="530" type="line"/>
      <point x="625" y="530" type="line"/>
      <point x="615" y="453" type="line"/>
      <point x="588" y="499"/>
      <point x="537" y="540"/>
      <point x="455" y="540" type="curve" smooth="yes"/>
      <point x="310" y="540"/>
      <point x="255" y="423"/>
      <point x="255" y="305" type="curve" smooth="yes"/>
      <point x="255" y="285" type="line" smooth="yes"/>
      <point x="255" y="167"/>
      <point x="310" y="50"/>
      <point x="455" y="50" type="curve" smooth="yes"/>
      <point x="537" y="50"/>
      <point x="588" y="91"/>
      <point x="615" y="136" type="curve"/>
      <point x="625" y="60" type="line"/>
      <point x="650" y="60" type="line" smooth="yes"/>
      <point x="805" y="60"/>
      <point x="915" y="115"/>
      <point x="915" y="355" type="curve" smooth="yes"/>
      <point x="915" y="385" type="line" smooth="yes"/>
      <point x="915" y="655"/>
      <point x="725" y="790"/>
      <point x="495" y="790" type="curve" smooth="yes"/>
      <point x="220" y="790"/>
      <point x="35" y="610"/>
      <point x="35" y="310" type="curve" smooth="yes"/>
      <point x="35" y="270" type="line" smooth="yes"/>
      <point x="35" y="-30"/>
      <point x="225" y="-210"/>
      <point x="500" y="-210" type="curve" smooth="yes"/>
      <point x="617" y="-210"/>
      <point x="744" y="-186"/>
      <point x="854" y="-100" type="curve"/>
      <point x="832" y="-70" type="line"/>
      <point x="731" y="-145"/>
      <point x="624" y="-172"/>
      <point x="503" y="-172" type="curve" smooth="yes"/>
    </contour>
    <contour>
      <point x="610" y="410" type="curve"/>
      <point x="610" y="180" type="line"/>
      <point x="585" y="140"/>
      <point x="535" y="88"/>
      <point x="460" y="88" type="curve" smooth="yes"/>
      <point x="347" y="88"/>
      <point x="297" y="174"/>
      <point x="297" y="285" type="curve" smooth="yes"/>
      <point x="297" y="305" type="line" smooth="yes"/>
      <point x="297" y="416"/>
      <point x="347" y="502"/>
      <point x="460" y="502" type="curve" smooth="yes"/>
      <point x="535" y="502"/>
      <point x="585" y="450"/>
    </contour>
  </outline>
</glyph>
<glyph name="D" format="1">
  <advance width="630"/>
  <unicode hex="0044"/>
  <outline>
    <contour>
      <point x="567" y="370" type="curve" smooth="yes"/>
      <point x="567" y="410" type="line" smooth="yes"/>
      <point x="567" y="680"/>
      <point x="450" y="780"/>
      <point x="275" y="780" type="curve" smooth="yes"/>
      <point x="80" y="780" type="line"/>
      <point x="80" y="0" type="line"/>
      <point x="275" y="0" type="line" smooth="yes"/>
      <point x="450" y="0"/>
      <point x="567" y="100"/>
    </contour>
    <contour>
      <point x="120" y="38" type="line"/>
      <point x="120" y="742" type="line"/>
      <point x="270" y="742" type="line" smooth="yes"/>
      <point x="425" y="742"/>
      <point x="525" y="655"/>
      <point x="525" y="410" type="curve" smooth="yes"/>
      <point x="525" y="370" type="line" smooth="yes"/>
      <point x="525" y="125"/>
      <point x="425" y="38"/>
      <point x="270" y="38" type="curve" smooth="yes"/>
    </contour>
  </outline>
</glyph>
<glyph name="E" format="1">
  <advance width="540"/>
  <unicode hex="0045"/>
  <outline>
    <contour>
      <point x="80" y="780" type="line"/>
      <point x="80" y="0" type="line"/>
      <point x="500" y="0" type="line"/>
      <point x="500" y="38" type="line"/>
      <point x="120" y="38" type="line"/>
      <point x="120" y="379" type="line"/>
      <point x="450" y="379" type="line"/>
      <point x="450" y="417" type="line"/>
      <point x="120" y="417" type="line"/>
      <point x="120" y="742" type="line"/>
      <point x="500" y="742" type="line"/>
      <point x="500" y="780" type="line"/>
    </contour>
  </outline>
</glyph>
<glyph name="F" format="1">
  <advance width="500"/>
  <unicode hex="0046"/>
  <outline>
    <contour>
      <point x="80" y="780" type="line"/>
      <point x="80" y="0" type="line"/>
      <point x="120" y="0" type="line"/>
      <point x="120" y="379" type="line"/>
      <point x="430" y="379" type="line"/>
      <point x="430" y="417" type="line"/>
      <point x="120" y="417" type="line"/>
      <point x="120" y="742" type="line"/>
      <point x="480" y="742" type="line"/>
      <point x="480" y="780" type="line"/>
    </contour>
  </outline>
</glyph>
<glyph name="G" format="1">
  <advance width="638"/>
  <unicode hex="0047"/>
  <outline>
    <contour>
      <point x="338" y="-10" type="curve" smooth="yes"/>
      <point x="457" y="-10"/>
      <point x="527" y="37"/>
      <point x="563" y="79" type="curve"/>
      <point x="563" y="371" type="line"/>
      <point x="378" y="371" type="line"/>
      <point x="378" y="333" type="line"/>
      <point x="523" y="333" type="line"/>
      <point x="523" y="99" type="line"/>
      <point x="494" y="64"/>
      <point x="433" y="28"/>
      <point x="343" y="28" type="curve" smooth="yes"/>
      <point x="337" y="28" type="line" smooth="yes"/>
      <point x="183" y="28"/>
      <point x="105" y="125"/>
      <point x="105" y="370" type="curve" smooth="yes"/>
      <point x="105" y="410" type="line" smooth="yes"/>
      <point x="105" y="655"/>
      <point x="187" y="752"/>
      <point x="327" y="752" type="curve" smooth="yes"/>
      <point x="333" y="752" type="line" smooth="yes"/>
      <point x="463" y="752"/>
      <point x="521" y="680"/>
      <point x="521" y="500" type="curve"/>
      <point x="563" y="500" type="line"/>
      <point x="563" y="525" type="line" smooth="yes"/>
      <point x="563" y="695"/>
      <point x="488" y="790"/>
      <point x="328" y="790" type="curve" smooth="yes"/>
      <point x="158" y="790"/>
      <point x="63" y="680"/>
      <point x="63" y="410" type="curve" smooth="yes"/>
      <point x="63" y="370" type="line" smooth="yes"/>
      <point x="63" y="100"/>
      <point x="158" y="-10"/>
    </contour>
  </outline>
</glyph>
<glyph name="J" format="1">
  <advance width="480"/>
  <unicode hex="004A"/>
  <outline>
    <contour>
      <point x="365" y="780" type="line"/>
      <point x="365" y="250" type="line" smooth="yes"/>
      <point x="365" y="95"/>
      <point x="322" y="28"/>
      <point x="217" y="28" type="curve" smooth="yes"/>
      <point x="112" y="28"/>
      <point x="69" y="95"/>
      <point x="69" y="250" type="curve"/>
      <point x="31" y="250" type="line"/>
      <point x="31" y="240" type="line" smooth="yes"/>
      <point x="31" y="82"/>
      <point x="77" y="-10"/>
      <point x="217" y="-10" type="curve" smooth="yes"/>
      <point x="357" y="-10"/>
      <point x="405" y="85"/>
      <point x="405" y="240" type="curve" smooth="yes"/>
      <point x="405" y="780" type="line"/>
    </contour>
  </outline>
</glyph>
<glyph name="K" format="1">
  <advance width="540"/>
  <unicode hex="004B"/>
  <outline>
    <contour>
      <point x="120" y="780" type="line"/>
      <point x="80" y="780" type="line"/>
      <point x="80" y="0" type="line"/>
      <point x="120" y="0" type="line"/>
      <point x="120" y="245" type="line"/>
      <point x="237" y="410" type="line"/>
      <point x="453" y="0" type="line"/>
      <point x="500" y="0" type="line"/>
      <point x="262" y="446" type="line"/>
      <point x="500" y="780" type="line"/>
      <point x="451" y="780" type="line"/>
      <point x="120" y="307" type="line"/>
    </contour>
  </outline>
</glyph>
<glyph name="L" format="1">
  <advance width="480"/>
  <unicode hex="004C"/>
  <outline>
    <contour>
      <point x="465" y="0" type="line"/>
      <point x="465" y="38" type="line"/>
      <point x="120" y="38" type="line"/>
      <point x="120" y="780" type="line"/>
      <point x="80" y="780" type="line"/>
      <point x="80" y="0" type="line"/>
    </contour>
  </outline>
</glyph>
<glyph name="M" format="1">
  <advance width="780"/>
  <unicode hex="004D"/>
  <outline>
    <contour>
      <point x="663" y="710" type="line"/>
      <point x="660" y="530" type="line"/>
      <point x="660" y="0" type="line"/>
      <point x="700" y="0" type="line"/>
      <point x="700" y="780" type="line"/>
      <point x="648" y="780" type="line"/>
      <point x="390" y="68" type="line"/>
      <point x="132" y="780" type="line"/>
      <point x="80" y="780" type="line"/>
      <point x="80" y="0" type="line"/>
      <point x="120" y="0" type="line"/>
      <point x="120" y="530" type="line"/>
      <point x="117" y="710" type="line"/>
      <point x="375" y="0" type="line"/>
      <point x="405" y="0" type="line"/>
    </contour>
  </outline>
</glyph>
<glyph name="Q" format="1">
  <advance width="640"/>
  <unicode hex="0051"/>
  <outline>
    <contour>
      <point x="320" y="-10" type="curve" smooth="yes"/>
      <point x="341" y="-10"/>
      <point x="361" y="-8"/>
      <point x="380" y="-4" type="curve"/>
      <point x="415" y="-100" type="line"/>
      <point x="460" y="-100" type="line"/>
      <point x="419" y="6" type="line"/>
      <point x="524" y="46"/>
      <point x="577" y="159"/>
      <point x="577" y="370" type="curve" smooth="yes"/>
      <point x="577" y="410" type="line" smooth="yes"/>
      <point x="577" y="680"/>
      <point x="490" y="790"/>
      <point x="320" y="790" type="curve" smooth="yes"/>
      <point x="150" y="790"/>
      <point x="63" y="680"/>
      <point x="63" y="410" type="curve" smooth="yes"/>
      <point x="63" y="370" type="line" smooth="yes"/>
      <point x="63" y="100"/>
      <point x="150" y="-10"/>
    </contour>
    <contour>
      <point x="340" y="213" type="line"/>
      <point x="300" y="213" type="line"/>
      <point x="366" y="31" type="line"/>
      <point x="353" y="29"/>
      <point x="338" y="28"/>
      <point x="323" y="28" type="curve" smooth="yes"/>
      <point x="317" y="28" type="line" smooth="yes"/>
      <point x="175" y="28"/>
      <point x="105" y="125"/>
      <point x="105" y="370" type="curve" smooth="yes"/>
      <point x="105" y="410" type="line" smooth="yes"/>
      <point x="105" y="655"/>
      <point x="175" y="752"/>
      <point x="317" y="752" type="curve" smooth="yes"/>
      <point x="323" y="752" type="line" smooth="yes"/>
      <point x="465" y="752"/>
      <point x="535" y="655"/>
      <point x="535" y="410" type="curve" smooth="yes"/>
      <point x="535" y="370" type="line" smooth="yes"/>
      <point x="535" y="178"/>
      <point x="492" y="77"/>
      <point x="405" y="42" type="curve"/>
    </contour>
  </outline>
</glyph>
<glyph name="R" format="1">
  <advance width="570"/>
  <unicode hex="0052"/>
  <outline>
    <contour>
      <point x="120" y="330" type="line"/>
      <point x="282" y="330" type="line" smooth="yes"/>
      <point x="299" y="330"/>
      <point x="316" y="331"/>
      <point x="333" y="334" type="curve"/>
      <point x="465" y="0" type="line"/>
      <point x="510" y="0" type="line"/>
      <point x="371" y="342" type="line"/>
      <point x="446" y="365"/>
      <point x="510" y="422"/>
      <point x="510" y="545" type="curve" smooth="yes"/>
      <point x="510" y="565" type="line" smooth="yes"/>
      <point x="510" y="735"/>
      <point x="388" y="780"/>
      <point x="282" y="780" type="curve" smooth="yes"/>
      <point x="80" y="780" type="line"/>
      <point x="80" y="0" type="line"/>
      <point x="120" y="0" type="line"/>
    </contour>
    <contour>
      <point x="120" y="368" type="line"/>
      <point x="120" y="742" type="line"/>
      <point x="282" y="742" type="line" smooth="yes"/>
      <point x="358" y="742"/>
      <point x="468" y="714"/>
      <point x="468" y="563" type="curve" smooth="yes"/>
      <point x="468" y="547" type="line" smooth="yes"/>
      <point x="468" y="396"/>
      <point x="358" y="368"/>
      <point x="282" y="368" type="curve" smooth="yes"/>
    </contour>
  </outline>
</glyph>
<glyph name="U" format="1">
  <advance width="630"/>
  <unicode hex="0055"/>
  <outline>
    <contour>
      <point x="315" y="-10" type="curve" smooth="yes"/>
      <point x="465" y="-10"/>
      <point x="555" y="46"/>
      <point x="555" y="240" type="curve" smooth="yes"/>
      <point x="555" y="780" type="line"/>
      <point x="515" y="780" type="line"/>
      <point x="515" y="245" type="line" smooth="yes"/>
      <point x="515" y="74"/>
      <point x="445" y="28"/>
      <point x="315" y="28" type="curve" smooth="yes"/>
      <point x="185" y="28"/>
      <point x="115" y="74"/>
      <point x="115" y="245" type="curve" smooth="yes"/>
      <point x="115" y="780" type="line"/>
      <point x="75" y="780" type="line"/>
      <point x="75" y="240" type="line" smooth="yes"/>
      <point x="75" y="46"/>
      <point x="165" y="-10"/>
    </contour>
  </outline>
</glyph>
<glyph name="V" format="1">
  <advance width="600"/>
  <unicode hex="0056"/>
  <outline>
    <contour>
      <point x="330" y="-10" type="line"/>
      <point x="566" y="780" type="line"/>
      <point x="522" y="780" type="line"/>
      <point x="300" y="30" type="line"/>
      <point x="78" y="780" type="line"/>
      <point x="34" y="780" type="line"/>
      <point x="270" y="-10" type="line"/>
    </contour>
  </outline>
</glyph>
<glyph name="W" format="1">
  <advance width="880"/>
  <unicode hex="0057"/>
  <outline>
    <contour>
      <point x="620" y="-10" type="line"/>
      <point x="680" y="-10" type="line"/>
      <point x="831" y="780" type="line"/>
      <point x="788" y="780" type="line"/>
      <point x="650" y="32" type="line"/>
      <point x="470" y="780" type="line"/>
      <point x="410" y="780" type="line"/>
      <point x="230" y="32" type="line"/>
      <point x="92" y="780" type="line"/>
      <point x="49" y="780" type="line"/>
      <point x="200" y="-10" type="line"/>
      <point x="260" y="-10" type="line"/>
      <point x="440" y="740" type="line"/>
    </contour>
  </outline>
</glyph>
<glyph name="X" format="1">
  <advance width="600"/>
  <unicode hex="0058"/>
  <outline>
    <contour>
      <point x="35" y="0" type="line"/>
      <point x="83" y="0" type="line"/>
      <point x="300" y="355" type="line"/>
      <point x="517" y="0" type="line"/>
      <point x="565" y="0" type="line"/>
      <point x="323" y="393" type="line"/>
      <point x="565" y="780" type="line"/>
      <point x="517" y="780" type="line"/>
      <point x="300" y="427" type="line"/>
      <point x="83" y="780" type="line"/>
      <point x="35" y="780" type="line"/>
      <point x="277" y="393" type="line"/>
    </contour>
  </outline>
</glyph>
<glyph name="Y" format="1">
  <advance width="560"/>
  <unicode hex="0059"/>
  <outline>
    <contour>
      <point x="300" y="235" type="line"/>
      <point x="535" y="780" type="line"/>
      <point x="492" y="780" type="line"/>
      <point x="280" y="285" type="line"/>
      <point x="68" y="780" type="line"/>
      <point x="25" y="780" type="line"/>
      <point x="260" y="235" type="line"/>
      <point x="260" y="0" type="line"/>
      <point x="300" y="0" type="line"/>
    </contour>
  </outline>
</glyph>
<glyph name="Z" format="1">
  <advance width="550"/>
  <unicode hex="005A"/>
  <outline>
    <contour>
      <point x="40" y="28" type="line"/>
      <point x="40" y="0" type="line"/>
      <point x="510" y="0" type="line"/>
      <point x="510" y="38" type="line"/>
      <point x="210" y="38" type="line"/>
      <point x="90" y="36" type="line"/>
      <point x="500" y="752" type="line"/>
      <point x="500" y="780" type="line"/>
      <point x="50" y="780" type="line"/>
      <point x="50" y="742" type="line"/>
      <point x="330" y="742" type="line"/>
      <point x="450" y="744" type="line"/>
    </contour>
  </outline>
</glyph>
<glyph name="bracketleft" format="1">
  <advance width="300"/>
  <unicode hex="005B"/>
  <outline>
    <contour>
      <point x="70" y="840" type="line"/>
      <point x="70" y="-120" type="line"/>
      <point x="255" y="-120" type="line"/>
      <point x="255" y="-80" type="line"/>
      <point x="110" y="-80" type="line"/>
      <point x="110" y="800" type="line"/>
      <point x="255" y="800" type="line"/>
      <point x="255" y="840" type="line"/>
    </contour>
  </outline>
</glyph>
<glyph name="bracketright" format="1">
  <advance width="300"/>
  <unicode hex="005D"/>
  <outline>
    <contour>
      <point x="230" y="-120" type="line"/>
      <point x="230" y="840" type="line"/>
      <point x="45" y="840" type="line"/>
      <point x="45" y="800" type="line"/>
      <point x="190" y="800" type="line"/>
      <point x="190" y="-80" type="line"/>
      <point x="45" y="-80" type="line"/>
      <point x="45" y="-120" type="line"/>
    </contour>
  </outline>
</glyph>
<glyph name="asciicircum" format="1">
  <advance width="600"/>
  <unicode hex="005E"/>
  <outline>
    <contour>
      <point x="320" y="780" type="line"/>
      <point x="280" y="780" type="line"/>
      <point x="34" y="280" type="line"/>
      <point x="76" y="280" type="line"/>
      <point x="300" y="739" type="line"/>
      <point x="524" y="280" type="line"/>
      <point x="566" y="280" type="line"/>
    </contour>
  </outline>
</glyph>
<glyph name="underscore" format="1">
  <advance width="320"/>
  <unicode hex="005F"/>
  <outline>
    <contour>
      <point x="50" y="-118" type="line"/>
      <point x="270" y="-118" type="line"/>
      <point x="270" y="-80" type="line"/>
      <point x="50" y="-80" type="line"/>
    </contour>
  </outline>
</glyph>
<glyph name="grave" format="1">
  <advance width="500"/>
  <unicode hex="0060"/>
  <outline>
    <contour>
      <point x="139" y="780" type="line"/>
      <point x="229" y="620" type="line"/>
      <point x="271" y="620" type="line"/>
      <point x="181" y="780" type="line"/>
    </contour>
  </outline>
</glyph>
<glyph name="b" format="1">
  <advance width="525"/>
  <unicode hex="0062"/>
  <outline>
    <contour>
      <point x="110" y="800" type="line"/>
      <point x="70" y="800" type="line"/>
      <point x="70" y="150" type="line"/>
      <point x="65" y="0" type="line"/>
      <point x="95" y="0" type="line"/>
      <point x="104" y="75" type="line"/>
      <point x="131" y="30"/>
      <point x="180" y="-10"/>
      <point x="265" y="-10" type="curve" smooth="yes"/>
      <point x="410" y="-10"/>
      <point x="470" y="110"/>
      <point x="470" y="255" type="curve" smooth="yes"/>
      <point x="470" y="275" type="line" smooth="yes"/>
      <point x="470" y="420"/>
      <point x="410" y="540"/>
      <point x="265" y="540" type="curve" smooth="yes"/>
      <point x="186" y="540"/>
      <point x="137" y="505"/>
      <point x="110" y="464" type="curve"/>
    </contour>
    <contour>
      <point x="110" y="120" type="curve"/>
      <point x="110" y="410" type="line"/>
      <point x="135" y="450"/>
      <point x="179" y="502"/>
      <point x="260" y="502" type="curve" smooth="yes"/>
      <point x="373" y="502"/>
      <point x="428" y="413"/>
      <point x="428" y="275" type="curve" smooth="yes"/>
      <point x="428" y="255" type="line" smooth="yes"/>
      <point x="428" y="117"/>
      <point x="373" y="28"/>
      <point x="260" y="28" type="curve" smooth="yes"/>
      <point x="179" y="28"/>
      <point x="135" y="80"/>
    </contour>
  </outline>
</glyph>
<glyph name="e" format="1">
  <advance width="540"/>
  <unicode hex="0065"/>
  <outline>
    <contour>
      <point x="485" y="246" type="line"/>
      <point x="485" y="275" type="line" smooth="yes"/>
      <point x="485" y="420"/>
      <point x="421" y="540"/>
      <point x="270" y="540" type="curve" smooth="yes"/>
      <point x="119" y="540"/>
      <point x="55" y="420"/>
      <point x="55" y="275" type="curve" smooth="yes"/>
      <point x="55" y="255" type="line" smooth="yes"/>
      <point x="55" y="110"/>
      <point x="120" y="-10"/>
      <point x="275" y="-10" type="curve" smooth="yes"/>
      <point x="423" y="-10"/>
      <point x="485" y="90"/>
      <point x="485" y="166" type="curve" smooth="yes"/>
      <point x="485" y="170" type="line"/>
      <point x="445" y="170" type="line"/>
      <point x="445" y="105"/>
      <point x="398" y="28"/>
      <point x="275" y="28" type="curve" smooth="yes"/>
      <point x="152" y="28"/>
      <point x="99" y="116"/>
      <point x="97" y="246" type="curve"/>
    </contour>
    <contour>
      <point x="270" y="502" type="curve" smooth="yes"/>
      <point x="386" y="502"/>
      <point x="440" y="414"/>
      <point x="443" y="284" type="curve"/>
      <point x="97" y="284" type="line"/>
      <point x="99" y="414"/>
      <point x="153" y="502"/>
    </contour>
  </outline>
</glyph>
<glyph name="f" format="1">
  <advance width="370"/>
  <unicode hex="0066"/>
  <outline>
    <contour>
      <point x="160" y="660" type="line" smooth="yes"/>
      <point x="160" y="750"/>
      <point x="197" y="772"/>
      <point x="270" y="772" type="curve" smooth="yes"/>
      <point x="294" y="772"/>
      <point x="321" y="767"/>
      <point x="330" y="763" type="curve"/>
      <point x="330" y="800" type="line"/>
      <point x="323" y="803"/>
      <point x="300" y="810"/>
      <point x="260" y="810" type="curve" smooth="yes"/>
      <point x="180" y="810"/>
      <point x="120" y="770"/>
      <point x="120" y="665" type="curve" smooth="yes"/>
      <point x="120" y="530" type="line"/>
      <point x="35" y="530" type="line"/>
      <point x="35" y="492" type="line"/>
      <point x="120" y="492" type="line"/>
      <point x="120" y="0" type="line"/>
      <point x="160" y="0" type="line"/>
      <point x="160" y="492" type="line"/>
      <point x="320" y="492" type="line"/>
      <point x="320" y="530" type="line"/>
      <point x="160" y="530" type="line"/>
    </contour>
  </outline>
</glyph>
<glyph name="g" format="1">
  <advance width="525"/>
  <unicode hex="0067"/>
  <outline>
    <contour>
      <point x="415" y="-5" type="line" smooth="yes"/>
      <point x="415" y="-110"/>
      <point x="375" y="-172"/>
      <point x="260" y="-172" type="curve" smooth="yes"/>
      <point x="149" y="-172"/>
      <point x="105" y="-117"/>
      <point x="105" y="0" type="curve"/>
      <point x="65" y="0" type="line"/>
      <point x="65" y="-10" type="line" smooth="yes"/>
      <point x="65" y="-120"/>
      <point x="115" y="-210"/>
      <point x="260" y="-210" type="curve" smooth="yes"/>
      <point x="405" y="-210"/>
      <point x="455" y="-120"/>
      <point x="455" y="-10" type="curve" smooth="yes"/>
      <point x="455" y="380" type="line"/>
      <point x="460" y="530" type="line"/>
      <point x="430" y="530" type="line"/>
      <point x="420" y="455" type="line"/>
      <point x="394" y="500"/>
      <point x="344" y="540"/>
      <point x="260" y="540" type="curve" smooth="yes"/>
      <point x="115" y="540"/>
      <point x="55" y="425"/>
      <point x="55" y="295" type="curve" smooth="yes"/>
      <point x="55" y="275" type="line" smooth="yes"/>
      <point x="55" y="145"/>
      <point x="115" y="30"/>
      <point x="260" y="30" type="curve" smooth="yes"/>
      <point x="338" y="30"/>
      <point x="387" y="64"/>
      <point x="415" y="105" type="curve"/>
    </contour>
    <contour>
      <point x="415" y="410" type="curve"/>
      <point x="415" y="160" type="line"/>
      <point x="390" y="120"/>
      <point x="346" y="68"/>
      <point x="265" y="68" type="curve" smooth="yes"/>
      <point x="152" y="68"/>
      <point x="97" y="152"/>
      <point x="97" y="275" type="curve" smooth="yes"/>
      <point x="97" y="295" type="line" smooth="yes"/>
      <point x="97" y="418"/>
      <point x="152" y="502"/>
      <point x="265" y="502" type="curve" smooth="yes"/>
      <point x="346" y="502"/>
      <point x="390" y="450"/>
    </contour>
  </outline>
</glyph>
<glyph name="i" format="1">
  <advance width="200"/>
  <unicode hex="0069"/>
  <outline>
    <contour>
      <point x="80" y="0" type="line"/>
      <point x="120" y="0" type="line"/>
      <point x="120" y="530" type="line"/>
      <point x="80" y="530" type="line"/>
    </contour>
    <contour>
      <point x="130" y="735" type="line"/>
      <point x="70" y="735" type="line"/>
      <point x="70" y="675" type="line"/>
      <point x="130" y="675" type="line"/>
    </contour>
  </outline>
</glyph>
<glyph name="j" format="1">
  <advance width="200"/>
  <unicode hex="006A"/>
  <outline>
    <contour>
      <point x="80" y="-60" type="line" smooth="yes"/>
      <point x="80" y="-150"/>
      <point x="43" y="-172"/>
      <point x="-30" y="-172" type="curve" smooth="yes"/>
      <point x="-54" y="-172"/>
      <point x="-81" y="-167"/>
      <point x="-90" y="-163" type="curve"/>
      <point x="-90" y="-200" type="line"/>
      <point x="-83" y="-203"/>
      <point x="-60" y="-210"/>
      <point x="-20" y="-210" type="curve" smooth="yes"/>
      <point x="60" y="-210"/>
      <point x="120" y="-170"/>
      <point x="120" y="-65" type="curve" smooth="yes"/>
      <point x="120" y="530" type="line"/>
      <point x="80" y="530" type="line"/>
    </contour>
    <contour>
      <point x="130" y="735" type="line"/>
      <point x="70" y="735" type="line"/>
      <point x="70" y="675" type="line"/>
      <point x="130" y="675" type="line"/>
    </contour>
  </outline>
</glyph>
<glyph name="k" format="1">
  <advance width="480"/>
  <unicode hex="006B"/>
  <outline>
    <contour>
      <point x="70" y="0" type="line"/>
      <point x="110" y="0" type="line"/>
      <point x="110" y="162" type="line"/>
      <point x="237" y="300" type="line"/>
      <point x="405" y="0" type="line"/>
      <point x="450" y="0" type="line"/>
      <point x="265" y="330" type="line"/>
      <point x="450" y="530" type="line"/>
      <point x="398" y="530" type="line"/>
      <point x="110" y="217" type="line"/>
      <point x="110" y="800" type="line"/>
      <point x="70" y="800" type="line"/>
    </contour>
  </outline>
</glyph>
<glyph name="l" format="1">
  <advance width="200"/>
  <unicode hex="006C"/>
  <outline>
    <contour>
      <point x="80" y="0" type="line"/>
      <point x="120" y="0" type="line"/>
      <point x="120" y="800" type="line"/>
      <point x="80" y="800" type="line"/>
    </contour>
  </outline>
</glyph>
<glyph name="o" format="1">
  <advance width="540"/>
  <unicode hex="006F"/>
  <outline>
    <contour>
      <point x="270" y="-10" type="curve" smooth="yes"/>
      <point x="421" y="-10"/>
      <point x="485" y="110"/>
      <point x="485" y="255" type="curve" smooth="yes"/>
      <point x="485" y="275" type="line" smooth="yes"/>
      <point x="485" y="420"/>
      <point x="421" y="540"/>
      <point x="270" y="540" type="curve" smooth="yes"/>
      <point x="119" y="540"/>
      <point x="55" y="420"/>
      <point x="55" y="275" type="curve" smooth="yes"/>
      <point x="55" y="255" type="line" smooth="yes"/>
      <point x="55" y="110"/>
      <point x="119" y="-10"/>
    </contour>
    <contour>
      <point x="270" y="28" type="curve" smooth="yes"/>
      <point x="151" y="28"/>
      <point x="97" y="120"/>
      <point x="97" y="255" type="curve" smooth="yes"/>
      <point x="97" y="275" type="line" smooth="yes"/>
      <point x="97" y="410"/>
      <point x="151" y="502"/>
      <point x="270" y="502" type="curve" smooth="yes"/>
      <point x="389" y="502"/>
      <point x="443" y="410"/>
      <point x="443" y="275" type="curve" smooth="yes"/>
      <point x="443" y="255" type="line" smooth="yes"/>
      <point x="443" y="120"/>
      <point x="389" y="28"/>
    </contour>
  </outline>
</glyph>
<glyph name="p" format="1">
  <advance width="525"/>
  <unicode hex="0070"/>
  <outline>
    <contour>
      <point x="265" y="-10" type="curve" smooth="yes"/>
      <point x="410" y="-10"/>
      <point x="470" y="110"/>
      <point x="470" y="255" type="curve" smooth="yes"/>
      <point x="470" y="275" type="line" smooth="yes"/>
      <point x="470" y="420"/>
      <point x="410" y="540"/>
      <point x="265" y="540" type="curve" smooth="yes"/>
      <point x="180" y="540"/>
      <point x="131" y="500"/>
      <point x="104" y="455" type="curve"/>
      <point x="95" y="530" type="line"/>
      <point x="65" y="530" type="line"/>
      <point x="70" y="380" type="line"/>
      <point x="70" y="-200" type="line"/>
      <point x="110" y="-200" type="line"/>
      <point x="110" y="65" type="line"/>
      <point x="137" y="24"/>
      <point x="186" y="-10"/>
    </contour>
    <contour>
      <point x="110" y="410" type="line"/>
      <point x="135" y="450"/>
      <point x="179" y="502"/>
      <point x="260" y="502" type="curve" smooth="yes"/>
      <point x="373" y="502"/>
      <point x="428" y="413"/>
      <point x="428" y="275" type="curve" smooth="yes"/>
      <point x="428" y="255" type="line" smooth="yes"/>
      <point x="428" y="117"/>
      <point x="373" y="28"/>
      <point x="260" y="28" type="curve" smooth="yes"/>
      <point x="179" y="28"/>
      <point x="135" y="80"/>
      <point x="110" y="120" type="curve"/>
    </contour>
  </outline>
</glyph>
<glyph name="q" format="1">
  <advance width="525"/>
  <unicode hex="0071"/>
  <outline>
    <contour>
      <point x="415" y="-200" type="line"/>
      <point x="455" y="-200" type="line"/>
      <point x="455" y="380" type="line"/>
      <point x="460" y="530" type="line"/>
      <point x="430" y="530" type="line"/>
      <point x="420" y="455" type="line"/>
      <point x="394" y="500"/>
      <point x="344" y="540"/>
      <point x="260" y="540" type="curve" smooth="yes"/>
      <point x="115" y="540"/>
      <point x="55" y="420"/>
      <point x="55" y="275" type="curve" smooth="yes"/>
      <point x="55" y="255" type="line" smooth="yes"/>
      <point x="55" y="110"/>
      <point x="115" y="-10"/>
      <point x="260" y="-10" type="curve" smooth="yes"/>
      <point x="338" y="-10"/>
      <point x="387" y="24"/>
      <point x="415" y="65" type="curve"/>
    </contour>
    <contour>
      <point x="415" y="410" type="curve"/>
      <point x="415" y="120" type="line"/>
      <point x="390" y="80"/>
      <point x="346" y="28"/>
      <point x="265" y="28" type="curve" smooth="yes"/>
      <point x="152" y="28"/>
      <point x="97" y="117"/>
      <point x="97" y="255" type="curve" smooth="yes"/>
      <point x="97" y="275" type="line" smooth="yes"/>
      <point x="97" y="413"/>
      <point x="152" y="502"/>
      <point x="265" y="502" type="curve" smooth="yes"/>
      <point x="346" y="502"/>
      <point x="390" y="450"/>
    </contour>
  </outline>
</glyph>
<glyph name="t" format="1">
  <advance width="390"/>
  <unicode hex="0074"/>
  <outline>
    <contour>
      <point x="160" y="530" type="line"/>
      <point x="160" y="680" type="line"/>
      <point x="120" y="680" type="line"/>
      <point x="120" y="530" type="line"/>
      <point x="35" y="530" type="line"/>
      <point x="35" y="492" type="line"/>
      <point x="120" y="492" type="line"/>
      <point x="120" y="135" type="line" smooth="yes"/>
      <point x="120" y="30"/>
      <point x="180" y="-10"/>
      <point x="260" y="-10" type="curve" smooth="yes"/>
      <point x="300" y="-10"/>
      <point x="323" y="-3"/>
      <point x="330" y="0" type="curve"/>
      <point x="330" y="37" type="line"/>
      <point x="321" y="33"/>
      <point x="294" y="28"/>
      <point x="270" y="28" type="curve" smooth="yes"/>
      <point x="197" y="28"/>
      <point x="160" y="50"/>
      <point x="160" y="140" type="curve" smooth="yes"/>
      <point x="160" y="492" type="line"/>
      <point x="340" y="492" type="line"/>
      <point x="340" y="530" type="line"/>
    </contour>
  </outline>
</glyph>
<glyph name="u" format="1">
  <advance width="510"/>
  <unicode hex="0075"/>
  <outline>
    <contour>
      <point x="65" y="530" type="line"/>
      <point x="65" y="155" type="line" smooth="yes"/>
      <point x="65" y="55"/>
      <point x="125" y="-10"/>
      <point x="225" y="-10" type="curve" smooth="yes"/>
      <point x="319" y="-10"/>
      <point x="376" y="31"/>
      <point x="405" y="77" type="curve"/>
      <point x="415" y="0" type="line"/>
      <point x="445" y="0" type="line"/>
      <point x="440" y="150" type="line"/>
      <point x="440" y="530" type="line"/>
      <point x="400" y="530" type="line"/>
      <point x="400" y="120" type="line"/>
      <point x="375" y="80"/>
      <point x="330" y="28"/>
      <point x="235" y="28" type="curve" smooth="yes"/>
      <point x="160" y="28"/>
      <point x="105" y="65"/>
      <point x="105" y="160" type="curve" smooth="yes"/>
      <point x="105" y="530" type="line"/>
    </contour>
  </outline>
</glyph>
<glyph name="v" format="1">
  <advance width="500"/>
  <unicode hex="0076"/>
  <outline>
    <contour>
      <point x="226" y="0" type="line"/>
      <point x="274" y="0" type="line"/>
      <point x="470" y="530" type="line"/>
      <point x="425" y="530" type="line"/>
      <point x="250" y="45" type="line"/>
      <point x="75" y="530" type="line"/>
      <point x="30" y="530" type="line"/>
    </contour>
  </outline>
</glyph>
<glyph name="w" format="1">
  <advance width="700"/>
  <unicode hex="0077"/>
  <outline>
    <contour>
      <point x="350" y="481" type="line"/>
      <point x="487" y="0" type="line"/>
      <point x="543" y="0" type="line"/>
      <point x="665" y="530" type="line"/>
      <point x="624" y="530" type="line"/>
      <point x="514" y="40" type="line"/>
      <point x="375" y="530" type="line"/>
      <point x="325" y="530" type="line"/>
      <point x="186" y="40" type="line"/>
      <point x="76" y="530" type="line"/>
      <point x="35" y="530" type="line"/>
      <point x="157" y="0" type="line"/>
      <point x="213" y="0" type="line"/>
    </contour>
  </outline>
</glyph>
<glyph name="x" format="1">
  <advance width="460"/>
  <unicode hex="0078"/>
  <outline>
    <contour>
      <point x="25" y="530" type="line"/>
      <point x="205" y="265" type="line"/>
      <point x="25" y="0" type="line"/>
      <point x="76" y="0" type="line"/>
      <point x="230" y="226" type="line"/>
      <point x="384" y="0" type="line"/>
      <point x="435" y="0" type="line"/>
      <point x="255" y="265" type="line"/>
      <point x="435" y="530" type="line"/>
      <point x="386" y="530" type="line"/>
      <point x="230" y="300" type="line"/>
      <point x="74" y="530" type="line"/>
    </contour>
  </outline>
</glyph>
<glyph name="y" format="1">
  <advance width="462"/>
  <unicode hex="0079"/>
  <outline>
    <contour>
      <point x="240" y="65" type="line"/>
      <point x="71" y="530" type="line"/>
      <point x="29" y="530" type="line"/>
      <point x="220" y="18" type="line"/>
      <point x="138" y="-200" type="line"/>
      <point x="182" y="-200" type="line"/>
      <point x="260" y="18" type="line"/>
      <point x="451" y="530" type="line"/>
      <point x="409" y="530" type="line"/>
    </contour>
  </outline>
</glyph>
<glyph name="braceleft" format="1">
  <advance width="300"/>
  <unicode hex="007B"/>
  <outline>
    <contour>
      <point x="255" y="840" type="line"/>
      <point x="240" y="840" type="line" smooth="yes"/>
      <point x="185" y="840"/>
      <point x="115" y="815"/>
      <point x="115" y="715" type="curve" smooth="yes"/>
      <point x="115" y="470" type="line" smooth="yes"/>
      <point x="115" y="393"/>
      <point x="85" y="380"/>
      <point x="25" y="380" type="curve"/>
      <point x="25" y="340" type="line"/>
      <point x="85" y="340"/>
      <point x="115" y="327"/>
      <point x="115" y="250" type="curve" smooth="yes"/>
      <point x="115" y="5" type="line" smooth="yes"/>
      <point x="115" y="-95"/>
      <point x="185" y="-120"/>
      <point x="240" y="-120" type="curve" smooth="yes"/>
      <point x="255" y="-120" type="line"/>
      <point x="255" y="-80" type="line"/>
      <point x="193" y="-80"/>
      <point x="155" y="-60"/>
      <point x="155" y="30" type="curve" smooth="yes"/>
      <point x="155" y="262" type="line" smooth="yes"/>
      <point x="155" y="316"/>
      <point x="132" y="345"/>
      <point x="102" y="360" type="curve"/>
      <point x="132" y="374"/>
      <point x="155" y="403"/>
      <point x="155" y="458" type="curve" smooth="yes"/>
      <point x="155" y="690" type="line" smooth="yes"/>
      <point x="155" y="780"/>
      <point x="193" y="800"/>
      <point x="255" y="800" type="curve"/>
    </contour>
  </outline>
</glyph>
<glyph name="bar" format="1">
  <advance width="180"/>
  <unicode hex="007C"/>
  <outline>
    <contour>
      <point x="70" y="-120" type="line"/>
      <point x="110" y="-120" type="line"/>
      <point x="110" y="840" type="line"/>
      <point x="70" y="840" type="line"/>
    </contour>
  </outline>
</glyph>
<glyph name="braceright" format="1">
  <advance width="300"/>
  <unicode hex="007D"/>
  <outline>
    <contour>
      <point x="45" y="-120" type="line"/>
      <point x="60" y="-120" type="line" smooth="yes"/>
      <point x="115" y="-120"/>
      <point x="185" y="-95"/>
      <point x="185" y="5" type="curve" smooth="yes"/>
      <point x="185" y="250" type="line" smooth="yes"/>
      <point x="185" y="327"/>
      <point x="215" y="340"/>
      <point x="275" y="340" type="curve"/>
      <point x="275" y="380" type="line"/>
      <point x="215" y="380"/>
      <point x="185" y="393"/>
      <point x="185" y="470" type="curve" smooth="yes"/>
      <point x="185" y="715" type="line" smooth="yes"/>
      <point x="185" y="815"/>
      <point x="115" y="840"/>
      <point x="60" y="840" type="curve" smooth="yes"/>
      <point x="45" y="840" type="line"/>
      <point x="45" y="800" type="line"/>
      <point x="107" y="800"/>
      <point x="145" y="780"/>
      <point x="145" y="690" type="curve" smooth="yes"/>
      <point x="145" y="458" type="line" smooth="yes"/>
      <point x="145" y="403"/>
      <point x="167" y="374"/>
      <point x="198" y="360" type="curve"/>
      <point x="167" y="345"/>
      <point x="145" y="316"/>
      <point x="145" y="262" type="curve" smooth="yes"/>
      <point x="145" y="30" type="line" smooth="yes"/>
      <point x="145" y="-60"/>
      <point x="107" y="-80"/>
      <point x="45" y="-80" type="curve"/>
    </contour>
  </outline>
</glyph>
<glyph name="asciitilde" format="1">
  <advance width="600"/>
  <unicode hex="007E"/>
  <outline>
    <contour>
      <point x="174" y="440" type="curve" smooth="yes"/>
      <point x="104" y="440"/>
      <point x="61" y="397"/>
      <point x="40" y="371" type="curve"/>
      <point x="68" y="343" type="line"/>
      <point x="87" y="367"/>
      <point x="125" y="402"/>
      <point x="170" y="402" type="curve" smooth="yes"/>
      <point x="265" y="402"/>
      <point x="318" y="329"/>
      <point x="426" y="329" type="curve" smooth="yes"/>
      <point x="496" y="329"/>
      <point x="539" y="372"/>
      <point x="560" y="398" type="curve"/>
      <point x="532" y="426" type="line"/>
      <point x="513" y="402"/>
      <point x="475" y="367"/>
      <point x="430" y="367" type="curve" smooth="yes"/>
      <point x="335" y="367"/>
      <point x="282" y="440"/>
    </contour>
  </outline>
</glyph>
<glyph name="exclamdown" format="1">
  <advance width="200"/>
  <unicode hex="00A1"/>
  <outline>
    <contour>
      <point x="123" y="-200" type="line"/>
      <point x="112" y="355" type="line"/>
      <point x="88" y="355" type="line"/>
      <point x="77" y="-200" type="line"/>
    </contour>
    <contour>
      <point x="70" y="470" type="line"/>
      <point x="130" y="470" type="line"/>
      <point x="130" y="530" type="line"/>
      <point x="70" y="530" type="line"/>
    </contour>
  </outline>
</glyph>
<glyph name="cent" format="1">
  <advance width="600"/>
  <unicode hex="00A2"/>
  <outline>
    <contour>
      <point x="423" y="840" type="line"/>
      <point x="383" y="840" type="line"/>
      <point x="355" y="723" type="line"/>
      <point x="343" y="725"/>
      <point x="329" y="726"/>
      <point x="315" y="726" type="curve" smooth="yes"/>
      <point x="154" y="726"/>
      <point x="70" y="611"/>
      <point x="70" y="403" type="curve" smooth="yes"/>
      <point x="70" y="378" type="line" smooth="yes"/>
      <point x="70" y="227"/>
      <point x="115" y="124"/>
      <point x="201" y="80" type="curve"/>
      <point x="168" y="-60" type="line"/>
      <point x="208" y="-60" type="line"/>
      <point x="238" y="66" type="line"/>
      <point x="261" y="59"/>
      <point x="287" y="56"/>
      <point x="315" y="56" type="curve" smooth="yes"/>
      <point x="467" y="56"/>
      <point x="530" y="150"/>
      <point x="530" y="266" type="curve" smooth="yes"/>
      <point x="530" y="278" type="line"/>
      <point x="489" y="278" type="line"/>
      <point x="489" y="170"/>
      <point x="441" y="96"/>
      <point x="317" y="96" type="curve" smooth="yes"/>
      <point x="314" y="96" type="line" smooth="yes"/>
      <point x="290" y="96"/>
      <point x="267" y="99"/>
      <point x="247" y="105" type="curve"/>
      <point x="384" y="677" type="line"/>
      <point x="457" y="654"/>
      <point x="489" y="588"/>
      <point x="489" y="481" type="curve"/>
      <point x="530" y="481" type="line"/>
      <point x="530" y="503" type="line" smooth="yes"/>
      <point x="530" y="602"/>
      <point x="489" y="686"/>
      <point x="393" y="715" type="curve"/>
    </contour>
    <contour>
      <point x="112" y="378" type="curve" smooth="yes"/>
      <point x="112" y="403" type="line" smooth="yes"/>
      <point x="112" y="593"/>
      <point x="185" y="686"/>
      <point x="314" y="686" type="curve" smooth="yes"/>
      <point x="317" y="686" type="line" smooth="yes"/>
      <point x="327" y="686"/>
      <point x="337" y="685"/>
      <point x="346" y="684" type="curve"/>
      <point x="211" y="122" type="line"/>
      <point x="146" y="161"/>
      <point x="112" y="246"/>
    </contour>
  </outline>
</glyph>
<glyph name="sterling" format="1">
  <advance width="600"/>
  <unicode hex="00A3"/>
  <outline>
    <contour>
      <point x="330" y="752" type="curve" smooth="yes"/>
      <point x="453" y="752"/>
      <point x="505" y="651"/>
      <point x="505" y="500" type="curve"/>
      <point x="545" y="500" type="line"/>
      <point x="545" y="510" type="line" smooth="yes"/>
      <point x="545" y="662"/>
      <point x="489" y="790"/>
      <point x="330" y="790" type="curve" smooth="yes"/>
      <point x="203" y="790"/>
      <point x="125" y="709"/>
      <point x="125" y="575" type="curve" smooth="yes"/>
      <point x="125" y="517"/>
      <point x="133" y="463"/>
      <point x="145" y="410" type="curve"/>
      <point x="60" y="410" type="line"/>
      <point x="60" y="370" type="line"/>
      <point x="155" y="370" type="line"/>
      <point x="183" y="263"/>
      <point x="221" y="159"/>
      <point x="229" y="40" type="curve"/>
      <point x="60" y="40" type="line"/>
      <point x="60" y="0" type="line"/>
      <point x="540" y="0" type="line"/>
      <point x="540" y="40" type="line"/>
      <point x="264" y="40" type="line"/>
      <point x="262" y="156"/>
      <point x="228" y="267"/>
      <point x="201" y="370" type="curve"/>
      <point x="400" y="370" type="line"/>
      <point x="400" y="410" type="line"/>
      <point x="191" y="410" type="line"/>
      <point x="177" y="466"/>
      <point x="167" y="520"/>
      <point x="167" y="570" type="curve" smooth="yes"/>
      <point x="167" y="680"/>
      <point x="218" y="752"/>
    </contour>
  </outline>
</glyph>
<glyph name="yen" format="1">
  <advance width="600"/>
  <unicode hex="00A5"/>
  <outline>
    <contour>
      <point x="45" y="440" type="line"/>
      <point x="187" y="440" type="line"/>
      <point x="265" y="280" type="line"/>
      <point x="45" y="280" type="line"/>
      <point x="45" y="240" type="line"/>
      <point x="280" y="240" type="line"/>
      <point x="280" y="0" type="line"/>
      <point x="320" y="0" type="line"/>
      <point x="320" y="240" type="line"/>
      <point x="555" y="240" type="line"/>
      <point x="555" y="280" type="line"/>
      <point x="334" y="280" type="line"/>
      <point x="413" y="440" type="line"/>
      <point x="555" y="440" type="line"/>
      <point x="555" y="480" type="line"/>
      <point x="432" y="480" type="line"/>
      <point x="580" y="780" type="line"/>
      <point x="535" y="780" type="line"/>
      <point x="300" y="299" type="line"/>
      <point x="65" y="780" type="line"/>
      <point x="20" y="780" type="line"/>
      <point x="167" y="480" type="line"/>
      <point x="45" y="480" type="line"/>
    </contour>
  </outline>
</glyph>
<glyph name="brokenbar" format="1">
  <advance width="180"/>
  <unicode hex="00A6"/>
  <outline>
    <contour>
      <point x="70" y="400" type="line"/>
      <point x="110" y="400" type="line"/>
      <point x="110" y="840" type="line"/>
      <point x="70" y="840" type="line"/>
    </contour>
    <contour>
      <point x="70" y="-120" type="line"/>
      <point x="110" y="-120" type="line"/>
      <point x="110" y="320" type="line"/>
      <point x="70" y="320" type="line"/>
    </contour>
  </outline>
</glyph>
<glyph name="section" format="1">
  <advance width="500"/>
  <unicode hex="00A7"/>
  <outline>
    <contour>
      <point x="455" y="388" type="curve" smooth="yes"/>
      <point x="455" y="392" type="line" smooth="yes"/>
      <point x="455" y="484"/>
      <point x="408" y="526"/>
      <point x="275" y="536" type="curve" smooth="yes"/>
      <point x="142" y="547"/>
      <point x="113" y="582"/>
      <point x="113" y="645" type="curve" smooth="yes"/>
      <point x="113" y="714"/>
      <point x="168" y="752"/>
      <point x="260" y="752" type="curve" smooth="yes"/>
      <point x="376" y="752"/>
      <point x="410" y="697"/>
      <point x="410" y="610" type="curve"/>
      <point x="450" y="610" type="line"/>
      <point x="450" y="614" type="line" smooth="yes"/>
      <point x="450" y="714"/>
      <point x="401" y="790"/>
      <point x="260" y="790" type="curve" smooth="yes"/>
      <point x="136" y="790"/>
      <point x="71" y="728"/>
      <point x="71" y="647" type="curve" smooth="yes"/>
      <point x="71" y="642" type="line" smooth="yes"/>
      <point x="71" y="590"/>
      <point x="88" y="548"/>
      <point x="149" y="523" type="curve"/>
      <point x="81" y="502"/>
      <point x="45" y="454"/>
      <point x="45" y="392" type="curve" smooth="yes"/>
      <point x="45" y="388" type="line" smooth="yes"/>
      <point x="45" y="296"/>
      <point x="92" y="254"/>
      <point x="225" y="244" type="curve" smooth="yes"/>
      <point x="358" y="233"/>
      <point x="387" y="198"/>
      <point x="387" y="135" type="curve" smooth="yes"/>
      <point x="387" y="66"/>
      <point x="332" y="28"/>
      <point x="240" y="28" type="curve" smooth="yes"/>
      <point x="124" y="28"/>
      <point x="90" y="83"/>
      <point x="90" y="170" type="curve"/>
      <point x="50" y="170" type="line"/>
      <point x="50" y="166" type="line" smooth="yes"/>
      <point x="50" y="66"/>
      <point x="99" y="-10"/>
      <point x="240" y="-10" type="curve" smooth="yes"/>
      <point x="364" y="-10"/>
      <point x="429" y="52"/>
      <point x="429" y="133" type="curve" smooth="yes"/>
      <point x="429" y="138" type="line" smooth="yes"/>
      <point x="429" y="189"/>
      <point x="411" y="232"/>
      <point x="350" y="256" type="curve"/>
      <point x="419" y="277"/>
      <point x="455" y="325"/>
    </contour>
    <contour>
      <point x="413" y="390" type="curve" smooth="yes"/>
      <point x="413" y="321"/>
      <point x="358" y="278"/>
      <point x="260" y="278" type="curve" smooth="yes"/>
      <point x="243" y="278" type="line"/>
      <point x="135" y="288"/>
      <point x="87" y="308"/>
      <point x="87" y="390" type="curve" smooth="yes"/>
      <point x="87" y="459"/>
      <point x="142" y="502"/>
      <point x="240" y="502" type="curve" smooth="yes"/>
      <point x="256" y="502" type="line"/>
      <point x="365" y="492"/>
      <point x="413" y="472"/>
    </contour>
  </outline>
</glyph>
<glyph name="dieresis" format="1">
  <advance width="500"/>
  <unicode hex="00A8"/>
  <outline>
    <contour>
      <point x="205" y="735" type="line"/>
      <point x="145" y="735" type="line"/>
      <point x="145" y="675" type="line"/>
      <point x="205" y="675" type="line"/>
    </contour>
    <contour>
      <point x="355" y="735" type="line"/>
      <point x="295" y="735" type="line"/>
      <point x="295" y="675" type="line"/>
      <point x="355" y="675" type="line"/>
    </contour>
  </outline>
</glyph>
<glyph name="copyright" format="1">
  <advance width="920"/>
  <unicode hex="00A9"/>
  <outline>
    <contour>
      <point x="60" y="390" type="curve" smooth="yes"/>
      <point x="60" y="169"/>
      <point x="239" y="-10"/>
      <point x="460" y="-10" type="curve" smooth="yes"/>
      <point x="681" y="-10"/>
      <point x="860" y="169"/>
      <point x="860" y="390" type="curve" smooth="yes"/>
      <point x="860" y="611"/>
      <point x="681" y="790"/>
      <point x="460" y="790" type="curve" smooth="yes"/>
      <point x="239" y="790"/>
      <point x="60" y="611"/>
    </contour>
    <contour>
      <point x="98" y="390" type="curve" smooth="yes"/>
      <point x="98" y="590"/>
      <point x="260" y="752"/>
      <point x="460" y="752" type="curve" smooth="yes"/>
      <point x="660" y="752"/>
      <point x="822" y="590"/>
      <point x="822" y="390" type="curve" smooth="yes"/>
      <point x="822" y="190"/>
      <point x="660" y="28"/>
      <point x="460" y="28" type="curve" smooth="yes"/>
      <point x="260" y="28"/>
      <point x="98" y="190"/>
    </contour>
    <contour>
      <point x="460" y="185" type="curve" smooth="yes"/>
      <point x="341" y="185"/>
      <point x="297" y="287"/>
      <point x="297" y="380" type="curve" smooth="yes"/>
      <point x="297" y="400" type="line" smooth="yes"/>
      <point x="297" y="493"/>
      <point x="341" y="595"/>
      <point x="460" y="595" type="curve" smooth="yes"/>
      <point x="572" y="595"/>
      <point x="605" y="525"/>
      <point x="605" y="465" type="curve"/>
      <point x="645" y="465" type="line"/>
      <point x="645" y="480" type="line" smooth="yes"/>
      <point x="645" y="530"/>
      <point x="604" y="635"/>
      <point x="460" y="635" type="curve" smooth="yes"/>
      <point x="309" y="635"/>
      <point x="255" y="503"/>
      <point x="255" y="400" type="curve" smooth="yes"/>
      <point x="255" y="380" type="line" smooth="yes"/>
      <point x="255" y="277"/>
      <point x="309" y="145"/>
      <point x="460" y="145" type="curve" smooth="yes"/>
      <point x="604" y="145"/>
      <point x="645" y="245"/>
      <point x="645" y="295" type="curve" smooth="yes"/>
      <point x="645" y="305" type="line"/>
      <point x="605" y="305" type="line"/>
      <point x="605" y="257"/>
      <point x="576" y="185"/>
    </contour>
  </outline>
</glyph>
<glyph name="ordfeminine" format="1">
  <advance width="377"/>
  <unicode hex="00AA"/>
  <outline>
    <contour>
      <point x="306" y="388" type="line"/>
      <point x="335" y="388" type="line"/>
      <point x="331" y="499" type="line"/>
      <point x="331" y="645" type="line" smooth="yes"/>
      <point x="331" y="730"/>
      <point x="299" y="790"/>
      <point x="194" y="790" type="curve" smooth="yes"/>
      <point x="81" y="790"/>
      <point x="57" y="716"/>
      <point x="57" y="659" type="curve" smooth="yes"/>
      <point x="57" y="652" type="line"/>
      <point x="94" y="652" type="line"/>
      <point x="94" y="709"/>
      <point x="112" y="756"/>
      <point x="194" y="756" type="curve" smooth="yes"/>
      <point x="270" y="756"/>
      <point x="293" y="717"/>
      <point x="293" y="645" type="curve" smooth="yes"/>
      <point x="293" y="631" type="line"/>
      <point x="169" y="612" type="line" smooth="yes"/>
      <point x="108" y="602"/>
      <point x="42" y="579"/>
      <point x="42" y="493" type="curve" smooth="yes"/>
      <point x="42" y="485" type="line" smooth="yes"/>
      <point x="42" y="422"/>
      <point x="86" y="380"/>
      <point x="155" y="380" type="curve" smooth="yes"/>
      <point x="227" y="380"/>
      <point x="272" y="411"/>
      <point x="298" y="445" type="curve"/>
    </contour>
    <contour>
      <point x="162" y="414" type="curve" smooth="yes"/>
      <point x="104" y="414"/>
      <point x="80" y="449"/>
      <point x="80" y="487" type="curve" smooth="yes"/>
      <point x="80" y="494" type="line" smooth="yes"/>
      <point x="80" y="543"/>
      <point x="115" y="570"/>
      <point x="169" y="580" type="curve" smooth="yes"/>
      <point x="293" y="600" type="line"/>
      <point x="293" y="483" type="line"/>
      <point x="278" y="459"/>
      <point x="242" y="414"/>
    </contour>
    <contour>
      <point x="50" y="223" type="line"/>
      <point x="335" y="223" type="line"/>
      <point x="335" y="258" type="line"/>
      <point x="50" y="258" type="line"/>
    </contour>
  </outline>
</glyph>
<glyph name="guillemotleft" format="1">
  <advance width="500"/>
  <unicode hex="00AB"/>
  <outline>
    <contour>
      <point x="250" y="510" type="line"/>
      <point x="50" y="355" type="line"/>
      <point x="50" y="325" type="line"/>
      <point x="250" y="170" type="line"/>
      <point x="250" y="215" type="line"/>
      <point x="87" y="340" type="line"/>
      <point x="250" y="465" type="line"/>
    </contour>
    <contour>
      <point x="450" y="510" type="line"/>
      <point x="250" y="355" type="line"/>
      <point x="250" y="325" type="line"/>
      <point x="450" y="170" type="line"/>
      <point x="450" y="215" type="line"/>
      <point x="287" y="340" type="line"/>
      <point x="450" y="465" type="line"/>
    </contour>
  </outline>
</glyph>
<glyph name="logicalnot" format="1">
  <advance width="600"/>
  <unicode hex="00AC"/>
  <outline>
    <contour>
      <point x="50" y="510" type="line"/>
      <point x="510" y="510" type="line"/>
      <point x="510" y="220" type="line"/>
      <point x="550" y="220" type="line"/>
      <point x="550" y="550" type="line"/>
      <point x="50" y="550" type="line"/>
    </contour>
  </outline>
</glyph>
<glyph name="uni00AD" format="1">
  <advance width="320"/>
  <unicode hex="00AD"/>
  <outline>
    <contour>
      <point x="40" y="331" type="line"/>
      <point x="280" y="331" type="line"/>
      <point x="280" y="369" type="line"/>
      <point x="40" y="369" type="line"/>
    </contour>
  </outline>
</glyph>
<glyph name="macron" format="1">
  <advance width="500"/>
  <unicode hex="00AF"/>
  <outline>
    <contour>
      <point x="145" y="680" type="line"/>
      <point x="355" y="680" type="line"/>
      <point x="355" y="720" type="line"/>
      <point x="145" y="720" type="line"/>
    </contour>
  </outline>
</glyph>
<glyph name="degree" format="1">
  <advance width="400"/>
  <unicode hex="00B0"/>
  <outline>
    <contour>
      <point x="312" y="636" type="line" smooth="yes"/>
      <point x="312" y="569"/>
      <point x="263" y="528"/>
      <point x="203" y="528" type="curve" smooth="yes"/>
      <point x="197" y="528" type="line" smooth="yes"/>
      <point x="137" y="528"/>
      <point x="88" y="569"/>
      <point x="88" y="636" type="curve" smooth="yes"/>
      <point x="88" y="644" type="line" smooth="yes"/>
      <point x="88" y="711"/>
      <point x="137" y="752"/>
      <point x="197" y="752" type="curve" smooth="yes"/>
      <point x="203" y="752" type="line" smooth="yes"/>
      <point x="263" y="752"/>
      <point x="312" y="711"/>
      <point x="312" y="644" type="curve" smooth="yes"/>
    </contour>
    <contour>
      <point x="350" y="642" type="line" smooth="yes"/>
      <point x="350" y="734"/>
      <point x="285" y="790"/>
      <point x="200" y="790" type="curve" smooth="yes"/>
      <point x="115" y="790"/>
      <point x="50" y="734"/>
      <point x="50" y="642" type="curve" smooth="yes"/>
      <point x="50" y="638" type="line" smooth="yes"/>
      <point x="50" y="546"/>
      <point x="115" y="490"/>
      <point x="200" y="490" type="curve" smooth="yes"/>
      <point x="285" y="490"/>
      <point x="350" y="546"/>
      <point x="350" y="638" type="curve" smooth="yes"/>
    </contour>
  </outline>
</glyph>
<glyph name="plusminus" format="1">
  <advance width="600"/>
  <unicode hex="00B1"/>
  <outline>
    <contour>
      <point x="280" y="640" type="line"/>
      <point x="280" y="490" type="line"/>
      <point x="50" y="490" type="line"/>
      <point x="50" y="450" type="line"/>
      <point x="280" y="450" type="line"/>
      <point x="280" y="300" type="line"/>
      <point x="320" y="300" type="line"/>
      <point x="320" y="450" type="line"/>
      <point x="550" y="450" type="line"/>
      <point x="550" y="490" type="line"/>
      <point x="320" y="490" type="line"/>
      <point x="320" y="640" type="line"/>
    </contour>
    <contour>
      <point x="50" y="170" type="line"/>
      <point x="550" y="170" type="line"/>
      <point x="550" y="210" type="line"/>
      <point x="50" y="210" type="line"/>
    </contour>
  </outline>
</glyph>
<glyph name="twosuperior" format="1">
  <advance width="300"/>
  <unicode hex="00B2"/>
  <outline>
    <contour>
      <point x="272" y="422" type="line"/>
      <point x="82" y="422" type="line"/>
      <point x="226" y="575" type="line" smooth="yes"/>
      <point x="261" y="612"/>
      <point x="272" y="635"/>
      <point x="272" y="675" type="curve" smooth="yes"/>
      <point x="272" y="681" type="line" smooth="yes"/>
      <point x="272" y="743"/>
      <point x="229" y="785"/>
      <point x="150" y="785" type="curve" smooth="yes"/>
      <point x="65" y="785"/>
      <point x="28" y="740"/>
      <point x="28" y="662" type="curve" smooth="yes"/>
      <point x="28" y="650" type="line"/>
      <point x="63" y="650" type="line"/>
      <point x="63" y="723"/>
      <point x="92" y="753"/>
      <point x="148" y="753" type="curve" smooth="yes"/>
      <point x="151" y="753" type="line" smooth="yes"/>
      <point x="202" y="753"/>
      <point x="236" y="724"/>
      <point x="236" y="676" type="curve" smooth="yes"/>
      <point x="236" y="671" type="line" smooth="yes"/>
      <point x="236" y="642"/>
      <point x="226" y="622"/>
      <point x="196" y="591" type="curve" smooth="yes"/>
      <point x="28" y="412" type="line"/>
      <point x="28" y="390" type="line"/>
      <point x="272" y="390" type="line"/>
    </contour>
  </outline>
</glyph>
<glyph name="paragraph" format="1">
  <advance width="500"/>
  <unicode hex="00B6"/>
  <outline>
    <contour>
      <point x="390" y="0" type="line"/>
      <point x="430" y="0" type="line"/>
      <point x="430" y="780" type="line"/>
      <point x="268" y="780" type="line" smooth="yes"/>
      <point x="162" y="780"/>
      <point x="40" y="735"/>
      <point x="40" y="565" type="curve" smooth="yes"/>
      <point x="40" y="545" type="line" smooth="yes"/>
      <point x="40" y="375"/>
      <point x="162" y="330"/>
      <point x="268" y="330" type="curve" smooth="yes"/>
      <point x="280" y="330" type="line"/>
      <point x="280" y="0" type="line"/>
      <point x="320" y="0" type="line"/>
      <point x="320" y="742" type="line"/>
      <point x="390" y="742" type="line"/>
    </contour>
    <contour>
      <point x="82" y="547" type="curve" smooth="yes"/>
      <point x="82" y="563" type="line" smooth="yes"/>
      <point x="82" y="714"/>
      <point x="192" y="742"/>
      <point x="268" y="742" type="curve" smooth="yes"/>
      <point x="280" y="742" type="line"/>
      <point x="280" y="368" type="line"/>
      <point x="268" y="368" type="line" smooth="yes"/>
      <point x="192" y="368"/>
      <point x="82" y="396"/>
    </contour>
  </outline>
</glyph>
<glyph name="periodcentered" format="1">
  <advance width="200"/>
  <unicode hex="00B7"/>
  <outline>
    <contour>
      <point x="130" y="380" type="line"/>
      <point x="70" y="380" type="line"/>
      <point x="70" y="320" type="line"/>
      <point x="130" y="320" type="line"/>
    </contour>
  </outline>
</glyph>
<glyph name="onesuperior" format="1">
  <advance width="300"/>
  <unicode hex="00B9"/>
  <outline>
    <contour>
      <point x="274" y="390" type="line"/>
      <point x="274" y="422" type="line"/>
      <point x="173" y="422" type="line"/>
      <point x="173" y="782" type="line"/>
      <point x="150" y="782" type="line"/>
      <point x="27" y="699" type="line"/>
      <point x="45" y="671" type="line"/>
      <point x="137" y="733" type="line"/>
      <point x="137" y="422" type="line"/>
      <point x="35" y="422" type="line"/>
      <point x="35" y="390" type="line"/>
    </contour>
  </outline>
</glyph>
<glyph name="ordmasculine" format="1">
  <advance width="410"/>
  <unicode hex="00BA"/>
  <outline>
    <contour>
      <point x="367" y="577" type="curve" smooth="yes"/>
      <point x="367" y="593" type="line" smooth="yes"/>
      <point x="367" y="702"/>
      <point x="318" y="790"/>
      <point x="205" y="790" type="curve" smooth="yes"/>
      <point x="92" y="790"/>
      <point x="43" y="702"/>
      <point x="43" y="593" type="curve" smooth="yes"/>
      <point x="43" y="577" type="line" smooth="yes"/>
      <point x="43" y="468"/>
      <point x="92" y="380"/>
      <point x="205" y="380" type="curve" smooth="yes"/>
      <point x="318" y="380"/>
      <point x="367" y="468"/>
    </contour>
    <contour>
      <point x="82" y="577" type="curve" smooth="yes"/>
      <point x="82" y="593" type="line" smooth="yes"/>
      <point x="82" y="690"/>
      <point x="120" y="755"/>
      <point x="205" y="755" type="curve" smooth="yes"/>
      <point x="290" y="755"/>
      <point x="328" y="690"/>
      <point x="328" y="593" type="curve" smooth="yes"/>
      <point x="328" y="577" type="line" smooth="yes"/>
      <point x="328" y="480"/>
      <point x="290" y="415"/>
      <point x="205" y="415" type="curve" smooth="yes"/>
      <point x="120" y="415"/>
      <point x="82" y="480"/>
    </contour>
    <contour>
      <point x="50" y="223" type="line"/>
      <point x="360" y="223" type="line"/>
      <point x="360" y="258" type="line"/>
      <point x="50" y="258" type="line"/>
    </contour>
  </outline>
</glyph>
<glyph name="guillemotright" format="1">
  <advance width="500"/>
  <unicode hex="00BB"/>
  <outline>
    <contour>
      <point x="250" y="465" type="line"/>
      <point x="413" y="340" type="line"/>
      <point x="250" y="215" type="line"/>
      <point x="250" y="170" type="line"/>
      <point x="450" y="325" type="line"/>
      <point x="450" y="355" type="line"/>
      <point x="250" y="510" type="line"/>
    </contour>
    <contour>
      <point x="50" y="465" type="line"/>
      <point x="213" y="340" type="line"/>
      <point x="50" y="215" type="line"/>
      <point x="50" y="170" type="line"/>
      <point x="250" y="325" type="line"/>
      <point x="250" y="355" type="line"/>
      <point x="50" y="510" type="line"/>
    </contour>
  </outline>
</glyph>
<glyph name="onequarter" format="1">
  <advance width="800"/>
  <unicode hex="00BC"/>
  <outline>
    <contour>
      <point x="719" y="0" type="line"/>
      <point x="719" y="103" type="line"/>
      <point x="783" y="103" type="line"/>
      <point x="783" y="136" type="line"/>
      <point x="719" y="136" type="line"/>
      <point x="719" y="390" type="line"/>
      <point x="684" y="390" type="line"/>
      <point x="516" y="127" type="line"/>
      <point x="516" y="103" type="line"/>
      <point x="683" y="103" type="line"/>
      <point x="683" y="0" type="line"/>
    </contour>
    <contour>
      <point x="134" y="0" type="line"/>
      <point x="710" y="780" type="line"/>
      <point x="666" y="780" type="line"/>
      <point x="90" y="0" type="line"/>
    </contour>
    <contour>
      <point x="274" y="390" type="line"/>
      <point x="274" y="422" type="line"/>
      <point x="173" y="422" type="line"/>
      <point x="173" y="782" type="line"/>
      <point x="150" y="782" type="line"/>
      <point x="27" y="699" type="line"/>
      <point x="45" y="671" type="line"/>
      <point x="137" y="733" type="line"/>
      <point x="137" y="422" type="line"/>
      <point x="35" y="422" type="line"/>
      <point x="35" y="390" type="line"/>
    </contour>
    <contour>
      <point x="684" y="329" type="line"/>
      <point x="683" y="278" type="line"/>
      <point x="683" y="136" type="line"/>
      <point x="603" y="136" type="line"/>
      <point x="560" y="135" type="line"/>
    </contour>
  </outline>
</glyph>
<glyph name="onehalf" format="1">
  <advance width="800"/>
  <unicode hex="00BD"/>
  <outline>
    <contour>
      <point x="134" y="0" type="line"/>
      <point x="710" y="780" type="line"/>
      <point x="666" y="780" type="line"/>
      <point x="90" y="0" type="line"/>
    </contour>
    <contour>
      <point x="772" y="32" type="line"/>
      <point x="582" y="32" type="line"/>
      <point x="726" y="185" type="line" smooth="yes"/>
      <point x="761" y="222"/>
      <point x="772" y="245"/>
      <point x="772" y="285" type="curve" smooth="yes"/>
      <point x="772" y="291" type="line" smooth="yes"/>
      <point x="772" y="353"/>
      <point x="729" y="395"/>
      <point x="650" y="395" type="curve" smooth="yes"/>
      <point x="565" y="395"/>
      <point x="528" y="350"/>
      <point x="528" y="272" type="curve" smooth="yes"/>
      <point x="528" y="260" type="line"/>
      <point x="563" y="260" type="line"/>
      <point x="563" y="333"/>
      <point x="592" y="363"/>
      <point x="648" y="363" type="curve" smooth="yes"/>
      <point x="651" y="363" type="line" smooth="yes"/>
      <point x="702" y="363"/>
      <point x="736" y="334"/>
      <point x="736" y="286" type="curve" smooth="yes"/>
      <point x="736" y="281" type="line" smooth="yes"/>
      <point x="736" y="252"/>
      <point x="726" y="232"/>
      <point x="696" y="201" type="curve" smooth="yes"/>
      <point x="528" y="22" type="line"/>
      <point x="528" y="0" type="line"/>
      <point x="772" y="0" type="line"/>
    </contour>
    <contour>
      <point x="274" y="390" type="line"/>
      <point x="274" y="422" type="line"/>
      <point x="173" y="422" type="line"/>
      <point x="173" y="782" type="line"/>
      <point x="150" y="782" type="line"/>
      <point x="27" y="699" type="line"/>
      <point x="45" y="671" type="line"/>
      <point x="137" y="733" type="line"/>
      <point x="137" y="422" type="line"/>
      <point x="35" y="422" type="line"/>
      <point x="35" y="390" type="line"/>
    </contour>
  </outline>
</glyph>
<glyph name="threequarters" format="1">
  <advance width="800"/>
  <unicode hex="00BE"/>
  <outline>
    <contour>
      <point x="719" y="0" type="line"/>
      <point x="719" y="103" type="line"/>
      <point x="783" y="103" type="line"/>
      <point x="783" y="136" type="line"/>
      <point x="719" y="136" type="line"/>
      <point x="719" y="390" type="line"/>
      <point x="684" y="390" type="line"/>
      <point x="516" y="127" type="line"/>
      <point x="516" y="103" type="line"/>
      <point x="683" y="103" type="line"/>
      <point x="683" y="0" type="line"/>
    </contour>
    <contour>
      <point x="134" y="0" type="line"/>
      <point x="710" y="780" type="line"/>
      <point x="666" y="780" type="line"/>
      <point x="90" y="0" type="line"/>
    </contour>
    <contour>
      <point x="61" y="515" type="curve"/>
      <point x="25" y="515" type="line"/>
      <point x="25" y="509" type="line" smooth="yes"/>
      <point x="25" y="432"/>
      <point x="65" y="384"/>
      <point x="150" y="384" type="curve" smooth="yes"/>
      <point x="223" y="384"/>
      <point x="274" y="428"/>
      <point x="274" y="490" type="curve" smooth="yes"/>
      <point x="274" y="498" type="line" smooth="yes"/>
      <point x="274" y="546"/>
      <point x="248" y="575"/>
      <point x="211" y="588" type="curve"/>
      <point x="247" y="601"/>
      <point x="272" y="629"/>
      <point x="272" y="675" type="curve" smooth="yes"/>
      <point x="272" y="682" type="line" smooth="yes"/>
      <point x="272" y="743"/>
      <point x="229" y="785"/>
      <point x="150" y="785" type="curve" smooth="yes"/>
      <point x="65" y="785"/>
      <point x="28" y="740"/>
      <point x="28" y="662" type="curve" smooth="yes"/>
      <point x="28" y="650" type="line"/>
      <point x="63" y="650" type="line"/>
      <point x="63" y="723"/>
      <point x="91" y="753"/>
      <point x="147" y="753" type="curve" smooth="yes"/>
      <point x="152" y="753" type="line" smooth="yes"/>
      <point x="202" y="753"/>
      <point x="236" y="724"/>
      <point x="236" y="678" type="curve" smooth="yes"/>
      <point x="236" y="674" type="line" smooth="yes"/>
      <point x="236" y="626"/>
      <point x="200" y="605"/>
      <point x="155" y="605" type="curve" smooth="yes"/>
      <point x="100" y="605" type="line"/>
      <point x="100" y="573" type="line"/>
      <point x="157" y="573" type="line" smooth="yes"/>
      <point x="203" y="573"/>
      <point x="239" y="548"/>
      <point x="239" y="498" type="curve" smooth="yes"/>
      <point x="239" y="491" type="line" smooth="yes"/>
      <point x="239" y="440"/>
      <point x="197" y="416"/>
      <point x="152" y="416" type="curve" smooth="yes"/>
      <point x="147" y="416" type="line" smooth="yes"/>
      <point x="93" y="416"/>
      <point x="61" y="447"/>
    </contour>
    <contour>
      <point x="684" y="329" type="line"/>
      <point x="683" y="278" type="line"/>
      <point x="683" y="136" type="line"/>
      <point x="603" y="136" type="line"/>
      <point x="560" y="135" type="line"/>
    </contour>
  </outline>
</glyph>
<glyph name="questiondown" format="1">
  <advance width="440"/>
  <unicode hex="00BF"/>
  <outline>
    <contour>
      <point x="217" y="-172" type="curve" smooth="yes"/>
      <point x="115" y="-172"/>
      <point x="74" y="-115"/>
      <point x="74" y="-25" type="curve" smooth="yes"/>
      <point x="74" y="133"/>
      <point x="237" y="170"/>
      <point x="232" y="355" type="curve"/>
      <point x="208" y="355" type="line"/>
      <point x="203" y="170"/>
      <point x="32" y="169"/>
      <point x="32" y="-30" type="curve" smooth="yes"/>
      <point x="32" y="-144"/>
      <point x="100" y="-210"/>
      <point x="217" y="-210" type="curve" smooth="yes"/>
      <point x="376" y="-210"/>
      <point x="412" y="-91"/>
      <point x="412" y="50" type="curve" smooth="yes"/>
      <point x="412" y="60" type="line"/>
      <point x="372" y="60" type="line"/>
      <point x="372" y="-80"/>
      <point x="340" y="-172"/>
    </contour>
    <contour>
      <point x="190" y="470" type="line"/>
      <point x="250" y="470" type="line"/>
      <point x="250" y="530" type="line"/>
      <point x="190" y="530" type="line"/>
    </contour>
  </outline>
</glyph>
<glyph name="Agrave" format="1">
  <advance width="600"/>
  <unicode hex="00C0"/>
  <outline>
    <contour>
      <point x="270" y="790" type="line"/>
      <point x="34" y="0" type="line"/>
      <point x="78" y="0" type="line"/>
      <point x="140" y="211" type="line"/>
      <point x="459" y="211" type="line"/>
      <point x="522" y="0" type="line"/>
      <point x="566" y="0" type="line"/>
      <point x="330" y="790" type="line"/>
    </contour>
    <contour>
      <point x="300" y="750" type="line"/>
      <point x="448" y="249" type="line"/>
      <point x="151" y="249" type="line"/>
    </contour>
    <contour>
      <point x="217" y="950" type="line"/>
      <point x="279" y="840" type="line"/>
      <point x="321" y="840" type="line"/>
      <point x="259" y="950" type="line"/>
    </contour>
  </outline>
</glyph>
<glyph name="Acircumflex" format="1">
  <advance width="600"/>
  <unicode hex="00C2"/>
  <outline>
    <contour>
      <point x="270" y="790" type="line"/>
      <point x="34" y="0" type="line"/>
      <point x="78" y="0" type="line"/>
      <point x="140" y="211" type="line"/>
      <point x="459" y="211" type="line"/>
      <point x="522" y="0" type="line"/>
      <point x="566" y="0" type="line"/>
      <point x="330" y="790" type="line"/>
    </contour>
    <contour>
      <point x="300" y="750" type="line"/>
      <point x="448" y="249" type="line"/>
      <point x="151" y="249" type="line"/>
    </contour>
    <contour>
      <point x="230" y="840" type="line"/>
      <point x="300" y="917" type="line"/>
      <point x="370" y="840" type="line"/>
      <point x="415" y="840" type="line"/>
      <point x="315" y="950" type="line"/>
      <point x="285" y="950" type="line"/>
      <point x="185" y="840" type="line"/>
    </contour>
  </outline>
</glyph>
<glyph name="Atilde" format="1">
  <advance width="600"/>
  <unicode hex="00C3"/>
  <outline>
    <contour>
      <point x="270" y="790" type="line"/>
      <point x="34" y="0" type="line"/>
      <point x="78" y="0" type="line"/>
      <point x="140" y="211" type="line"/>
      <point x="459" y="211" type="line"/>
      <point x="522" y="0" type="line"/>
      <point x="566" y="0" type="line"/>
      <point x="330" y="790" type="line"/>
    </contour>
    <contour>
      <point x="300" y="750" type="line"/>
      <point x="448" y="249" type="line"/>
      <point x="151" y="249" type="line"/>
    </contour>
    <contour>
      <point x="404" y="932" type="line"/>
      <point x="404" y="897"/>
      <point x="390" y="881"/>
      <point x="365" y="881" type="curve" smooth="yes"/>
      <point x="325" y="881"/>
      <point x="290" y="942"/>
      <point x="232" y="942" type="curve" smooth="yes"/>
      <point x="189" y="942"/>
      <point x="160" y="915"/>
      <point x="160" y="858" type="curve"/>
      <point x="196" y="858" type="line"/>
      <point x="196" y="893"/>
      <point x="210" y="909"/>
      <point x="235" y="909" type="curve" smooth="yes"/>
      <point x="275" y="909"/>
      <point x="310" y="848"/>
      <point x="368" y="848" type="curve" smooth="yes"/>
      <point x="411" y="848"/>
      <point x="440" y="875"/>
      <point x="440" y="932" type="curve"/>
    </contour>
  </outline>
</glyph>
<glyph name="Adieresis" format="1">
  <advance width="600"/>
  <unicode hex="00C4"/>
  <outline>
    <contour>
      <point x="270" y="790" type="line"/>
      <point x="34" y="0" type="line"/>
      <point x="78" y="0" type="line"/>
      <point x="140" y="211" type="line"/>
      <point x="459" y="211" type="line"/>
      <point x="522" y="0" type="line"/>
      <point x="566" y="0" type="line"/>
      <point x="330" y="790" type="line"/>
    </contour>
    <contour>
      <point x="300" y="750" type="line"/>
      <point x="448" y="249" type="line"/>
      <point x="151" y="249" type="line"/>
    </contour>
    <contour>
      <point x="255" y="925" type="line"/>
      <point x="195" y="925" type="line"/>
      <point x="195" y="865" type="line"/>
      <point x="255" y="865" type="line"/>
    </contour>
    <contour>
      <point x="405" y="925" type="line"/>
      <point x="345" y="925" type="line"/>
      <point x="345" y="865" type="line"/>
      <point x="405" y="865" type="line"/>
    </contour>
  </outline>
</glyph>
<glyph name="Aring" format="1">
  <advance width="600"/>
  <unicode hex="00C5"/>
  <outline>
    <contour>
      <point x="210" y="870" type="curve" smooth="yes"/>
      <point x="210" y="831"/>
      <point x="234" y="798"/>
      <point x="268" y="785" type="curve"/>
      <point x="34" y="0" type="line"/>
      <point x="78" y="0" type="line"/>
      <point x="140" y="211" type="line"/>
      <point x="459" y="211" type="line"/>
      <point x="522" y="0" type="line"/>
      <point x="566" y="0" type="line"/>
      <point x="331" y="785" type="line"/>
      <point x="366" y="798"/>
      <point x="390" y="831"/>
      <point x="390" y="870" type="curve" smooth="yes"/>
      <point x="390" y="920"/>
      <point x="350" y="960"/>
      <point x="300" y="960" type="curve" smooth="yes"/>
      <point x="250" y="960"/>
      <point x="210" y="920"/>
    </contour>
    <contour>
      <point x="300" y="750" type="line"/>
      <point x="448" y="249" type="line"/>
      <point x="151" y="249" type="line"/>
    </contour>
    <contour>
      <point x="242" y="870" type="curve" smooth="yes"/>
      <point x="242" y="902"/>
      <point x="268" y="928"/>
      <point x="300" y="928" type="curve" smooth="yes"/>
      <point x="332" y="928"/>
      <point x="358" y="902"/>
      <point x="358" y="870" type="curve" smooth="yes"/>
      <point x="358" y="838"/>
      <point x="332" y="812"/>
      <point x="300" y="812" type="curve" smooth="yes"/>
      <point x="268" y="812"/>
      <point x="242" y="838"/>
    </contour>
  </outline>
</glyph>
<glyph name="AE" format="1">
  <advance width="820"/>
  <unicode hex="00C6"/>
  <outline>
    <contour>
      <point x="319" y="780" type="line"/>
      <point x="24" y="0" type="line"/>
      <point x="67" y="0" type="line"/>
      <point x="149" y="221" type="line"/>
      <point x="419" y="221" type="line"/>
      <point x="452" y="0" type="line"/>
      <point x="780" y="0" type="line"/>
      <point x="780" y="38" type="line"/>
      <point x="487" y="38" type="line"/>
      <point x="436" y="379" type="line"/>
      <point x="730" y="379" type="line"/>
      <point x="730" y="417" type="line"/>
      <point x="431" y="417" type="line"/>
      <point x="382" y="742" type="line"/>
      <point x="780" y="742" type="line"/>
      <point x="780" y="780" type="line"/>
    </contour>
    <contour>
      <point x="343" y="742" type="line"/>
      <point x="414" y="259" type="line"/>
      <point x="163" y="259" type="line"/>
    </contour>
  </outline>
</glyph>
<glyph name="Ccedilla" format="1">
  <advance width="607"/>
  <unicode hex="00C7"/>
  <outline>
    <contour>
      <point x="233" y="-188" type="line"/>
      <point x="253" y="-202"/>
      <point x="288" y="-210"/>
      <point x="321" y="-210" type="curve" smooth="yes"/>
      <point x="376" y="-210"/>
      <point x="418" y="-190"/>
      <point x="418" y="-135" type="curve" smooth="yes"/>
      <point x="418" y="-80"/>
      <point x="367" y="-64"/>
      <point x="325" y="-64" type="curve" smooth="yes"/>
      <point x="320" y="-64" type="line"/>
      <point x="340" y="-9" type="line"/>
      <point x="485" y="-1"/>
      <point x="552" y="92"/>
      <point x="552" y="240" type="curve" smooth="yes"/>
      <point x="552" y="250" type="line"/>
      <point x="510" y="250" type="line"/>
      <point x="510" y="105"/>
      <point x="454" y="28"/>
      <point x="323" y="28" type="curve" smooth="yes"/>
      <point x="317" y="28" type="line" smooth="yes"/>
      <point x="176" y="28"/>
      <point x="105" y="125"/>
      <point x="105" y="370" type="curve" smooth="yes"/>
      <point x="105" y="410" type="line" smooth="yes"/>
      <point x="105" y="655"/>
      <point x="178" y="752"/>
      <point x="317" y="752" type="curve" smooth="yes"/>
      <point x="323" y="752" type="line" smooth="yes"/>
      <point x="452" y="752"/>
      <point x="510" y="680"/>
      <point x="510" y="500" type="curve"/>
      <point x="552" y="500" type="line"/>
      <point x="552" y="525" type="line" smooth="yes"/>
      <point x="552" y="695"/>
      <point x="478" y="790"/>
      <point x="318" y="790" type="curve" smooth="yes"/>
      <point x="148" y="790"/>
      <point x="63" y="680"/>
      <point x="63" y="410" type="curve" smooth="yes"/>
      <point x="63" y="370" type="line" smooth="yes"/>
      <point x="63" y="107"/>
      <point x="143" y="-4"/>
      <point x="304" y="-10" type="curve"/>
      <point x="277" y="-83" type="line"/>
      <point x="294" y="-99" type="line"/>
      <point x="294" y="-99"/>
      <point x="306" y="-97"/>
      <point x="320" y="-97" type="curve" smooth="yes"/>
      <point x="357" y="-97"/>
      <point x="385" y="-107"/>
      <point x="385" y="-136" type="curve" smooth="yes"/>
      <point x="385" y="-167"/>
      <point x="362" y="-177"/>
      <point x="316" y="-177" type="curve" smooth="yes"/>
      <point x="290" y="-177"/>
      <point x="263" y="-169"/>
      <point x="246" y="-158" type="curve"/>
    </contour>
  </outline>
</glyph>
<glyph name="Egrave" format="1">
  <advance width="540"/>
  <unicode hex="00C8"/>
  <outline>
    <contour>
      <point x="80" y="780" type="line"/>
      <point x="80" y="0" type="line"/>
      <point x="500" y="0" type="line"/>
      <point x="500" y="38" type="line"/>
      <point x="120" y="38" type="line"/>
      <point x="120" y="379" type="line"/>
      <point x="450" y="379" type="line"/>
      <point x="450" y="417" type="line"/>
      <point x="120" y="417" type="line"/>
      <point x="120" y="742" type="line"/>
      <point x="500" y="742" type="line"/>
      <point x="500" y="780" type="line"/>
    </contour>
    <contour>
      <point x="217" y="950" type="line"/>
      <point x="279" y="840" type="line"/>
      <point x="321" y="840" type="line"/>
      <point x="259" y="950" type="line"/>
    </contour>
  </outline>
</glyph>
<glyph name="Ecircumflex" format="1">
  <advance width="540"/>
  <unicode hex="00CA"/>
  <outline>
    <contour>
      <point x="80" y="780" type="line"/>
      <point x="80" y="0" type="line"/>
      <point x="500" y="0" type="line"/>
      <point x="500" y="38" type="line"/>
      <point x="120" y="38" type="line"/>
      <point x="120" y="379" type="line"/>
      <point x="450" y="379" type="line"/>
      <point x="450" y="417" type="line"/>
      <point x="120" y="417" type="line"/>
      <point x="120" y="742" type="line"/>
      <point x="500" y="742" type="line"/>
      <point x="500" y="780" type="line"/>
    </contour>
    <contour>
      <point x="230" y="840" type="line"/>
      <point x="300" y="917" type="line"/>
      <point x="370" y="840" type="line"/>
      <point x="415" y="840" type="line"/>
      <point x="315" y="950" type="line"/>
      <point x="285" y="950" type="line"/>
      <point x="185" y="840" type="line"/>
    </contour>
  </outline>
</glyph>
<glyph name="Edieresis" format="1">
  <advance width="540"/>
  <unicode hex="00CB"/>
  <outline>
    <contour>
      <point x="80" y="780" type="line"/>
      <point x="80" y="0" type="line"/>
      <point x="500" y="0" type="line"/>
      <point x="500" y="38" type="line"/>
      <point x="120" y="38" type="line"/>
      <point x="120" y="379" type="line"/>
      <point x="450" y="379" type="line"/>
      <point x="450" y="417" type="line"/>
      <point x="120" y="417" type="line"/>
      <point x="120" y="742" type="line"/>
      <point x="500" y="742" type="line"/>
      <point x="500" y="780" type="line"/>
    </contour>
    <contour>
      <point x="405" y="925" type="line"/>
      <point x="345" y="925" type="line"/>
      <point x="345" y="865" type="line"/>
      <point x="405" y="865" type="line"/>
    </contour>
    <contour>
      <point x="255" y="925" type="line"/>
      <point x="195" y="925" type="line"/>
      <point x="195" y="865" type="line"/>
      <point x="255" y="865" type="line"/>
    </contour>
  </outline>
</glyph>
<glyph name="Igrave" format="1">
  <advance width="210"/>
  <unicode hex="00CC"/>
  <outline>
    <contour>
      <point x="125" y="780" type="line"/>
      <point x="85" y="780" type="line"/>
      <point x="85" y="0" type="line"/>
      <point x="125" y="0" type="line"/>
    </contour>
    <contour>
      <point x="22" y="950" type="line"/>
      <point x="84" y="840" type="line"/>
      <point x="126" y="840" type="line"/>
      <point x="64" y="950" type="line"/>
    </contour>
  </outline>
</glyph>
<glyph name="Icircumflex" format="1">
  <advance width="210"/>
  <unicode hex="00CE"/>
  <outline>
    <contour>
      <point x="125" y="780" type="line"/>
      <point x="85" y="780" type="line"/>
      <point x="85" y="0" type="line"/>
      <point x="125" y="0" type="line"/>
    </contour>
    <contour>
      <point x="35" y="840" type="line"/>
      <point x="105" y="917" type="line"/>
      <point x="175" y="840" type="line"/>
      <point x="220" y="840" type="line"/>
      <point x="120" y="950" type="line"/>
      <point x="90" y="950" type="line"/>
      <point x="-10" y="840" type="line"/>
    </contour>
  </outline>
</glyph>
<glyph name="Idieresis" format="1">
  <advance width="210"/>
  <unicode hex="00CF"/>
  <outline>
    <contour>
      <point x="125" y="780" type="line"/>
      <point x="85" y="780" type="line"/>
      <point x="85" y="0" type="line"/>
      <point x="125" y="0" type="line"/>
    </contour>
    <contour>
      <point x="210" y="925" type="line"/>
      <point x="150" y="925" type="line"/>
      <point x="150" y="865" type="line"/>
      <point x="210" y="865" type="line"/>
    </contour>
    <contour>
      <point x="60" y="925" type="line"/>
      <point x="0" y="925" type="line"/>
      <point x="0" y="865" type="line"/>
      <point x="60" y="865" type="line"/>
    </contour>
  </outline>
</glyph>
<glyph name="Eth" format="1">
  <advance width="690"/>
  <unicode hex="00D0"/>
  <outline>
    <contour>
      <point x="20" y="379" type="line"/>
      <point x="140" y="379" type="line"/>
      <point x="140" y="0" type="line"/>
      <point x="335" y="0" type="line" smooth="yes"/>
      <point x="510" y="0"/>
      <point x="627" y="100"/>
      <point x="627" y="370" type="curve" smooth="yes"/>
      <point x="627" y="410" type="line" smooth="yes"/>
      <point x="627" y="680"/>
      <point x="510" y="780"/>
      <point x="335" y="780" type="curve" smooth="yes"/>
      <point x="140" y="780" type="line"/>
      <point x="140" y="417" type="line"/>
      <point x="20" y="417" type="line"/>
    </contour>
    <contour>
      <point x="180" y="742" type="line"/>
      <point x="330" y="742" type="line" smooth="yes"/>
      <point x="485" y="742"/>
      <point x="585" y="655"/>
      <point x="585" y="410" type="curve" smooth="yes"/>
      <point x="585" y="370" type="line" smooth="yes"/>
      <point x="585" y="125"/>
      <point x="485" y="38"/>
      <point x="330" y="38" type="curve" smooth="yes"/>
      <point x="180" y="38" type="line"/>
      <point x="180" y="379" type="line"/>
      <point x="410" y="379" type="line"/>
      <point x="410" y="417" type="line"/>
      <point x="180" y="417" type="line"/>
    </contour>
  </outline>
</glyph>
<glyph name="Ntilde" format="1">
  <advance width="650"/>
  <unicode hex="00D1"/>
  <outline>
    <contour>
      <point x="570" y="780" type="line"/>
      <point x="532" y="780" type="line"/>
      <point x="532" y="250" type="line"/>
      <point x="535" y="60" type="line"/>
      <point x="125" y="780" type="line"/>
      <point x="80" y="780" type="line"/>
      <point x="80" y="0" type="line"/>
      <point x="118" y="0" type="line"/>
      <point x="118" y="530" type="line"/>
      <point x="115" y="720" type="line"/>
      <point x="525" y="0" type="line"/>
      <point x="570" y="0" type="line"/>
    </contour>
    <contour>
      <point x="429" y="932" type="line"/>
      <point x="429" y="897"/>
      <point x="415" y="881"/>
      <point x="390" y="881" type="curve" smooth="yes"/>
      <point x="350" y="881"/>
      <point x="315" y="942"/>
      <point x="257" y="942" type="curve" smooth="yes"/>
      <point x="214" y="942"/>
      <point x="185" y="915"/>
      <point x="185" y="858" type="curve"/>
      <point x="221" y="858" type="line"/>
      <point x="221" y="893"/>
      <point x="235" y="909"/>
      <point x="260" y="909" type="curve" smooth="yes"/>
      <point x="300" y="909"/>
      <point x="335" y="848"/>
      <point x="393" y="848" type="curve" smooth="yes"/>
      <point x="436" y="848"/>
      <point x="465" y="875"/>
      <point x="465" y="932" type="curve"/>
    </contour>
  </outline>
</glyph>
<glyph name="Ocircumflex" format="1">
  <advance width="640"/>
  <unicode hex="00D4"/>
  <outline>
    <contour>
      <point x="320" y="-10" type="curve" smooth="yes"/>
      <point x="490" y="-10"/>
      <point x="577" y="100"/>
      <point x="577" y="370" type="curve" smooth="yes"/>
      <point x="577" y="410" type="line" smooth="yes"/>
      <point x="577" y="680"/>
      <point x="490" y="790"/>
      <point x="320" y="790" type="curve" smooth="yes"/>
      <point x="150" y="790"/>
      <point x="63" y="680"/>
      <point x="63" y="410" type="curve" smooth="yes"/>
      <point x="63" y="370" type="line" smooth="yes"/>
      <point x="63" y="100"/>
      <point x="150" y="-10"/>
    </contour>
    <contour>
      <point x="317" y="28" type="line" smooth="yes"/>
      <point x="175" y="28"/>
      <point x="105" y="125"/>
      <point x="105" y="370" type="curve" smooth="yes"/>
      <point x="105" y="410" type="line" smooth="yes"/>
      <point x="105" y="655"/>
      <point x="175" y="752"/>
      <point x="317" y="752" type="curve" smooth="yes"/>
      <point x="323" y="752" type="line" smooth="yes"/>
      <point x="465" y="752"/>
      <point x="535" y="655"/>
      <point x="535" y="410" type="curve" smooth="yes"/>
      <point x="535" y="370" type="line" smooth="yes"/>
      <point x="535" y="125"/>
      <point x="465" y="28"/>
      <point x="323" y="28" type="curve" smooth="yes"/>
    </contour>
    <contour>
      <point x="250" y="840" type="line"/>
      <point x="320" y="917" type="line"/>
      <point x="390" y="840" type="line"/>
      <point x="435" y="840" type="line"/>
      <point x="335" y="950" type="line"/>
      <point x="305" y="950" type="line"/>
      <point x="205" y="840" type="line"/>
    </contour>
  </outline>
</glyph>
<glyph name="Otilde" format="1">
  <advance width="640"/>
  <unicode hex="00D5"/>
  <outline>
    <contour>
      <point x="320" y="-10" type="curve" smooth="yes"/>
      <point x="490" y="-10"/>
      <point x="577" y="100"/>
      <point x="577" y="370" type="curve" smooth="yes"/>
      <point x="577" y="410" type="line" smooth="yes"/>
      <point x="577" y="680"/>
      <point x="490" y="790"/>
      <point x="320" y="790" type="curve" smooth="yes"/>
      <point x="150" y="790"/>
      <point x="63" y="680"/>
      <point x="63" y="410" type="curve" smooth="yes"/>
      <point x="63" y="370" type="line" smooth="yes"/>
      <point x="63" y="100"/>
      <point x="150" y="-10"/>
    </contour>
    <contour>
      <point x="317" y="28" type="line" smooth="yes"/>
      <point x="175" y="28"/>
      <point x="105" y="125"/>
      <point x="105" y="370" type="curve" smooth="yes"/>
      <point x="105" y="410" type="line" smooth="yes"/>
      <point x="105" y="655"/>
      <point x="175" y="752"/>
      <point x="317" y="752" type="curve" smooth="yes"/>
      <point x="323" y="752" type="line" smooth="yes"/>
      <point x="465" y="752"/>
      <point x="535" y="655"/>
      <point x="535" y="410" type="curve" smooth="yes"/>
      <point x="535" y="370" type="line" smooth="yes"/>
      <point x="535" y="125"/>
      <point x="465" y="28"/>
      <point x="323" y="28" type="curve" smooth="yes"/>
    </contour>
    <contour>
      <point x="424" y="932" type="line"/>
      <point x="424" y="897"/>
      <point x="410" y="881"/>
      <point x="385" y="881" type="curve" smooth="yes"/>
      <point x="345" y="881"/>
      <point x="310" y="942"/>
      <point x="252" y="942" type="curve" smooth="yes"/>
      <point x="209" y="942"/>
      <point x="180" y="915"/>
      <point x="180" y="858" type="curve"/>
      <point x="216" y="858" type="line"/>
      <point x="216" y="893"/>
      <point x="230" y="909"/>
      <point x="255" y="909" type="curve" smooth="yes"/>
      <point x="295" y="909"/>
      <point x="330" y="848"/>
      <point x="388" y="848" type="curve" smooth="yes"/>
      <point x="431" y="848"/>
      <point x="460" y="875"/>
      <point x="460" y="932" type="curve"/>
    </contour>
  </outline>
</glyph>
<glyph name="multiply" format="1">
  <advance width="600"/>
  <unicode hex="00D7"/>
  <outline>
    <contour>
      <point x="67" y="128" type="line"/>
      <point x="300" y="361" type="line"/>
      <point x="533" y="128" type="line"/>
      <point x="562" y="157" type="line"/>
      <point x="329" y="390" type="line"/>
      <point x="562" y="623" type="line"/>
      <point x="533" y="652" type="line"/>
      <point x="300" y="419" type="line"/>
      <point x="67" y="652" type="line"/>
      <point x="38" y="623" type="line"/>
      <point x="271" y="390" type="line"/>
      <point x="38" y="157" type="line"/>
    </contour>
  </outline>
</glyph>
<glyph name="Oslash" format="1">
  <advance width="626"/>
  <unicode hex="00D8"/>
  <outline>
    <contour>
      <point x="63" y="410" type="curve" smooth="yes"/>
      <point x="63" y="370" type="line" smooth="yes"/>
      <point x="63" y="247"/>
      <point x="81" y="157"/>
      <point x="117" y="95" type="curve"/>
      <point x="60" y="0" type="line"/>
      <point x="104" y="0" type="line"/>
      <point x="141" y="62" type="line"/>
      <point x="183" y="12"/>
      <point x="243" y="-10"/>
      <point x="320" y="-10" type="curve" smooth="yes"/>
      <point x="490" y="-10"/>
      <point x="577" y="100"/>
      <point x="577" y="370" type="curve" smooth="yes"/>
      <point x="577" y="410" type="line" smooth="yes"/>
      <point x="577" y="539"/>
      <point x="557" y="631"/>
      <point x="518" y="693" type="curve"/>
      <point x="570" y="780" type="line"/>
      <point x="526" y="780" type="line"/>
      <point x="493" y="725" type="line"/>
      <point x="451" y="769"/>
      <point x="393" y="790"/>
      <point x="320" y="790" type="curve" smooth="yes"/>
      <point x="150" y="790"/>
      <point x="63" y="680"/>
    </contour>
    <contour>
      <point x="535" y="410" type="curve" smooth="yes"/>
      <point x="535" y="370" type="line" smooth="yes"/>
      <point x="535" y="125"/>
      <point x="465" y="28"/>
      <point x="323" y="28" type="curve" smooth="yes"/>
      <point x="317" y="28" type="line" smooth="yes"/>
      <point x="249" y="28"/>
      <point x="198" y="50"/>
      <point x="163" y="99" type="curve"/>
      <point x="494" y="652" type="line"/>
      <point x="521" y="597"/>
      <point x="535" y="518"/>
    </contour>
    <contour>
      <point x="105" y="370" type="curve" smooth="yes"/>
      <point x="105" y="410" type="line" smooth="yes"/>
      <point x="105" y="655"/>
      <point x="175" y="752"/>
      <point x="317" y="752" type="curve" smooth="yes"/>
      <point x="323" y="752" type="line" smooth="yes"/>
      <point x="387" y="752"/>
      <point x="436" y="732"/>
      <point x="471" y="688" type="curve"/>
      <point x="141" y="137" type="line"/>
      <point x="117" y="191"/>
      <point x="105" y="267"/>
    </contour>
  </outline>
</glyph>
<glyph name="Ugrave" format="1">
  <advance width="630"/>
  <unicode hex="00D9"/>
  <outline>
    <contour>
      <point x="315" y="-10" type="curve" smooth="yes"/>
      <point x="465" y="-10"/>
      <point x="555" y="46"/>
      <point x="555" y="240" type="curve" smooth="yes"/>
      <point x="555" y="780" type="line"/>
      <point x="515" y="780" type="line"/>
      <point x="515" y="245" type="line" smooth="yes"/>
      <point x="515" y="74"/>
      <point x="445" y="28"/>
      <point x="315" y="28" type="curve" smooth="yes"/>
      <point x="185" y="28"/>
      <point x="115" y="74"/>
      <point x="115" y="245" type="curve" smooth="yes"/>
      <point x="115" y="780" type="line"/>
      <point x="75" y="780" type="line"/>
      <point x="75" y="240" type="line" smooth="yes"/>
      <point x="75" y="46"/>
      <point x="165" y="-10"/>
    </contour>
    <contour>
      <point x="232" y="950" type="line"/>
      <point x="294" y="840" type="line"/>
      <point x="336" y="840" type="line"/>
      <point x="274" y="950" type="line"/>
    </contour>
  </outline>
</glyph>
<glyph name="Ucircumflex" format="1">
  <advance width="630"/>
  <unicode hex="00DB"/>
  <outline>
    <contour>
      <point x="315" y="-10" type="curve" smooth="yes"/>
      <point x="465" y="-10"/>
      <point x="555" y="46"/>
      <point x="555" y="240" type="curve" smooth="yes"/>
      <point x="555" y="780" type="line"/>
      <point x="515" y="780" type="line"/>
      <point x="515" y="245" type="line" smooth="yes"/>
      <point x="515" y="74"/>
      <point x="445" y="28"/>
      <point x="315" y="28" type="curve" smooth="yes"/>
      <point x="185" y="28"/>
      <point x="115" y="74"/>
      <point x="115" y="245" type="curve" smooth="yes"/>
      <point x="115" y="780" type="line"/>
      <point x="75" y="780" type="line"/>
      <point x="75" y="240" type="line" smooth="yes"/>
      <point x="75" y="46"/>
      <point x="165" y="-10"/>
    </contour>
    <contour>
      <point x="245" y="840" type="line"/>
      <point x="315" y="917" type="line"/>
      <point x="385" y="840" type="line"/>
      <point x="430" y="840" type="line"/>
      <point x="330" y="950" type="line"/>
      <point x="300" y="950" type="line"/>
      <point x="200" y="840" type="line"/>
    </contour>
  </outline>
</glyph>
<glyph name="Udieresis" format="1">
  <advance width="630"/>
  <unicode hex="00DC"/>
  <outline>
    <contour>
      <point x="315" y="-10" type="curve" smooth="yes"/>
      <point x="465" y="-10"/>
      <point x="555" y="46"/>
      <point x="555" y="240" type="curve" smooth="yes"/>
      <point x="555" y="780" type="line"/>
      <point x="515" y="780" type="line"/>
      <point x="515" y="245" type="line" smooth="yes"/>
      <point x="515" y="74"/>
      <point x="445" y="28"/>
      <point x="315" y="28" type="curve" smooth="yes"/>
      <point x="185" y="28"/>
      <point x="115" y="74"/>
      <point x="115" y="245" type="curve" smooth="yes"/>
      <point x="115" y="780" type="line"/>
      <point x="75" y="780" type="line"/>
      <point x="75" y="240" type="line" smooth="yes"/>
      <point x="75" y="46"/>
      <point x="165" y="-10"/>
    </contour>
    <contour>
      <point x="420" y="925" type="line"/>
      <point x="360" y="925" type="line"/>
      <point x="360" y="865" type="line"/>
      <point x="420" y="865" type="line"/>
    </contour>
    <contour>
      <point x="270" y="925" type="line"/>
      <point x="210" y="925" type="line"/>
      <point x="210" y="865" type="line"/>
      <point x="270" y="865" type="line"/>
    </contour>
  </outline>
</glyph>
<glyph name="Thorn" format="1">
  <advance width="560"/>
  <unicode hex="00DE"/>
  <outline>
    <contour>
      <point x="120" y="780" type="line"/>
      <point x="80" y="780" type="line"/>
      <point x="80" y="0" type="line"/>
      <point x="120" y="0" type="line"/>
      <point x="120" y="165" type="line"/>
      <point x="282" y="165" type="line" smooth="yes"/>
      <point x="388" y="165"/>
      <point x="510" y="210"/>
      <point x="510" y="380" type="curve" smooth="yes"/>
      <point x="510" y="400" type="line" smooth="yes"/>
      <point x="510" y="570"/>
      <point x="388" y="615"/>
      <point x="282" y="615" type="curve" smooth="yes"/>
      <point x="120" y="615" type="line"/>
    </contour>
    <contour>
      <point x="120" y="203" type="line"/>
      <point x="120" y="577" type="line"/>
      <point x="282" y="577" type="line" smooth="yes"/>
      <point x="358" y="577"/>
      <point x="468" y="549"/>
      <point x="468" y="398" type="curve" smooth="yes"/>
      <point x="468" y="382" type="line" smooth="yes"/>
      <point x="468" y="231"/>
      <point x="358" y="203"/>
      <point x="282" y="203" type="curve" smooth="yes"/>
    </contour>
  </outline>
</glyph>
<glyph name="germandbls" format="1">
  <advance width="550"/>
  <unicode hex="00DF"/>
  <outline>
    <contour>
      <point x="255" y="382" type="line"/>
      <point x="326" y="336" type="line" smooth="yes"/>
      <point x="427" y="271"/>
      <point x="480" y="231"/>
      <point x="480" y="160" type="curve" smooth="yes"/>
      <point x="480" y="94"/>
      <point x="455" y="28"/>
      <point x="350" y="28" type="curve" smooth="yes"/>
      <point x="245" y="28"/>
      <point x="220" y="94"/>
      <point x="220" y="160" type="curve"/>
      <point x="180" y="160" type="line"/>
      <point x="180" y="156" type="line" smooth="yes"/>
      <point x="180" y="83"/>
      <point x="210" y="-10"/>
      <point x="350" y="-10" type="curve" smooth="yes"/>
      <point x="490" y="-10"/>
      <point x="520" y="83"/>
      <point x="520" y="157" type="curve" smooth="yes"/>
      <point x="520" y="161" type="line" smooth="yes"/>
      <point x="520" y="243"/>
      <point x="465" y="292"/>
      <point x="365" y="358" type="curve" smooth="yes"/>
      <point x="307" y="396" type="line"/>
      <point x="411" y="461"/>
      <point x="450" y="524"/>
      <point x="450" y="608" type="curve" smooth="yes"/>
      <point x="450" y="614" type="line" smooth="yes"/>
      <point x="450" y="732"/>
      <point x="390" y="810"/>
      <point x="260" y="810" type="curve" smooth="yes"/>
      <point x="130" y="810"/>
      <point x="70" y="732"/>
      <point x="70" y="614" type="curve" smooth="yes"/>
      <point x="70" y="0" type="line"/>
      <point x="110" y="0" type="line"/>
      <point x="110" y="610" type="line" smooth="yes"/>
      <point x="110" y="705"/>
      <point x="155" y="770"/>
      <point x="260" y="770" type="curve" smooth="yes"/>
      <point x="365" y="770"/>
      <point x="410" y="705"/>
      <point x="410" y="610" type="curve" smooth="yes"/>
      <point x="410" y="523"/>
      <point x="367" y="472"/>
      <point x="255" y="410" type="curve"/>
    </contour>
  </outline>
</glyph>
<glyph name="agrave" format="1">
  <advance width="500"/>
  <unicode hex="00E0"/>
  <outline>
    <contour>
      <point x="405" y="0" type="line"/>
      <point x="435" y="0" type="line"/>
      <point x="430" y="150" type="line"/>
      <point x="430" y="345" type="line" smooth="yes"/>
      <point x="430" y="458"/>
      <point x="388" y="540"/>
      <point x="250" y="540" type="curve" smooth="yes"/>
      <point x="100" y="540"/>
      <point x="70" y="440"/>
      <point x="70" y="364" type="curve" smooth="yes"/>
      <point x="70" y="355" type="line"/>
      <point x="110" y="355" type="line"/>
      <point x="110" y="435"/>
      <point x="135" y="502"/>
      <point x="250" y="502" type="curve" smooth="yes"/>
      <point x="357" y="502"/>
      <point x="390" y="448"/>
      <point x="390" y="345" type="curve" smooth="yes"/>
      <point x="390" y="325" type="line"/>
      <point x="218" y="298" type="line" smooth="yes"/>
      <point x="140" y="286"/>
      <point x="50" y="255"/>
      <point x="50" y="140" type="curve" smooth="yes"/>
      <point x="50" y="130" type="line" smooth="yes"/>
      <point x="50" y="45"/>
      <point x="110" y="-10"/>
      <point x="200" y="-10" type="curve" smooth="yes"/>
      <point x="300" y="-10"/>
      <point x="361" y="34"/>
      <point x="395" y="80" type="curve"/>
    </contour>
    <contour>
      <point x="205" y="28" type="curve" smooth="yes"/>
      <point x="125" y="28"/>
      <point x="90" y="77"/>
      <point x="90" y="130" type="curve" smooth="yes"/>
      <point x="90" y="140" type="line" smooth="yes"/>
      <point x="90" y="209"/>
      <point x="140" y="246"/>
      <point x="215" y="259" type="curve" smooth="yes"/>
      <point x="390" y="288" type="line"/>
      <point x="390" y="128" type="line"/>
      <point x="371" y="94"/>
      <point x="323" y="28"/>
    </contour>
    <contour>
      <point x="139" y="780" type="line"/>
      <point x="229" y="620" type="line"/>
      <point x="271" y="620" type="line"/>
      <point x="181" y="780" type="line"/>
    </contour>
  </outline>
</glyph>
<glyph name="atilde" format="1">
  <advance width="500"/>
  <unicode hex="00E3"/>
  <outline>
    <contour>
      <point x="405" y="0" type="line"/>
      <point x="435" y="0" type="line"/>
      <point x="430" y="150" type="line"/>
      <point x="430" y="345" type="line" smooth="yes"/>
      <point x="430" y="458"/>
      <point x="388" y="540"/>
      <point x="250" y="540" type="curve" smooth="yes"/>
      <point x="100" y="540"/>
      <point x="70" y="440"/>
      <point x="70" y="364" type="curve" smooth="yes"/>
      <point x="70" y="355" type="line"/>
      <point x="110" y="355" type="line"/>
      <point x="110" y="435"/>
      <point x="135" y="502"/>
      <point x="250" y="502" type="curve" smooth="yes"/>
      <point x="357" y="502"/>
      <point x="390" y="448"/>
      <point x="390" y="345" type="curve" smooth="yes"/>
      <point x="390" y="325" type="line"/>
      <point x="218" y="298" type="line" smooth="yes"/>
      <point x="140" y="286"/>
      <point x="50" y="255"/>
      <point x="50" y="140" type="curve" smooth="yes"/>
      <point x="50" y="130" type="line" smooth="yes"/>
      <point x="50" y="45"/>
      <point x="110" y="-10"/>
      <point x="200" y="-10" type="curve" smooth="yes"/>
      <point x="300" y="-10"/>
      <point x="361" y="34"/>
      <point x="395" y="80" type="curve"/>
    </contour>
    <contour>
      <point x="205" y="28" type="curve" smooth="yes"/>
      <point x="125" y="28"/>
      <point x="90" y="77"/>
      <point x="90" y="130" type="curve" smooth="yes"/>
      <point x="90" y="140" type="line" smooth="yes"/>
      <point x="90" y="209"/>
      <point x="140" y="246"/>
      <point x="215" y="259" type="curve" smooth="yes"/>
      <point x="390" y="288" type="line"/>
      <point x="390" y="128" type="line"/>
      <point x="371" y="94"/>
      <point x="323" y="28"/>
    </contour>
    <contour>
      <point x="355" y="737" type="line"/>
      <point x="355" y="700"/>
      <point x="339" y="687"/>
      <point x="318" y="687" type="curve" smooth="yes"/>
      <point x="276" y="687"/>
      <point x="238" y="747"/>
      <point x="180" y="747" type="curve" smooth="yes"/>
      <point x="137" y="747"/>
      <point x="110" y="720"/>
      <point x="110" y="663" type="curve"/>
      <point x="145" y="663" type="line"/>
      <point x="145" y="700"/>
      <point x="161" y="713"/>
      <point x="182" y="713" type="curve" smooth="yes"/>
      <point x="224" y="713"/>
      <point x="262" y="653"/>
      <point x="320" y="653" type="curve" smooth="yes"/>
      <point x="363" y="653"/>
      <point x="390" y="680"/>
      <point x="390" y="737" type="curve"/>
    </contour>
  </outline>
</glyph>
<glyph name="aring" format="1">
  <advance width="500"/>
  <unicode hex="00E5"/>
  <outline>
    <contour>
      <point x="50" y="130" type="line" smooth="yes"/>
      <point x="50" y="45"/>
      <point x="110" y="-10"/>
      <point x="200" y="-10" type="curve" smooth="yes"/>
      <point x="300" y="-10"/>
      <point x="361" y="34"/>
      <point x="395" y="80" type="curve"/>
      <point x="405" y="0" type="line"/>
      <point x="435" y="0" type="line"/>
      <point x="430" y="150" type="line"/>
      <point x="430" y="345" type="line" smooth="yes"/>
      <point x="430" y="458"/>
      <point x="388" y="540"/>
      <point x="250" y="540" type="curve" smooth="yes"/>
      <point x="100" y="540"/>
      <point x="70" y="440"/>
      <point x="70" y="364" type="curve" smooth="yes"/>
      <point x="70" y="355" type="line"/>
      <point x="110" y="355" type="line"/>
      <point x="110" y="435"/>
      <point x="135" y="502"/>
      <point x="250" y="502" type="curve" smooth="yes"/>
      <point x="357" y="502"/>
      <point x="390" y="448"/>
      <point x="390" y="345" type="curve" smooth="yes"/>
      <point x="390" y="325" type="line"/>
      <point x="218" y="298" type="line" smooth="yes"/>
      <point x="140" y="286"/>
      <point x="50" y="255"/>
      <point x="50" y="140" type="curve" smooth="yes"/>
    </contour>
    <contour>
      <point x="205" y="28" type="curve" smooth="yes"/>
      <point x="125" y="28"/>
      <point x="90" y="77"/>
      <point x="90" y="130" type="curve" smooth="yes"/>
      <point x="90" y="140" type="line" smooth="yes"/>
      <point x="90" y="209"/>
      <point x="140" y="246"/>
      <point x="215" y="259" type="curve" smooth="yes"/>
      <point x="390" y="288" type="line"/>
      <point x="390" y="128" type="line"/>
      <point x="371" y="94"/>
      <point x="323" y="28"/>
    </contour>
    <contour>
      <point x="155" y="700" type="curve" smooth="yes"/>
      <point x="155" y="650"/>
      <point x="195" y="610"/>
      <point x="245" y="610" type="curve" smooth="yes"/>
      <point x="295" y="610"/>
      <point x="335" y="650"/>
      <point x="335" y="700" type="curve" smooth="yes"/>
      <point x="335" y="750"/>
      <point x="295" y="790"/>
      <point x="245" y="790" type="curve" smooth="yes"/>
      <point x="195" y="790"/>
      <point x="155" y="750"/>
    </contour>
    <contour>
      <point x="187" y="700" type="curve" smooth="yes"/>
      <point x="187" y="732"/>
      <point x="213" y="758"/>
      <point x="245" y="758" type="curve" smooth="yes"/>
      <point x="277" y="758"/>
      <point x="303" y="732"/>
      <point x="303" y="700" type="curve" smooth="yes"/>
      <point x="303" y="668"/>
      <point x="277" y="642"/>
      <point x="245" y="642" type="curve" smooth="yes"/>
      <point x="213" y="642"/>
      <point x="187" y="668"/>
    </contour>
  </outline>
</glyph>
<glyph name="ae" format="1">
  <advance width="875"/>
  <unicode hex="00E6"/>
  <outline>
    <contour>
      <point x="820" y="246" type="line"/>
      <point x="820" y="275" type="line" smooth="yes"/>
      <point x="820" y="420"/>
      <point x="756" y="540"/>
      <point x="605" y="540" type="curve" smooth="yes"/>
      <point x="507" y="540"/>
      <point x="448" y="490"/>
      <point x="418" y="415" type="curve"/>
      <point x="403" y="490"/>
      <point x="357" y="540"/>
      <point x="250" y="540" type="curve" smooth="yes"/>
      <point x="100" y="540"/>
      <point x="70" y="440"/>
      <point x="70" y="364" type="curve" smooth="yes"/>
      <point x="70" y="355" type="line"/>
      <point x="110" y="355" type="line"/>
      <point x="110" y="435"/>
      <point x="135" y="502"/>
      <point x="250" y="502" type="curve" smooth="yes"/>
      <point x="357" y="502"/>
      <point x="390" y="448"/>
      <point x="390" y="345" type="curve" smooth="yes"/>
      <point x="390" y="325" type="line"/>
      <point x="218" y="298" type="line" smooth="yes"/>
      <point x="140" y="286"/>
      <point x="50" y="255"/>
      <point x="50" y="140" type="curve" smooth="yes"/>
      <point x="50" y="130" type="line" smooth="yes"/>
      <point x="50" y="45"/>
      <point x="110" y="-10"/>
      <point x="200" y="-10" type="curve" smooth="yes"/>
      <point x="321" y="-10"/>
      <point x="390" y="56"/>
      <point x="417" y="110" type="curve"/>
      <point x="450" y="38"/>
      <point x="512" y="-10"/>
      <point x="610" y="-10" type="curve" smooth="yes"/>
      <point x="758" y="-10"/>
      <point x="820" y="90"/>
      <point x="820" y="166" type="curve" smooth="yes"/>
      <point x="820" y="170" type="line"/>
      <point x="780" y="170" type="line"/>
      <point x="780" y="105"/>
      <point x="733" y="28"/>
      <point x="610" y="28" type="curve" smooth="yes"/>
      <point x="487" y="28"/>
      <point x="434" y="116"/>
      <point x="432" y="246" type="curve"/>
    </contour>
    <contour>
      <point x="391" y="130" type="line"/>
      <point x="373" y="97"/>
      <point x="325" y="28"/>
      <point x="205" y="28" type="curve" smooth="yes"/>
      <point x="125" y="28"/>
      <point x="90" y="77"/>
      <point x="90" y="130" type="curve" smooth="yes"/>
      <point x="90" y="140" type="line" smooth="yes"/>
      <point x="90" y="209"/>
      <point x="140" y="246"/>
      <point x="215" y="259" type="curve" smooth="yes"/>
      <point x="390" y="288" type="line"/>
      <point x="390" y="255" type="line" smooth="yes"/>
      <point x="390" y="219"/>
      <point x="394" y="184"/>
      <point x="402" y="153" type="curve"/>
    </contour>
    <contour>
      <point x="605" y="502" type="curve" smooth="yes"/>
      <point x="721" y="502"/>
      <point x="775" y="414"/>
      <point x="778" y="284" type="curve"/>
      <point x="432" y="284" type="line"/>
      <point x="434" y="414"/>
      <point x="488" y="502"/>
    </contour>
  </outline>
</glyph>
<glyph name="ccedilla" format="1">
  <advance width="520"/>
  <unicode hex="00E7"/>
  <outline>
    <contour>
      <point x="186" y="-188" type="line"/>
      <point x="206" y="-202"/>
      <point x="241" y="-210"/>
      <point x="274" y="-210" type="curve" smooth="yes"/>
      <point x="329" y="-210"/>
      <point x="371" y="-190"/>
      <point x="371" y="-135" type="curve" smooth="yes"/>
      <point x="371" y="-80"/>
      <point x="320" y="-64"/>
      <point x="278" y="-64" type="curve" smooth="yes"/>
      <point x="273" y="-64" type="line"/>
      <point x="293" y="-9" type="line"/>
      <point x="419" y="1"/>
      <point x="465" y="94"/>
      <point x="465" y="166" type="curve" smooth="yes"/>
      <point x="465" y="180" type="line"/>
      <point x="425" y="180" type="line"/>
      <point x="425" y="102"/>
      <point x="386" y="28"/>
      <point x="270" y="28" type="curve" smooth="yes"/>
      <point x="151" y="28"/>
      <point x="97" y="120"/>
      <point x="97" y="255" type="curve" smooth="yes"/>
      <point x="97" y="275" type="line" smooth="yes"/>
      <point x="97" y="410"/>
      <point x="151" y="502"/>
      <point x="270" y="502" type="curve" smooth="yes"/>
      <point x="382" y="502"/>
      <point x="425" y="430"/>
      <point x="425" y="340" type="curve"/>
      <point x="465" y="340" type="line"/>
      <point x="465" y="359" type="line" smooth="yes"/>
      <point x="465" y="435"/>
      <point x="414" y="540"/>
      <point x="270" y="540" type="curve" smooth="yes"/>
      <point x="119" y="540"/>
      <point x="55" y="420"/>
      <point x="55" y="275" type="curve" smooth="yes"/>
      <point x="55" y="255" type="line" smooth="yes"/>
      <point x="55" y="114"/>
      <point x="115" y="-3"/>
      <point x="257" y="-10" type="curve"/>
      <point x="230" y="-83" type="line"/>
      <point x="247" y="-99" type="line"/>
      <point x="247" y="-99"/>
      <point x="259" y="-97"/>
      <point x="273" y="-97" type="curve" smooth="yes"/>
      <point x="310" y="-97"/>
      <point x="338" y="-107"/>
      <point x="338" y="-136" type="curve" smooth="yes"/>
      <point x="338" y="-167"/>
      <point x="315" y="-177"/>
      <point x="269" y="-177" type="curve" smooth="yes"/>
      <point x="243" y="-177"/>
      <point x="216" y="-169"/>
      <point x="199" y="-158" type="curve"/>
    </contour>
  </outline>
</glyph>
<glyph name="igrave" format="1">
  <advance width="200"/>
  <unicode hex="00EC"/>
  <outline>
    <contour>
      <point x="80" y="0" type="line"/>
      <point x="120" y="0" type="line"/>
      <point x="120" y="530" type="line"/>
      <point x="80" y="530" type="line"/>
    </contour>
    <contour>
      <point x="-11" y="780" type="line"/>
      <point x="79" y="620" type="line"/>
      <point x="121" y="620" type="line"/>
      <point x="31" y="780" type="line"/>
    </contour>
  </outline>
</glyph>
<glyph name="iacute" format="1">
  <advance width="200"/>
  <unicode hex="00ED"/>
  <outline>
    <contour>
      <point x="80" y="0" type="line"/>
      <point x="120" y="0" type="line"/>
      <point x="120" y="530" type="line"/>
      <point x="80" y="530" type="line"/>
    </contour>
    <contour>
      <point x="169" y="780" type="line"/>
      <point x="79" y="620" type="line"/>
      <point x="121" y="620" type="line"/>
      <point x="211" y="780" type="line"/>
    </contour>
  </outline>
</glyph>
<glyph name="icircumflex" format="1">
  <advance width="200"/>
  <unicode hex="00EE"/>
  <outline>
    <contour>
      <point x="80" y="0" type="line"/>
      <point x="120" y="0" type="line"/>
      <point x="120" y="530" type="line"/>
      <point x="80" y="530" type="line"/>
    </contour>
    <contour>
      <point x="0" y="620" type="line"/>
      <point x="100" y="744" type="line"/>
      <point x="200" y="620" type="line"/>
      <point x="245" y="620" type="line"/>
      <point x="115" y="780" type="line"/>
      <point x="85" y="780" type="line"/>
      <point x="-45" y="620" type="line"/>
    </contour>
  </outline>
</glyph>
<glyph name="idieresis" format="1">
  <advance width="200"/>
  <unicode hex="00EF"/>
  <outline>
    <contour>
      <point x="80" y="0" type="line"/>
      <point x="120" y="0" type="line"/>
      <point x="120" y="530" type="line"/>
      <point x="80" y="530" type="line"/>
    </contour>
    <contour>
      <point x="205" y="735" type="line"/>
      <point x="145" y="735" type="line"/>
      <point x="145" y="675" type="line"/>
      <point x="205" y="675" type="line"/>
    </contour>
    <contour>
      <point x="55" y="735" type="line"/>
      <point x="-5" y="735" type="line"/>
      <point x="-5" y="675" type="line"/>
      <point x="55" y="675" type="line"/>
    </contour>
  </outline>
</glyph>
<glyph name="eth" format="1">
  <advance width="540"/>
  <unicode hex="00F0"/>
  <outline>
    <contour>
      <point x="55" y="772" type="line"/>
      <point x="116" y="764"/>
      <point x="174" y="749"/>
      <point x="230" y="718" type="curve"/>
      <point x="97" y="640" type="line"/>
      <point x="97" y="597" type="line"/>
      <point x="266" y="696" type="line"/>
      <point x="289" y="680"/>
      <point x="311" y="661"/>
      <point x="334" y="638" type="curve" smooth="yes"/>
      <point x="378" y="592"/>
      <point x="407" y="528"/>
      <point x="425" y="464" type="curve"/>
      <point x="394" y="511"/>
      <point x="344" y="540"/>
      <point x="270" y="540" type="curve" smooth="yes"/>
      <point x="119" y="540"/>
      <point x="55" y="420"/>
      <point x="55" y="275" type="curve" smooth="yes"/>
      <point x="55" y="255" type="line" smooth="yes"/>
      <point x="55" y="110"/>
      <point x="119" y="-10"/>
      <point x="270" y="-10" type="curve" smooth="yes"/>
      <point x="421" y="-10"/>
      <point x="485" y="110"/>
      <point x="485" y="255" type="curve" smooth="yes"/>
      <point x="485" y="275" type="line" smooth="yes"/>
      <point x="485" y="389"/>
      <point x="461" y="564"/>
      <point x="366" y="664" type="curve" smooth="yes"/>
      <point x="346" y="685"/>
      <point x="326" y="703"/>
      <point x="305" y="719" type="curve"/>
      <point x="387" y="767" type="line"/>
      <point x="387" y="810" type="line"/>
      <point x="271" y="742" type="line"/>
      <point x="204" y="784"/>
      <point x="132" y="803"/>
      <point x="55" y="810" type="curve"/>
    </contour>
    <contour>
      <point x="270" y="28" type="curve" smooth="yes"/>
      <point x="151" y="28"/>
      <point x="97" y="120"/>
      <point x="97" y="255" type="curve" smooth="yes"/>
      <point x="97" y="275" type="line" smooth="yes"/>
      <point x="97" y="410"/>
      <point x="151" y="502"/>
      <point x="270" y="502" type="curve" smooth="yes"/>
      <point x="389" y="502"/>
      <point x="443" y="410"/>
      <point x="443" y="275" type="curve" smooth="yes"/>
      <point x="443" y="255" type="line" smooth="yes"/>
      <point x="443" y="120"/>
      <point x="389" y="28"/>
    </contour>
  </outline>
</glyph>
<glyph name="ntilde" format="1">
  <advance width="510"/>
  <unicode hex="00F1"/>
  <outline>
    <contour>
      <point x="445" y="0" type="line"/>
      <point x="445" y="375" type="line" smooth="yes"/>
      <point x="445" y="475"/>
      <point x="385" y="540"/>
      <point x="285" y="540" type="curve" smooth="yes"/>
      <point x="190" y="540"/>
      <point x="133" y="498"/>
      <point x="104" y="452" type="curve"/>
      <point x="95" y="530" type="line"/>
      <point x="65" y="530" type="line"/>
      <point x="70" y="380" type="line"/>
      <point x="70" y="0" type="line"/>
      <point x="110" y="0" type="line"/>
      <point x="110" y="410" type="line"/>
      <point x="135" y="450"/>
      <point x="180" y="502"/>
      <point x="275" y="502" type="curve" smooth="yes"/>
      <point x="350" y="502"/>
      <point x="405" y="465"/>
      <point x="405" y="370" type="curve" smooth="yes"/>
      <point x="405" y="0" type="line"/>
    </contour>
    <contour>
      <point x="363" y="737" type="line"/>
      <point x="363" y="700"/>
      <point x="347" y="687"/>
      <point x="326" y="687" type="curve" smooth="yes"/>
      <point x="284" y="687"/>
      <point x="246" y="747"/>
      <point x="188" y="747" type="curve" smooth="yes"/>
      <point x="145" y="747"/>
      <point x="118" y="720"/>
      <point x="118" y="663" type="curve"/>
      <point x="153" y="663" type="line"/>
      <point x="153" y="700"/>
      <point x="169" y="713"/>
      <point x="190" y="713" type="curve" smooth="yes"/>
      <point x="232" y="713"/>
      <point x="270" y="653"/>
      <point x="328" y="653" type="curve" smooth="yes"/>
      <point x="371" y="653"/>
      <point x="398" y="680"/>
      <point x="398" y="737" type="curve"/>
    </contour>
  </outline>
</glyph>
<glyph name="ocircumflex" format="1">
  <advance width="540"/>
  <unicode hex="00F4"/>
  <outline>
    <contour>
      <point x="270" y="-10" type="curve" smooth="yes"/>
      <point x="421" y="-10"/>
      <point x="485" y="110"/>
      <point x="485" y="255" type="curve" smooth="yes"/>
      <point x="485" y="275" type="line" smooth="yes"/>
      <point x="485" y="420"/>
      <point x="421" y="540"/>
      <point x="270" y="540" type="curve" smooth="yes"/>
      <point x="119" y="540"/>
      <point x="55" y="420"/>
      <point x="55" y="275" type="curve" smooth="yes"/>
      <point x="55" y="255" type="line" smooth="yes"/>
      <point x="55" y="110"/>
      <point x="119" y="-10"/>
    </contour>
    <contour>
      <point x="270" y="28" type="curve" smooth="yes"/>
      <point x="151" y="28"/>
      <point x="97" y="120"/>
      <point x="97" y="255" type="curve" smooth="yes"/>
      <point x="97" y="275" type="line" smooth="yes"/>
      <point x="97" y="410"/>
      <point x="151" y="502"/>
      <point x="270" y="502" type="curve" smooth="yes"/>
      <point x="389" y="502"/>
      <point x="443" y="410"/>
      <point x="443" y="275" type="curve" smooth="yes"/>
      <point x="443" y="255" type="line" smooth="yes"/>
      <point x="443" y="120"/>
      <point x="389" y="28"/>
    </contour>
    <contour>
      <point x="170" y="620" type="line"/>
      <point x="270" y="744" type="line"/>
      <point x="370" y="620" type="line"/>
      <point x="415" y="620" type="line"/>
      <point x="285" y="780" type="line"/>
      <point x="255" y="780" type="line"/>
      <point x="125" y="620" type="line"/>
    </contour>
  </outline>
</glyph>
<glyph name="otilde" format="1">
  <advance width="540"/>
  <unicode hex="00F5"/>
  <outline>
    <contour>
      <point x="270" y="-10" type="curve" smooth="yes"/>
      <point x="421" y="-10"/>
      <point x="485" y="110"/>
      <point x="485" y="255" type="curve" smooth="yes"/>
      <point x="485" y="275" type="line" smooth="yes"/>
      <point x="485" y="420"/>
      <point x="421" y="540"/>
      <point x="270" y="540" type="curve" smooth="yes"/>
      <point x="119" y="540"/>
      <point x="55" y="420"/>
      <point x="55" y="275" type="curve" smooth="yes"/>
      <point x="55" y="255" type="line" smooth="yes"/>
      <point x="55" y="110"/>
      <point x="119" y="-10"/>
    </contour>
    <contour>
      <point x="270" y="28" type="curve" smooth="yes"/>
      <point x="151" y="28"/>
      <point x="97" y="120"/>
      <point x="97" y="255" type="curve" smooth="yes"/>
      <point x="97" y="275" type="line" smooth="yes"/>
      <point x="97" y="410"/>
      <point x="151" y="502"/>
      <point x="270" y="502" type="curve" smooth="yes"/>
      <point x="389" y="502"/>
      <point x="443" y="410"/>
      <point x="443" y="275" type="curve" smooth="yes"/>
      <point x="443" y="255" type="line" smooth="yes"/>
      <point x="443" y="120"/>
      <point x="389" y="28"/>
    </contour>
    <contour>
      <point x="375" y="737" type="line"/>
      <point x="375" y="700"/>
      <point x="359" y="687"/>
      <point x="338" y="687" type="curve" smooth="yes"/>
      <point x="296" y="687"/>
      <point x="258" y="747"/>
      <point x="200" y="747" type="curve" smooth="yes"/>
      <point x="157" y="747"/>
      <point x="130" y="720"/>
      <point x="130" y="663" type="curve"/>
      <point x="165" y="663" type="line"/>
      <point x="165" y="700"/>
      <point x="181" y="713"/>
      <point x="202" y="713" type="curve" smooth="yes"/>
      <point x="244" y="713"/>
      <point x="282" y="653"/>
      <point x="340" y="653" type="curve" smooth="yes"/>
      <point x="383" y="653"/>
      <point x="410" y="680"/>
      <point x="410" y="737" type="curve"/>
    </contour>
  </outline>
</glyph>
<glyph name="odieresis" format="1">
  <advance width="540"/>
  <unicode hex="00F6"/>
  <outline>
    <contour>
      <point x="270" y="-10" type="curve" smooth="yes"/>
      <point x="421" y="-10"/>
      <point x="485" y="110"/>
      <point x="485" y="255" type="curve" smooth="yes"/>
      <point x="485" y="275" type="line" smooth="yes"/>
      <point x="485" y="420"/>
      <point x="421" y="540"/>
      <point x="270" y="540" type="curve" smooth="yes"/>
      <point x="119" y="540"/>
      <point x="55" y="420"/>
      <point x="55" y="275" type="curve" smooth="yes"/>
      <point x="55" y="255" type="line" smooth="yes"/>
      <point x="55" y="110"/>
      <point x="119" y="-10"/>
    </contour>
    <contour>
      <point x="270" y="28" type="curve" smooth="yes"/>
      <point x="151" y="28"/>
      <point x="97" y="120"/>
      <point x="97" y="255" type="curve" smooth="yes"/>
      <point x="97" y="275" type="line" smooth="yes"/>
      <point x="97" y="410"/>
      <point x="151" y="502"/>
      <point x="270" y="502" type="curve" smooth="yes"/>
      <point x="389" y="502"/>
      <point x="443" y="410"/>
      <point x="443" y="275" type="curve" smooth="yes"/>
      <point x="443" y="255" type="line" smooth="yes"/>
      <point x="443" y="120"/>
      <point x="389" y="28"/>
    </contour>
    <contour>
      <point x="225" y="735" type="line"/>
      <point x="165" y="735" type="line"/>
      <point x="165" y="675" type="line"/>
      <point x="225" y="675" type="line"/>
    </contour>
    <contour>
      <point x="375" y="735" type="line"/>
      <point x="315" y="735" type="line"/>
      <point x="315" y="675" type="line"/>
      <point x="375" y="675" type="line"/>
    </contour>
  </outline>
</glyph>
<glyph name="divide" format="1">
  <advance width="600"/>
  <unicode hex="00F7"/>
  <outline>
    <contour>
      <point x="50" y="370" type="line"/>
      <point x="550" y="370" type="line"/>
      <point x="550" y="410" type="line"/>
      <point x="50" y="410" type="line"/>
    </contour>
    <contour>
      <point x="330" y="200" type="line"/>
      <point x="270" y="200" type="line"/>
      <point x="270" y="140" type="line"/>
      <point x="330" y="140" type="line"/>
    </contour>
    <contour>
      <point x="330" y="640" type="line"/>
      <point x="270" y="640" type="line"/>
      <point x="270" y="580" type="line"/>
      <point x="330" y="580" type="line"/>
    </contour>
  </outline>
</glyph>
<glyph name="oslash" format="1">
  <advance width="540"/>
  <unicode hex="00F8"/>
  <outline>
    <contour>
      <point x="485" y="530" type="line"/>
      <point x="441" y="530" type="line"/>
      <point x="411" y="488" type="line"/>
      <point x="377" y="521"/>
      <point x="330" y="540"/>
      <point x="270" y="540" type="curve" smooth="yes"/>
      <point x="119" y="540"/>
      <point x="55" y="420"/>
      <point x="55" y="275" type="curve" smooth="yes"/>
      <point x="55" y="255" type="line" smooth="yes"/>
      <point x="55" y="183"/>
      <point x="71" y="117"/>
      <point x="105" y="69" type="curve"/>
      <point x="55" y="0" type="line"/>
      <point x="99" y="0" type="line"/>
      <point x="129" y="41" type="line"/>
      <point x="163" y="9"/>
      <point x="209" y="-10"/>
      <point x="270" y="-10" type="curve" smooth="yes"/>
      <point x="421" y="-10"/>
      <point x="485" y="110"/>
      <point x="485" y="255" type="curve" smooth="yes"/>
      <point x="485" y="275" type="line" smooth="yes"/>
      <point x="485" y="347"/>
      <point x="469" y="413"/>
      <point x="434" y="461" type="curve"/>
    </contour>
    <contour>
      <point x="97" y="255" type="curve" smooth="yes"/>
      <point x="97" y="275" type="line" smooth="yes"/>
      <point x="97" y="410"/>
      <point x="151" y="502"/>
      <point x="270" y="502" type="curve" smooth="yes"/>
      <point x="320" y="502"/>
      <point x="359" y="485"/>
      <point x="387" y="456" type="curve"/>
      <point x="130" y="103" type="line"/>
      <point x="107" y="142"/>
      <point x="97" y="194"/>
    </contour>
    <contour>
      <point x="443" y="275" type="curve" smooth="yes"/>
      <point x="443" y="255" type="line" smooth="yes"/>
      <point x="443" y="120"/>
      <point x="389" y="28"/>
      <point x="270" y="28" type="curve" smooth="yes"/>
      <point x="219" y="28"/>
      <point x="180" y="44"/>
      <point x="152" y="74" type="curve"/>
      <point x="409" y="426" type="line"/>
      <point x="432" y="387"/>
      <point x="443" y="335"/>
    </contour>
  </outline>
</glyph>
<glyph name="udieresis" format="1">
  <advance width="510"/>
  <unicode hex="00FC"/>
  <outline>
    <contour>
      <point x="65" y="530" type="line"/>
      <point x="65" y="155" type="line" smooth="yes"/>
      <point x="65" y="55"/>
      <point x="125" y="-10"/>
      <point x="225" y="-10" type="curve" smooth="yes"/>
      <point x="319" y="-10"/>
      <point x="376" y="31"/>
      <point x="405" y="77" type="curve"/>
      <point x="415" y="0" type="line"/>
      <point x="445" y="0" type="line"/>
      <point x="440" y="150" type="line"/>
      <point x="440" y="530" type="line"/>
      <point x="400" y="530" type="line"/>
      <point x="400" y="120" type="line"/>
      <point x="375" y="80"/>
      <point x="330" y="28"/>
      <point x="235" y="28" type="curve" smooth="yes"/>
      <point x="160" y="28"/>
      <point x="105" y="65"/>
      <point x="105" y="160" type="curve" smooth="yes"/>
      <point x="105" y="530" type="line"/>
    </contour>
    <contour>
      <point x="207" y="735" type="line"/>
      <point x="147" y="735" type="line"/>
      <point x="147" y="675" type="line"/>
      <point x="207" y="675" type="line"/>
    </contour>
    <contour>
      <point x="357" y="735" type="line"/>
      <point x="297" y="735" type="line"/>
      <point x="297" y="675" type="line"/>
      <point x="357" y="675" type="line"/>
    </contour>
  </outline>
</glyph>
<glyph name="thorn" format="1">
  <advance width="525"/>
  <unicode hex="00FE"/>
  <outline>
    <contour>
      <point x="70" y="800" type="line"/>
      <point x="70" y="-200" type="line"/>
      <point x="110" y="-200" type="line"/>
      <point x="110" y="65" type="line"/>
      <point x="137" y="24"/>
      <point x="186" y="-10"/>
      <point x="265" y="-10" type="curve" smooth="yes"/>
      <point x="410" y="-10"/>
      <point x="470" y="110"/>
      <point x="470" y="255" type="curve" smooth="yes"/>
      <point x="470" y="275" type="line" smooth="yes"/>
      <point x="470" y="420"/>
      <point x="410" y="540"/>
      <point x="265" y="540" type="curve" smooth="yes"/>
      <point x="186" y="540"/>
      <point x="137" y="505"/>
      <point x="110" y="464" type="curve"/>
      <point x="110" y="800" type="line"/>
    </contour>
    <contour>
      <point x="110" y="410" type="line"/>
      <point x="135" y="450"/>
      <point x="179" y="502"/>
      <point x="260" y="502" type="curve" smooth="yes"/>
      <point x="373" y="502"/>
      <point x="428" y="413"/>
      <point x="428" y="275" type="curve" smooth="yes"/>
      <point x="428" y="255" type="line" smooth="yes"/>
      <point x="428" y="117"/>
      <point x="373" y="28"/>
      <point x="260" y="28" type="curve" smooth="yes"/>
      <point x="179" y="28"/>
      <point x="135" y="80"/>
      <point x="110" y="120" type="curve"/>
    </contour>
  </outline>
</glyph>
<glyph name="ydieresis" format="1">
  <advance width="462"/>
  <unicode hex="00FF"/>
  <outline>
    <contour>
      <point x="240" y="65" type="line"/>
      <point x="71" y="530" type="line"/>
      <point x="29" y="530" type="line"/>
      <point x="220" y="18" type="line"/>
      <point x="138" y="-200" type="line"/>
      <point x="182" y="-200" type="line"/>
      <point x="260" y="18" type="line"/>
      <point x="451" y="530" type="line"/>
      <point x="409" y="530" type="line"/>
    </contour>
    <contour>
      <point x="345" y="735" type="line"/>
      <point x="285" y="735" type="line"/>
      <point x="285" y="675" type="line"/>
      <point x="345" y="675" type="line"/>
    </contour>
    <contour>
      <point x="195" y="735" type="line"/>
      <point x="135" y="735" type="line"/>
      <point x="135" y="675" type="line"/>
      <point x="195" y="675" type="line"/>
    </contour>
  </outline>
</glyph>
<glyph name="Amacron" format="1">
  <advance width="600"/>
  <unicode hex="0100"/>
  <outline>
    <contour>
      <point x="270" y="790" type="line"/>
      <point x="34" y="0" type="line"/>
      <point x="78" y="0" type="line"/>
      <point x="140" y="211" type="line"/>
      <point x="459" y="211" type="line"/>
      <point x="522" y="0" type="line"/>
      <point x="566" y="0" type="line"/>
      <point x="330" y="790" type="line"/>
    </contour>
    <contour>
      <point x="300" y="750" type="line"/>
      <point x="448" y="249" type="line"/>
      <point x="151" y="249" type="line"/>
    </contour>
    <contour>
      <point x="200" y="875" type="line"/>
      <point x="400" y="875" type="line"/>
      <point x="400" y="915" type="line"/>
      <point x="200" y="915" type="line"/>
    </contour>
  </outline>
</glyph>
<glyph name="Abreve" format="1">
  <advance width="600"/>
  <unicode hex="0102"/>
  <outline>
    <contour>
      <point x="270" y="790" type="line"/>
      <point x="34" y="0" type="line"/>
      <point x="78" y="0" type="line"/>
      <point x="140" y="211" type="line"/>
      <point x="459" y="211" type="line"/>
      <point x="522" y="0" type="line"/>
      <point x="566" y="0" type="line"/>
      <point x="330" y="790" type="line"/>
    </contour>
    <contour>
      <point x="300" y="750" type="line"/>
      <point x="448" y="249" type="line"/>
      <point x="151" y="249" type="line"/>
    </contour>
    <contour>
      <point x="300" y="830" type="curve" smooth="yes"/>
      <point x="384" y="830"/>
      <point x="432" y="880"/>
      <point x="432" y="950" type="curve"/>
      <point x="396" y="950" type="line"/>
      <point x="396" y="900"/>
      <point x="365" y="863"/>
      <point x="300" y="863" type="curve" smooth="yes"/>
      <point x="235" y="863"/>
      <point x="204" y="900"/>
      <point x="204" y="950" type="curve"/>
      <point x="168" y="950" type="line"/>
      <point x="168" y="880"/>
      <point x="216" y="830"/>
    </contour>
  </outline>
</glyph>
<glyph name="Aogonek" format="1">
  <advance width="600"/>
  <unicode hex="0104"/>
  <outline>
    <contour>
      <point x="472" y="-117" type="curve" smooth="yes"/>
      <point x="472" y="-55"/>
      <point x="520" y="-21"/>
      <point x="566" y="0" type="curve"/>
      <point x="330" y="790" type="line"/>
      <point x="270" y="790" type="line"/>
      <point x="34" y="0" type="line"/>
      <point x="78" y="0" type="line"/>
      <point x="140" y="211" type="line"/>
      <point x="459" y="211" type="line"/>
      <point x="519" y="9" type="line"/>
      <point x="475" y="-17"/>
      <point x="439" y="-57"/>
      <point x="439" y="-117" type="curve" smooth="yes"/>
      <point x="439" y="-181"/>
      <point x="480" y="-210"/>
      <point x="543" y="-210" type="curve" smooth="yes"/>
      <point x="567" y="-210"/>
      <point x="598" y="-204"/>
      <point x="619" y="-191" type="curve"/>
      <point x="607" y="-163" type="line"/>
      <point x="590" y="-172"/>
      <point x="567" y="-177"/>
      <point x="546" y="-177" type="curve" smooth="yes"/>
      <point x="501" y="-177"/>
      <point x="472" y="-155"/>
    </contour>
    <contour>
      <point x="300" y="750" type="line"/>
      <point x="448" y="249" type="line"/>
      <point x="151" y="249" type="line"/>
    </contour>
  </outline>
</glyph>
<glyph name="aogonek" format="1">
  <advance width="500"/>
  <unicode hex="0105"/>
  <outline>
    <contour>
      <point x="337" y="-117" type="curve" smooth="yes"/>
      <point x="337" y="-55"/>
      <point x="385" y="-21"/>
      <point x="431" y="0" type="curve"/>
      <point x="435" y="0" type="line"/>
      <point x="430" y="150" type="line"/>
      <point x="430" y="345" type="line" smooth="yes"/>
      <point x="430" y="458"/>
      <point x="388" y="540"/>
      <point x="250" y="540" type="curve" smooth="yes"/>
      <point x="100" y="540"/>
      <point x="70" y="440"/>
      <point x="70" y="364" type="curve" smooth="yes"/>
      <point x="70" y="355" type="line"/>
      <point x="110" y="355" type="line"/>
      <point x="110" y="435"/>
      <point x="135" y="502"/>
      <point x="250" y="502" type="curve" smooth="yes"/>
      <point x="357" y="502"/>
      <point x="390" y="448"/>
      <point x="390" y="345" type="curve" smooth="yes"/>
      <point x="390" y="325" type="line"/>
      <point x="218" y="298" type="line" smooth="yes"/>
      <point x="140" y="286"/>
      <point x="50" y="255"/>
      <point x="50" y="140" type="curve" smooth="yes"/>
      <point x="50" y="130" type="line" smooth="yes"/>
      <point x="50" y="45"/>
      <point x="110" y="-10"/>
      <point x="200" y="-10" type="curve" smooth="yes"/>
      <point x="300" y="-10"/>
      <point x="361" y="34"/>
      <point x="395" y="80" type="curve"/>
      <point x="402" y="19" type="line"/>
      <point x="350" y="-7"/>
      <point x="304" y="-49"/>
      <point x="304" y="-117" type="curve" smooth="yes"/>
      <point x="304" y="-181"/>
      <point x="345" y="-210"/>
      <point x="408" y="-210" type="curve" smooth="yes"/>
      <point x="432" y="-210"/>
      <point x="463" y="-204"/>
      <point x="484" y="-191" type="curve"/>
      <point x="472" y="-163" type="line"/>
      <point x="455" y="-172"/>
      <point x="432" y="-177"/>
      <point x="411" y="-177" type="curve" smooth="yes"/>
      <point x="366" y="-177"/>
      <point x="337" y="-155"/>
    </contour>
    <contour>
      <point x="205" y="28" type="curve" smooth="yes"/>
      <point x="125" y="28"/>
      <point x="90" y="77"/>
      <point x="90" y="130" type="curve" smooth="yes"/>
      <point x="90" y="140" type="line" smooth="yes"/>
      <point x="90" y="209"/>
      <point x="140" y="246"/>
      <point x="215" y="259" type="curve" smooth="yes"/>
      <point x="390" y="288" type="line"/>
      <point x="390" y="128" type="line"/>
      <point x="371" y="94"/>
      <point x="323" y="28"/>
    </contour>
  </outline>
</glyph>
<glyph name="Cdotaccent" format="1">
  <advance width="607"/>
  <unicode hex="010A"/>
  <outline>
    <contour>
      <point x="105" y="370" type="curve" smooth="yes"/>
      <point x="105" y="410" type="line" smooth="yes"/>
      <point x="105" y="655"/>
      <point x="178" y="752"/>
      <point x="317" y="752" type="curve" smooth="yes"/>
      <point x="323" y="752" type="line" smooth="yes"/>
      <point x="452" y="752"/>
      <point x="510" y="680"/>
      <point x="510" y="500" type="curve"/>
      <point x="552" y="500" type="line"/>
      <point x="552" y="525" type="line" smooth="yes"/>
      <point x="552" y="695"/>
      <point x="478" y="790"/>
      <point x="318" y="790" type="curve" smooth="yes"/>
      <point x="148" y="790"/>
      <point x="63" y="680"/>
      <point x="63" y="410" type="curve" smooth="yes"/>
      <point x="63" y="370" type="line" smooth="yes"/>
      <point x="63" y="100"/>
      <point x="148" y="-10"/>
      <point x="318" y="-10" type="curve" smooth="yes"/>
      <point x="478" y="-10"/>
      <point x="552" y="85"/>
      <point x="552" y="240" type="curve" smooth="yes"/>
      <point x="552" y="250" type="line"/>
      <point x="510" y="250" type="line"/>
      <point x="510" y="105"/>
      <point x="454" y="28"/>
      <point x="323" y="28" type="curve" smooth="yes"/>
      <point x="317" y="28" type="line" smooth="yes"/>
      <point x="176" y="28"/>
      <point x="105" y="125"/>
    </contour>
    <contour>
      <point x="348" y="925" type="line"/>
      <point x="288" y="925" type="line"/>
      <point x="288" y="865" type="line"/>
      <point x="348" y="865" type="line"/>
    </contour>
  </outline>
</glyph>
<glyph name="ccaron" format="1">
  <advance width="520"/>
  <unicode hex="010D"/>
  <outline>
    <contour>
      <point x="97" y="255" type="curve" smooth="yes"/>
      <point x="97" y="275" type="line" smooth="yes"/>
      <point x="97" y="410"/>
      <point x="151" y="502"/>
      <point x="270" y="502" type="curve" smooth="yes"/>
      <point x="382" y="502"/>
      <point x="425" y="430"/>
      <point x="425" y="340" type="curve"/>
      <point x="465" y="340" type="line"/>
      <point x="465" y="359" type="line" smooth="yes"/>
      <point x="465" y="435"/>
      <point x="414" y="540"/>
      <point x="270" y="540" type="curve" smooth="yes"/>
      <point x="119" y="540"/>
      <point x="55" y="420"/>
      <point x="55" y="275" type="curve" smooth="yes"/>
      <point x="55" y="255" type="line" smooth="yes"/>
      <point x="55" y="110"/>
      <point x="119" y="-10"/>
      <point x="270" y="-10" type="curve" smooth="yes"/>
      <point x="414" y="-10"/>
      <point x="465" y="90"/>
      <point x="465" y="166" type="curve" smooth="yes"/>
      <point x="465" y="180" type="line"/>
      <point x="425" y="180" type="line"/>
      <point x="425" y="102"/>
      <point x="386" y="28"/>
      <point x="270" y="28" type="curve" smooth="yes"/>
      <point x="151" y="28"/>
      <point x="97" y="120"/>
    </contour>
    <contour>
      <point x="125" y="780" type="line"/>
      <point x="255" y="620" type="line"/>
      <point x="285" y="620" type="line"/>
      <point x="415" y="780" type="line"/>
      <point x="370" y="780" type="line"/>
      <point x="270" y="656" type="line"/>
      <point x="170" y="780" type="line"/>
    </contour>
  </outline>
</glyph>
<glyph name="dcroat" format="1">
  <advance width="525"/>
  <unicode hex="0111"/>
  <outline>
    <contour>
      <point x="555" y="684" type="line"/>
      <point x="455" y="684" type="line"/>
      <point x="455" y="800" type="line"/>
      <point x="415" y="800" type="line"/>
      <point x="415" y="684" type="line"/>
      <point x="275" y="684" type="line"/>
      <point x="275" y="646" type="line"/>
      <point x="415" y="646" type="line"/>
      <point x="415" y="464" type="line"/>
      <point x="387" y="505"/>
      <point x="339" y="540"/>
      <point x="260" y="540" type="curve" smooth="yes"/>
      <point x="115" y="540"/>
      <point x="55" y="420"/>
      <point x="55" y="275" type="curve" smooth="yes"/>
      <point x="55" y="255" type="line" smooth="yes"/>
      <point x="55" y="110"/>
      <point x="115" y="-10"/>
      <point x="260" y="-10" type="curve" smooth="yes"/>
      <point x="344" y="-10"/>
      <point x="394" y="30"/>
      <point x="420" y="75" type="curve"/>
      <point x="430" y="0" type="line"/>
      <point x="460" y="0" type="line"/>
      <point x="455" y="150" type="line"/>
      <point x="455" y="646" type="line"/>
      <point x="555" y="646" type="line"/>
    </contour>
    <contour>
      <point x="415" y="410" type="curve"/>
      <point x="415" y="120" type="line"/>
      <point x="390" y="80"/>
      <point x="346" y="28"/>
      <point x="265" y="28" type="curve" smooth="yes"/>
      <point x="152" y="28"/>
      <point x="97" y="117"/>
      <point x="97" y="255" type="curve" smooth="yes"/>
      <point x="97" y="275" type="line" smooth="yes"/>
      <point x="97" y="413"/>
      <point x="152" y="502"/>
      <point x="265" y="502" type="curve" smooth="yes"/>
      <point x="346" y="502"/>
      <point x="390" y="450"/>
    </contour>
  </outline>
</glyph>
<glyph name="Emacron" format="1">
  <advance width="540"/>
  <unicode hex="0112"/>
  <outline>
    <contour>
      <point x="80" y="780" type="line"/>
      <point x="80" y="0" type="line"/>
      <point x="500" y="0" type="line"/>
      <point x="500" y="38" type="line"/>
      <point x="120" y="38" type="line"/>
      <point x="120" y="379" type="line"/>
      <point x="450" y="379" type="line"/>
      <point x="450" y="417" type="line"/>
      <point x="120" y="417" type="line"/>
      <point x="120" y="742" type="line"/>
      <point x="500" y="742" type="line"/>
      <point x="500" y="780" type="line"/>
    </contour>
    <contour>
      <point x="200" y="875" type="line"/>
      <point x="400" y="875" type="line"/>
      <point x="400" y="915" type="line"/>
      <point x="200" y="915" type="line"/>
    </contour>
  </outline>
</glyph>
<glyph name="Ebreve" format="1">
  <advance width="540"/>
  <unicode hex="0114"/>
  <outline>
    <contour>
      <point x="80" y="780" type="line"/>
      <point x="80" y="0" type="line"/>
      <point x="500" y="0" type="line"/>
      <point x="500" y="38" type="line"/>
      <point x="120" y="38" type="line"/>
      <point x="120" y="379" type="line"/>
      <point x="450" y="379" type="line"/>
      <point x="450" y="417" type="line"/>
      <point x="120" y="417" type="line"/>
      <point x="120" y="742" type="line"/>
      <point x="500" y="742" type="line"/>
      <point x="500" y="780" type="line"/>
    </contour>
    <contour>
      <point x="300" y="830" type="curve" smooth="yes"/>
      <point x="384" y="830"/>
      <point x="432" y="880"/>
      <point x="432" y="950" type="curve"/>
      <point x="396" y="950" type="line"/>
      <point x="396" y="900"/>
      <point x="365" y="863"/>
      <point x="300" y="863" type="curve" smooth="yes"/>
      <point x="235" y="863"/>
      <point x="204" y="900"/>
      <point x="204" y="950" type="curve"/>
      <point x="168" y="950" type="line"/>
      <point x="168" y="880"/>
      <point x="216" y="830"/>
    </contour>
  </outline>
</glyph>
<glyph name="Edotaccent" format="1">
  <advance width="540"/>
  <unicode hex="0116"/>
  <outline>
    <contour>
      <point x="80" y="780" type="line"/>
      <point x="80" y="0" type="line"/>
      <point x="500" y="0" type="line"/>
      <point x="500" y="38" type="line"/>
      <point x="120" y="38" type="line"/>
      <point x="120" y="379" type="line"/>
      <point x="450" y="379" type="line"/>
      <point x="450" y="417" type="line"/>
      <point x="120" y="417" type="line"/>
      <point x="120" y="742" type="line"/>
      <point x="500" y="742" type="line"/>
      <point x="500" y="780" type="line"/>
    </contour>
    <contour>
      <point x="330" y="925" type="line"/>
      <point x="270" y="925" type="line"/>
      <point x="270" y="865" type="line"/>
      <point x="330" y="865" type="line"/>
    </contour>
  </outline>
</glyph>
<glyph name="Eogonek" format="1">
  <advance width="540"/>
  <unicode hex="0118"/>
  <outline>
    <contour>
      <point x="406" y="-117" type="curve" smooth="yes"/>
      <point x="406" y="-55"/>
      <point x="454" y="-21"/>
      <point x="500" y="0" type="curve"/>
      <point x="500" y="38" type="line"/>
      <point x="120" y="38" type="line"/>
      <point x="120" y="379" type="line"/>
      <point x="450" y="379" type="line"/>
      <point x="450" y="417" type="line"/>
      <point x="120" y="417" type="line"/>
      <point x="120" y="742" type="line"/>
      <point x="500" y="742" type="line"/>
      <point x="500" y="780" type="line"/>
      <point x="80" y="780" type="line"/>
      <point x="80" y="0" type="line"/>
      <point x="439" y="0" type="line"/>
      <point x="401" y="-26"/>
      <point x="373" y="-64"/>
      <point x="373" y="-117" type="curve" smooth="yes"/>
      <point x="373" y="-181"/>
      <point x="414" y="-210"/>
      <point x="477" y="-210" type="curve" smooth="yes"/>
      <point x="501" y="-210"/>
      <point x="532" y="-204"/>
      <point x="553" y="-191" type="curve"/>
      <point x="541" y="-163" type="line"/>
      <point x="524" y="-172"/>
      <point x="501" y="-177"/>
      <point x="480" y="-177" type="curve" smooth="yes"/>
      <point x="435" y="-177"/>
      <point x="406" y="-155"/>
    </contour>
  </outline>
</glyph>
<glyph name="eogonek" format="1">
  <advance width="540"/>
  <unicode hex="0119"/>
  <outline>
    <contour>
      <point x="256" y="-117" type="curve" smooth="yes"/>
      <point x="256" y="-55"/>
      <point x="308" y="-12"/>
      <point x="350" y="0" type="curve" smooth="yes"/>
      <point x="446" y="28"/>
      <point x="485" y="104"/>
      <point x="485" y="166" type="curve" smooth="yes"/>
      <point x="485" y="170" type="line"/>
      <point x="445" y="170" type="line"/>
      <point x="445" y="105"/>
      <point x="398" y="28"/>
      <point x="275" y="28" type="curve" smooth="yes"/>
      <point x="152" y="28"/>
      <point x="99" y="116"/>
      <point x="97" y="246" type="curve"/>
      <point x="485" y="246" type="line"/>
      <point x="485" y="275" type="line" smooth="yes"/>
      <point x="485" y="420"/>
      <point x="421" y="540"/>
      <point x="270" y="540" type="curve" smooth="yes"/>
      <point x="119" y="540"/>
      <point x="55" y="420"/>
      <point x="55" y="275" type="curve" smooth="yes"/>
      <point x="55" y="255" type="line" smooth="yes"/>
      <point x="55" y="110"/>
      <point x="120" y="-10"/>
      <point x="275" y="-10" type="curve" smooth="yes"/>
      <point x="276" y="-10" type="line"/>
      <point x="245" y="-36"/>
      <point x="223" y="-70"/>
      <point x="223" y="-117" type="curve" smooth="yes"/>
      <point x="223" y="-181"/>
      <point x="264" y="-210"/>
      <point x="327" y="-210" type="curve" smooth="yes"/>
      <point x="351" y="-210"/>
      <point x="382" y="-204"/>
      <point x="403" y="-191" type="curve"/>
      <point x="391" y="-163" type="line"/>
      <point x="374" y="-172"/>
      <point x="351" y="-177"/>
      <point x="330" y="-177" type="curve" smooth="yes"/>
      <point x="285" y="-177"/>
      <point x="256" y="-155"/>
    </contour>
    <contour>
      <point x="270" y="502" type="curve" smooth="yes"/>
      <point x="386" y="502"/>
      <point x="440" y="414"/>
      <point x="443" y="284" type="curve"/>
      <point x="97" y="284" type="line"/>
      <point x="99" y="414"/>
      <point x="153" y="502"/>
    </contour>
  </outline>
</glyph>
<glyph name="Ecaron" format="1">
  <advance width="540"/>
  <unicode hex="011A"/>
  <outline>
    <contour>
      <point x="80" y="780" type="line"/>
      <point x="80" y="0" type="line"/>
      <point x="500" y="0" type="line"/>
      <point x="500" y="38" type="line"/>
      <point x="120" y="38" type="line"/>
      <point x="120" y="379" type="line"/>
      <point x="450" y="379" type="line"/>
      <point x="450" y="417" type="line"/>
      <point x="120" y="417" type="line"/>
      <point x="120" y="742" type="line"/>
      <point x="500" y="742" type="line"/>
      <point x="500" y="780" type="line"/>
    </contour>
    <contour>
      <point x="185" y="950" type="line"/>
      <point x="285" y="840" type="line"/>
      <point x="315" y="840" type="line"/>
      <point x="415" y="950" type="line"/>
      <point x="370" y="950" type="line"/>
      <point x="300" y="873" type="line"/>
      <point x="230" y="950" type="line"/>
    </contour>
  </outline>
</glyph>
<glyph name="Gcommaaccent" format="1">
  <advance width="638"/>
  <unicode hex="0122"/>
  <outline>
    <contour>
      <point x="338" y="-10" type="curve" smooth="yes"/>
      <point x="457" y="-10"/>
      <point x="527" y="37"/>
      <point x="563" y="79" type="curve"/>
      <point x="563" y="371" type="line"/>
      <point x="378" y="371" type="line"/>
      <point x="378" y="333" type="line"/>
      <point x="523" y="333" type="line"/>
      <point x="523" y="99" type="line"/>
      <point x="494" y="64"/>
      <point x="433" y="28"/>
      <point x="343" y="28" type="curve" smooth="yes"/>
      <point x="337" y="28" type="line" smooth="yes"/>
      <point x="183" y="28"/>
      <point x="105" y="125"/>
      <point x="105" y="370" type="curve" smooth="yes"/>
      <point x="105" y="410" type="line" smooth="yes"/>
      <point x="105" y="655"/>
      <point x="187" y="752"/>
      <point x="327" y="752" type="curve" smooth="yes"/>
      <point x="333" y="752" type="line" smooth="yes"/>
      <point x="463" y="752"/>
      <point x="521" y="680"/>
      <point x="521" y="500" type="curve"/>
      <point x="563" y="500" type="line"/>
      <point x="563" y="525" type="line" smooth="yes"/>
      <point x="563" y="695"/>
      <point x="488" y="790"/>
      <point x="328" y="790" type="curve" smooth="yes"/>
      <point x="158" y="790"/>
      <point x="63" y="680"/>
      <point x="63" y="410" type="curve" smooth="yes"/>
      <point x="63" y="370" type="line" smooth="yes"/>
      <point x="63" y="100"/>
      <point x="158" y="-10"/>
    </contour>
    <contour>
      <point x="368" y="-60" type="line"/>
      <point x="308" y="-60" type="line"/>
      <point x="308" y="-120" type="line"/>
      <point x="338" y="-120" type="line"/>
      <point x="335" y="-162"/>
      <point x="310" y="-180"/>
      <point x="278" y="-180" type="curve"/>
      <point x="278" y="-210" type="line"/>
      <point x="333" y="-210"/>
      <point x="368" y="-170"/>
      <point x="368" y="-108" type="curve" smooth="yes"/>
    </contour>
  </outline>
</glyph>
<glyph name="Hcircumflex" format="1">
  <advance width="630"/>
  <unicode hex="0124"/>
  <outline>
    <contour>
      <point x="510" y="780" type="line"/>
      <point x="510" y="417" type="line"/>
      <point x="120" y="417" type="line"/>
      <point x="120" y="780" type="line"/>
      <point x="80" y="780" type="line"/>
      <point x="80" y="0" type="line"/>
      <point x="120" y="0" type="line"/>
      <point x="120" y="379" type="line"/>
      <point x="510" y="379" type="line"/>
      <point x="510" y="0" type="line"/>
      <point x="550" y="0" type="line"/>
      <point x="550" y="780" type="line"/>
    </contour>
    <contour>
      <point x="245" y="840" type="line"/>
      <point x="315" y="917" type="line"/>
      <point x="385" y="840" type="line"/>
      <point x="430" y="840" type="line"/>
      <point x="330" y="950" type="line"/>
      <point x="300" y="950" type="line"/>
      <point x="200" y="840" type="line"/>
    </contour>
  </outline>
</glyph>
<glyph name="hcircumflex" format="1">
  <advance width="510"/>
  <unicode hex="0125"/>
  <outline>
    <contour>
      <point x="110" y="800" type="line"/>
      <point x="70" y="800" type="line"/>
      <point x="70" y="0" type="line"/>
      <point x="110" y="0" type="line"/>
      <point x="110" y="410" type="line"/>
      <point x="135" y="450"/>
      <point x="180" y="502"/>
      <point x="275" y="502" type="curve" smooth="yes"/>
      <point x="350" y="502"/>
      <point x="405" y="465"/>
      <point x="405" y="370" type="curve" smooth="yes"/>
      <point x="405" y="0" type="line"/>
      <point x="445" y="0" type="line"/>
      <point x="445" y="375" type="line" smooth="yes"/>
      <point x="445" y="475"/>
      <point x="385" y="540"/>
      <point x="285" y="540" type="curve" smooth="yes"/>
      <point x="196" y="540"/>
      <point x="140" y="503"/>
      <point x="110" y="460" type="curve"/>
    </contour>
    <contour>
      <point x="20" y="840" type="line"/>
      <point x="90" y="917" type="line"/>
      <point x="160" y="840" type="line"/>
      <point x="205" y="840" type="line"/>
      <point x="105" y="950" type="line"/>
      <point x="75" y="950" type="line"/>
      <point x="-25" y="840" type="line"/>
    </contour>
  </outline>
</glyph>
<glyph name="Hbar" format="1">
  <advance width="630"/>
  <unicode hex="0126"/>
  <outline>
    <contour>
      <point x="510" y="780" type="line"/>
      <point x="510" y="619" type="line"/>
      <point x="120" y="619" type="line"/>
      <point x="120" y="780" type="line"/>
      <point x="80" y="780" type="line"/>
      <point x="80" y="0" type="line"/>
      <point x="120" y="0" type="line"/>
      <point x="120" y="379" type="line"/>
      <point x="510" y="379" type="line"/>
      <point x="510" y="0" type="line"/>
      <point x="550" y="0" type="line"/>
      <point x="550" y="780" type="line"/>
    </contour>
    <contour>
      <point x="120" y="417" type="line"/>
      <point x="120" y="581" type="line"/>
      <point x="510" y="581" type="line"/>
      <point x="510" y="417" type="line"/>
    </contour>
  </outline>
</glyph>
<glyph name="hbar" format="1">
  <advance width="510"/>
  <unicode hex="0127"/>
  <outline>
    <contour>
      <point x="110" y="800" type="line"/>
      <point x="70" y="800" type="line"/>
      <point x="70" y="684" type="line"/>
      <point x="-30" y="684" type="line"/>
      <point x="-30" y="646" type="line"/>
      <point x="70" y="646" type="line"/>
      <point x="70" y="0" type="line"/>
      <point x="110" y="0" type="line"/>
      <point x="110" y="410" type="line"/>
      <point x="135" y="450"/>
      <point x="180" y="502"/>
      <point x="275" y="502" type="curve" smooth="yes"/>
      <point x="350" y="502"/>
      <point x="405" y="465"/>
      <point x="405" y="370" type="curve" smooth="yes"/>
      <point x="405" y="0" type="line"/>
      <point x="445" y="0" type="line"/>
      <point x="445" y="375" type="line" smooth="yes"/>
      <point x="445" y="475"/>
      <point x="385" y="540"/>
      <point x="285" y="540" type="curve" smooth="yes"/>
      <point x="196" y="540"/>
      <point x="140" y="503"/>
      <point x="110" y="460" type="curve"/>
      <point x="110" y="646" type="line"/>
      <point x="250" y="646" type="line"/>
      <point x="250" y="684" type="line"/>
      <point x="110" y="684" type="line"/>
    </contour>
  </outline>
</glyph>
<glyph name="Itilde" format="1">
  <advance width="210"/>
  <unicode hex="0128"/>
  <outline>
    <contour>
      <point x="125" y="780" type="line"/>
      <point x="85" y="780" type="line"/>
      <point x="85" y="0" type="line"/>
      <point x="125" y="0" type="line"/>
    </contour>
    <contour>
      <point x="209" y="932" type="line"/>
      <point x="209" y="897"/>
      <point x="195" y="881"/>
      <point x="170" y="881" type="curve" smooth="yes"/>
      <point x="130" y="881"/>
      <point x="95" y="942"/>
      <point x="37" y="942" type="curve" smooth="yes"/>
      <point x="-6" y="942"/>
      <point x="-35" y="915"/>
      <point x="-35" y="858" type="curve"/>
      <point x="1" y="858" type="line"/>
      <point x="1" y="893"/>
      <point x="15" y="909"/>
      <point x="40" y="909" type="curve" smooth="yes"/>
      <point x="80" y="909"/>
      <point x="115" y="848"/>
      <point x="173" y="848" type="curve" smooth="yes"/>
      <point x="216" y="848"/>
      <point x="245" y="875"/>
      <point x="245" y="932" type="curve"/>
    </contour>
  </outline>
</glyph>
<glyph name="itilde" format="1">
  <advance width="200"/>
  <unicode hex="0129"/>
  <outline>
    <contour>
      <point x="80" y="0" type="line"/>
      <point x="120" y="0" type="line"/>
      <point x="120" y="530" type="line"/>
      <point x="80" y="530" type="line"/>
    </contour>
    <contour>
      <point x="205" y="737" type="line"/>
      <point x="205" y="700"/>
      <point x="189" y="687"/>
      <point x="168" y="687" type="curve" smooth="yes"/>
      <point x="126" y="687"/>
      <point x="88" y="747"/>
      <point x="30" y="747" type="curve" smooth="yes"/>
      <point x="-13" y="747"/>
      <point x="-40" y="720"/>
      <point x="-40" y="663" type="curve"/>
      <point x="-5" y="663" type="line"/>
      <point x="-5" y="700"/>
      <point x="11" y="713"/>
      <point x="32" y="713" type="curve" smooth="yes"/>
      <point x="74" y="713"/>
      <point x="112" y="653"/>
      <point x="170" y="653" type="curve" smooth="yes"/>
      <point x="213" y="653"/>
      <point x="240" y="680"/>
      <point x="240" y="737" type="curve"/>
    </contour>
  </outline>
</glyph>
<glyph name="Imacron" format="1">
  <advance width="210"/>
  <unicode hex="012A"/>
  <outline>
    <contour>
      <point x="125" y="780" type="line"/>
      <point x="85" y="780" type="line"/>
      <point x="85" y="0" type="line"/>
      <point x="125" y="0" type="line"/>
    </contour>
    <contour>
      <point x="5" y="875" type="line"/>
      <point x="205" y="875" type="line"/>
      <point x="205" y="915" type="line"/>
      <point x="5" y="915" type="line"/>
    </contour>
  </outline>
</glyph>
<glyph name="imacron" format="1">
  <advance width="200"/>
  <unicode hex="012B"/>
  <outline>
    <contour>
      <point x="80" y="0" type="line"/>
      <point x="120" y="0" type="line"/>
      <point x="120" y="530" type="line"/>
      <point x="80" y="530" type="line"/>
    </contour>
    <contour>
      <point x="-5" y="680" type="line"/>
      <point x="205" y="680" type="line"/>
      <point x="205" y="720" type="line"/>
      <point x="-5" y="720" type="line"/>
    </contour>
  </outline>
</glyph>
<glyph name="Ibreve" format="1">
  <advance width="210"/>
  <unicode hex="012C"/>
  <outline>
    <contour>
      <point x="125" y="780" type="line"/>
      <point x="85" y="780" type="line"/>
      <point x="85" y="0" type="line"/>
      <point x="125" y="0" type="line"/>
    </contour>
    <contour>
      <point x="105" y="830" type="curve" smooth="yes"/>
      <point x="189" y="830"/>
      <point x="237" y="880"/>
      <point x="237" y="950" type="curve"/>
      <point x="201" y="950" type="line"/>
      <point x="201" y="900"/>
      <point x="170" y="863"/>
      <point x="105" y="863" type="curve" smooth="yes"/>
      <point x="40" y="863"/>
      <point x="9" y="900"/>
      <point x="9" y="950" type="curve"/>
      <point x="-27" y="950" type="line"/>
      <point x="-27" y="880"/>
      <point x="21" y="830"/>
    </contour>
  </outline>
</glyph>
